<?xml version="1.0" encoding="utf-8"?>
<!-- Generator: Adobe Illustrator 23.0.1, SVG Export Plug-In . SVG Version: 6.00 Build 0)  -->
<svg version="1.1" id="Layer_1" xmlns="http://www.w3.org/2000/svg" xmlns:xlink="http://www.w3.org/1999/xlink" x="0px" y="0px"
	 viewBox="0 0 100 100" style="enable-background:new 0 0 100 100;" xml:space="preserve">
<style type="text/css">
	.st0{fill:#202020;}
</style>
<path class="st0" d="M92.31,78.79l5.9-2.29l-0.03-1.46c-0.03-2.27-0.42-4.51-1.11-6.64L96.62,67l-6.46-0.2
	c-0.15-0.25-0.31-0.51-0.47-0.76l2.59-5.96l-1.05-1c-0.78-0.74-1.62-1.44-2.53-2.09c-0.93-0.66-1.9-1.26-2.92-1.78l-1.31-0.67
	l-4.8,4.49c-0.28-0.07-0.55-0.13-0.83-0.18l-2.4-6.11L75,52.78c-2.24,0.04-4.46,0.43-6.57,1.13l-1.4,0.46l-0.21,6.53
	c-0.25,0.15-0.5,0.31-0.74,0.47l-5.94-2.59l-1,1.03c-0.74,0.76-1.38,1.56-1.99,2.37c-0.73,1.04-1.35,2.07-1.88,3.13l-0.65,1.3
	l4.39,4.68c-0.08,0.31-0.15,0.63-0.22,0.94l-5.91,2.31l0.03,1.47c0.05,2.27,0.46,4.5,1.2,6.64l0.47,1.37l6.23,0.21
	c0.18,0.3,0.36,0.59,0.56,0.88l-2.5,5.7l1.08,1.01c0.73,0.69,1.54,1.37,2.41,2c1,0.71,2.04,1.35,3.14,1.89l1.3,0.63l4.47-4.2
	c0.34,0.09,0.69,0.17,1.04,0.23l2.24,5.72L76,98.05c2.28-0.05,4.52-0.45,6.67-1.16l1.39-0.46l0.21-6.16
	c0.3-0.18,0.59-0.36,0.88-0.56l5.69,2.48l1.01-1.05c0.74-0.79,1.45-1.64,2.1-2.54c0.68-0.95,1.29-1.95,1.79-2.94l0.67-1.31
	l-4.3-4.59C92.19,79.43,92.25,79.11,92.31,78.79z M91.31,85.02c-0.24,0.39-0.49,0.76-0.75,1.13c-0.25,0.35-0.51,0.68-0.78,1.01
	l-5.22-2.27l-0.99,0.79c-0.72,0.57-1.49,1.07-2.27,1.44l-1.13,0.55l-0.19,5.65c-0.87,0.22-1.74,0.37-2.62,0.47l-2.06-5.24
	l-1.25-0.14c-0.9-0.1-1.8-0.3-2.66-0.6l-1.2-0.41l-4.11,3.87c-0.43-0.26-0.87-0.55-1.29-0.85c-0.3-0.21-0.6-0.44-0.88-0.67
	l2.27-5.19l-0.77-0.98c-0.57-0.73-1.05-1.51-1.46-2.33l-0.56-1.11l-5.73-0.19c-0.22-0.85-0.37-1.71-0.47-2.58l5.4-2.11l0.15-1.24
	c0.11-0.88,0.3-1.73,0.6-2.59l0.4-1.2l-4.04-4.3c0.26-0.44,0.54-0.87,0.83-1.29c0.22-0.28,0.42-0.56,0.64-0.83l5.45,2.37l0.98-0.76
	c0.67-0.52,1.43-0.99,2.21-1.38l1.1-0.56l0.19-5.99c0.84-0.2,1.69-0.35,2.54-0.44l2.19,5.59l1.23,0.15
	c0.86,0.12,1.71,0.29,2.52,0.56l1.18,0.39l4.37-4.1c0.38,0.24,0.76,0.49,1.13,0.75c0.34,0.24,0.66,0.49,0.98,0.75l-2.39,5.46
	l0.78,0.99c0.53,0.67,1,1.41,1.38,2.18l0.56,1.11l5.9,0.19c0.2,0.85,0.35,1.71,0.44,2.58l-5.44,2.12l-0.14,1.26
	c-0.1,0.89-0.28,1.74-0.56,2.6l-0.39,1.18L91.31,85.02z M50.7,55.52l7.02,3.03l1-1.13c0.8-0.89,1.55-1.85,2.26-2.82
	c0.68-0.97,1.28-1.94,1.84-2.91l0.77-1.35l-5.23-5.51l0.05-0.15l7.61-0.92l0.3-1.48c0.45-2.16,0.68-4.34,0.68-6.52
	c0-0.18-0.01-0.33-0.01-0.47L67,33.74l-7.29-2.16c-0.01-0.06-0.02-0.11-0.03-0.15l6.14-4.6l-0.48-1.44
	c-0.74-2.21-1.71-4.35-2.92-6.4l-0.79-1.34l-7.38,1.79c-0.04-0.04-0.07-0.09-0.11-0.14l3.02-7.02l-1.12-1
	c-0.9-0.81-1.85-1.57-2.85-2.28c-0.96-0.66-1.9-1.27-2.91-1.83l-1.35-0.74l-5.48,5.22c-0.06-0.03-0.12-0.05-0.17-0.07l-0.91-7.61
	l-1.48-0.3C38.74,3.22,36.56,3,34.38,3c-0.17,0-0.34,0-0.53,0.01l-1.53,0.03L30.2,10.3c-0.06,0.01-0.12,0.02-0.17,0.03l-4.59-6.15
	l-1.42,0.47c-2.25,0.74-4.39,1.72-6.43,2.94l-1.32,0.79l1.77,7.37c-0.04,0.03-0.08,0.07-0.13,0.1l-7.03-3.03l-1,1.12
	c-0.81,0.91-1.56,1.86-2.26,2.83c-0.67,0.98-1.28,1.94-1.84,2.91l-0.77,1.35l5.24,5.51c-0.02,0.05-0.04,0.1-0.06,0.16l-7.59,0.9
	l-0.31,1.47c-0.48,2.24-0.69,4.5-0.69,6.74c0,0.08,0,0.19,0.01,0.31l0.03,1.52l7.27,2.15c0.01,0.04,0.02,0.1,0.02,0.15l-6.15,4.6
	l0.49,1.44c0.74,2.2,1.71,4.36,2.93,6.41l0.79,1.33l7.38-1.79c0.04,0.04,0.07,0.08,0.1,0.13l-3.02,7.04l1.12,1
	c0.9,0.79,1.86,1.55,2.85,2.26c0.96,0.66,1.93,1.27,2.89,1.81l1.35,0.77l5.49-5.23c0.06,0.02,0.11,0.04,0.17,0.06l0.9,7.61l1.48,0.3
	c2.17,0.46,4.37,0.67,6.56,0.67h0.39l1.59,0.03l2.17-7.34c0.05-0.01,0.1-0.02,0.16-0.03l4.59,6.13l1.43-0.47
	c2.23-0.73,4.38-1.7,6.42-2.92l1.33-0.78l-1.78-7.39C50.61,55.6,50.66,55.56,50.7,55.52z M48.9,51.54c-0.62,0.57-1.26,1.1-1.93,1.6
	l-1.11,0.83l1.69,6.99c-0.93,0.49-1.88,0.92-2.85,1.29l-4.37-5.83L39,56.71c-0.8,0.18-1.6,0.32-2.39,0.39l-1.41,0.13l-2.06,6.96
	c-1.04-0.04-2.08-0.14-3.12-0.3l-0.85-7.23l-1.3-0.4c-0.8-0.24-1.55-0.53-2.31-0.87l-1.28-0.58l-5.22,4.97
	c-0.41-0.26-0.83-0.53-1.22-0.81c-0.45-0.32-0.89-0.66-1.33-1l2.86-6.67l-0.9-0.99c-0.56-0.62-1.09-1.27-1.59-1.94l-0.82-1.12
	l-7,1.69c-0.49-0.93-0.93-1.89-1.31-2.87l5.83-4.36l-0.3-1.32c-0.17-0.78-0.3-1.57-0.38-2.41l-0.13-1.4l-6.95-2.05
	c0.04-1.04,0.14-2.08,0.3-3.11l7.18-0.85l0.42-1.27c0.27-0.81,0.57-1.59,0.9-2.37l0.56-1.27l-4.96-5.22
	c0.26-0.41,0.53-0.83,0.82-1.24c0.32-0.45,0.65-0.88,1-1.31l6.66,2.87l1-0.9c0.64-0.57,1.29-1.11,1.94-1.59l1.12-0.82l-1.68-7.01
	c0.93-0.49,1.88-0.92,2.85-1.3l4.34,5.83l1.32-0.29c0.81-0.18,1.63-0.31,2.45-0.4l1.4-0.14l2.03-6.93c1.04,0.04,2.08,0.14,3.12,0.29
	l0.86,7.21l1.29,0.41c0.79,0.25,1.57,0.54,2.31,0.88l1.29,0.58l5.24-4.98c0.4,0.26,0.82,0.53,1.24,0.82c0.44,0.32,0.88,0.65,1.32,1
	l-2.87,6.68l0.92,1c0.55,0.6,1.08,1.25,1.59,1.94l0.82,1.11l6.99-1.69c0.49,0.93,0.92,1.89,1.3,2.85l-5.82,4.35l0.29,1.32
	c0.18,0.82,0.31,1.63,0.41,2.48l0.16,1.37l6.9,2.04c-0.04,1.04-0.15,2.07-0.31,3.11l-7.23,0.87l-0.4,1.3
	c-0.24,0.77-0.53,1.54-0.86,2.27l-0.6,1.29l4.99,5.25c-0.26,0.42-0.53,0.82-0.81,1.22c-0.33,0.45-0.67,0.89-1.02,1.33l-6.67-2.87
	L48.9,51.54z M34.31,24.33c-6.29,0-11.37,5.09-11.37,11.37c0,6.28,5.09,11.37,11.37,11.37c6.28-0.01,11.36-5.09,11.36-11.37
	C45.67,29.42,40.58,24.33,34.31,24.33z M34.31,42.88c-3.98-0.01-7.18-3.21-7.19-7.18c0.01-3.96,3.21-7.18,7.19-7.18
	c3.96,0.01,7.17,3.22,7.17,7.18C41.48,39.66,38.27,42.88,34.31,42.88z"/>
<path class="st0" d="M92.31,78.79l5.9-2.29l-0.03-1.46c-0.03-2.27-0.42-4.51-1.11-6.64L96.62,67l-6.46-0.2
	c-0.15-0.25-0.31-0.51-0.47-0.76l2.59-5.96l-1.05-1c-0.78-0.74-1.62-1.44-2.53-2.09c-0.93-0.66-1.9-1.26-2.92-1.78l-1.31-0.67
	l-4.8,4.49c-0.28-0.07-0.55-0.13-0.83-0.18l-2.4-6.11L75,52.78c-2.24,0.04-4.46,0.43-6.57,1.13l-1.4,0.46l-0.21,6.53
	c-0.25,0.15-0.5,0.31-0.74,0.47l-5.94-2.59l-1,1.03c-0.74,0.76-1.38,1.56-1.99,2.37c-0.73,1.04-1.35,2.07-1.88,3.13l-0.65,1.3
	l4.39,4.68c-0.08,0.31-0.15,0.63-0.22,0.94l-5.91,2.31l0.03,1.47c0.05,2.27,0.46,4.5,1.2,6.64l0.47,1.37l6.23,0.21
	c0.18,0.3,0.36,0.59,0.56,0.88l-2.5,5.7l1.08,1.01c0.73,0.69,1.54,1.37,2.41,2c1,0.71,2.04,1.35,3.14,1.89l1.3,0.63l4.47-4.2
	c0.34,0.09,0.69,0.17,1.04,0.23l2.24,5.72L76,98.05c2.28-0.05,4.52-0.45,6.67-1.16l1.39-0.46l0.21-6.16
	c0.3-0.18,0.59-0.36,0.88-0.56l5.69,2.48l1.01-1.05c0.74-0.79,1.45-1.64,2.1-2.54c0.68-0.95,1.29-1.95,1.79-2.94l0.67-1.31
	l-4.3-4.59C92.19,79.43,92.25,79.11,92.31,78.79z M91.31,85.02c-0.24,0.39-0.49,0.76-0.75,1.13c-0.25,0.35-0.51,0.68-0.78,1.01
	l-5.22-2.27l-0.99,0.79c-0.72,0.57-1.49,1.07-2.27,1.44l-1.13,0.55l-0.19,5.65c-0.87,0.22-1.74,0.37-2.62,0.47l-2.06-5.24
	l-1.25-0.14c-0.9-0.1-1.8-0.3-2.66-0.6l-1.2-0.41l-4.11,3.87c-0.43-0.26-0.87-0.55-1.29-0.85c-0.3-0.21-0.6-0.44-0.88-0.67
	l2.27-5.19l-0.77-0.98c-0.57-0.73-1.05-1.51-1.46-2.33l-0.56-1.11l-5.73-0.19c-0.22-0.85-0.37-1.71-0.47-2.58l5.4-2.11l0.15-1.24
	c0.11-0.88,0.3-1.73,0.6-2.59l0.4-1.2l-4.04-4.3c0.26-0.44,0.54-0.87,0.83-1.29c0.22-0.28,0.42-0.56,0.64-0.83l5.45,2.37l0.98-0.76
	c0.67-0.52,1.43-0.99,2.21-1.38l1.1-0.56l0.19-5.99c0.84-0.2,1.69-0.35,2.54-0.44l2.19,5.59l1.23,0.15
	c0.86,0.12,1.71,0.29,2.52,0.56l1.18,0.39l4.37-4.1c0.38,0.24,0.76,0.49,1.13,0.75c0.34,0.24,0.66,0.49,0.98,0.75l-2.39,5.46
	l0.78,0.99c0.53,0.67,1,1.41,1.38,2.18l0.56,1.11l5.9,0.19c0.2,0.85,0.35,1.71,0.44,2.58l-5.44,2.12l-0.14,1.26
	c-0.1,0.89-0.28,1.74-0.56,2.6l-0.39,1.18L91.31,85.02z M50.7,55.52l7.02,3.03l1-1.13c0.8-0.89,1.55-1.85,2.26-2.82
	c0.68-0.97,1.28-1.94,1.84-2.91l0.77-1.35l-5.23-5.51l0.05-0.15l7.61-0.92l0.3-1.48c0.45-2.16,0.68-4.34,0.68-6.52
	c0-0.18-0.01-0.33-0.01-0.47L67,33.74l-7.29-2.16c-0.01-0.06-0.02-0.11-0.03-0.15l6.14-4.6l-0.48-1.44
	c-0.74-2.21-1.71-4.35-2.92-6.4l-0.79-1.34l-7.38,1.79c-0.04-0.04-0.07-0.09-0.11-0.14l3.02-7.02l-1.12-1
	c-0.9-0.81-1.85-1.57-2.85-2.28c-0.96-0.66-1.9-1.27-2.91-1.83l-1.35-0.74l-5.48,5.22c-0.06-0.03-0.12-0.05-0.17-0.07l-0.91-7.61
	l-1.48-0.3C38.74,3.22,36.56,3,34.38,3c-0.17,0-0.34,0-0.53,0.01l-1.53,0.03L30.2,10.3c-0.06,0.01-0.12,0.02-0.17,0.03l-4.59-6.15
	l-1.42,0.47c-2.25,0.74-4.39,1.72-6.43,2.94l-1.32,0.79l1.77,7.37c-0.04,0.03-0.08,0.07-0.13,0.1l-7.03-3.03l-1,1.12
	c-0.81,0.91-1.56,1.86-2.26,2.83c-0.67,0.98-1.28,1.94-1.84,2.91l-0.77,1.35l5.24,5.51c-0.02,0.05-0.04,0.1-0.06,0.16l-7.59,0.9
	l-0.31,1.47c-0.48,2.24-0.69,4.5-0.69,6.74c0,0.08,0,0.19,0.01,0.31l0.03,1.52l7.27,2.15c0.01,0.04,0.02,0.1,0.02,0.15l-6.15,4.6
	l0.49,1.44c0.74,2.2,1.71,4.36,2.93,6.41l0.79,1.33l7.38-1.79c0.04,0.04,0.07,0.08,0.1,0.13l-3.02,7.04l1.12,1
	c0.9,0.79,1.86,1.55,2.85,2.26c0.96,0.66,1.93,1.27,2.89,1.81l1.35,0.77l5.49-5.23c0.06,0.02,0.11,0.04,0.17,0.06l0.9,7.61l1.48,0.3
	c2.17,0.46,4.37,0.67,6.56,0.67h0.39l1.59,0.03l2.17-7.34c0.05-0.01,0.1-0.02,0.16-0.03l4.59,6.13l1.43-0.47
	c2.23-0.73,4.38-1.7,6.42-2.92l1.33-0.78l-1.78-7.39C50.61,55.6,50.66,55.56,50.7,55.52z M48.9,51.54c-0.62,0.57-1.26,1.1-1.93,1.6
	l-1.11,0.83l1.69,6.99c-0.93,0.49-1.88,0.92-2.85,1.29l-4.37-5.83L39,56.71c-0.8,0.18-1.6,0.32-2.39,0.39l-1.41,0.13l-2.06,6.96
	c-1.04-0.04-2.08-0.14-3.12-0.3l-0.85-7.23l-1.3-0.4c-0.8-0.24-1.55-0.53-2.31-0.87l-1.28-0.58l-5.22,4.97
	c-0.41-0.26-0.83-0.53-1.22-0.81c-0.45-0.32-0.89-0.66-1.33-1l2.86-6.67l-0.9-0.99c-0.56-0.62-1.09-1.27-1.59-1.94l-0.82-1.12
	l-7,1.69c-0.49-0.93-0.93-1.89-1.31-2.87l5.83-4.36l-0.3-1.32c-0.17-0.78-0.3-1.57-0.38-2.41l-0.13-1.4l-6.95-2.05
	c0.04-1.04,0.14-2.08,0.3-3.11l7.18-0.85l0.42-1.27c0.27-0.81,0.57-1.59,0.9-2.37l0.56-1.27l-4.96-5.22
	c0.26-0.41,0.53-0.83,0.82-1.24c0.32-0.45,0.65-0.88,1-1.31l6.66,2.87l1-0.9c0.64-0.57,1.29-1.11,1.94-1.59l1.12-0.82l-1.68-7.01
	c0.93-0.49,1.88-0.92,2.85-1.3l4.34,5.83l1.32-0.29c0.81-0.18,1.63-0.31,2.45-0.4l1.4-0.14l2.03-6.93c1.04,0.04,2.08,0.14,3.12,0.29
	l0.86,7.21l1.29,0.41c0.79,0.25,1.57,0.54,2.31,0.88l1.29,0.58l5.24-4.98c0.4,0.26,0.82,0.53,1.24,0.82c0.44,0.32,0.88,0.65,1.32,1
	l-2.87,6.68l0.92,1c0.55,0.6,1.08,1.25,1.59,1.94l0.82,1.11l6.99-1.69c0.49,0.93,0.92,1.89,1.3,2.85l-5.82,4.35l0.29,1.32
	c0.18,0.82,0.31,1.63,0.41,2.48l0.16,1.37l6.9,2.04c-0.04,1.04-0.15,2.07-0.31,3.11l-7.23,0.87l-0.4,1.3
	c-0.24,0.77-0.53,1.54-0.86,2.27l-0.6,1.29l4.99,5.25c-0.26,0.42-0.53,0.82-0.81,1.22c-0.33,0.45-0.67,0.89-1.02,1.33l-6.67-2.87
	L48.9,51.54z M34.31,24.33c-6.29,0-11.37,5.09-11.37,11.37c0,6.28,5.09,11.37,11.37,11.37c6.28-0.01,11.36-5.09,11.36-11.37
	C45.67,29.42,40.58,24.33,34.31,24.33z M34.31,42.88c-3.98-0.01-7.18-3.21-7.19-7.18c0.01-3.96,3.21-7.18,7.19-7.18
	c3.96,0.01,7.17,3.22,7.17,7.18C41.48,39.66,38.27,42.88,34.31,42.88z"/>
<g>
</g>
<g>
</g>
<g>
</g>
<g>
</g>
<g>
</g>
<g>
</g>
<g>
</g>
<g>
</g>
<g>
</g>
<g>
</g>
<g>
</g>
<g>
</g>
<g>
</g>
<g>
</g>
<g>
</g>
</svg>
