<svg id="Layer_1" data-name="Layer 1" xmlns="http://www.w3.org/2000/svg" xmlns:xlink="http://www.w3.org/1999/xlink" viewBox="0 0 2318.11 728.44"><defs><style>.cls-1{fill:none;}.cls-2{clip-path:url(#clip-path);}.cls-3{fill:#002d44;}.cls-10,.cls-100,.cls-101,.cls-102,.cls-103,.cls-104,.cls-105,.cls-106,.cls-107,.cls-108,.cls-109,.cls-11,.cls-110,.cls-111,.cls-112,.cls-113,.cls-114,.cls-115,.cls-116,.cls-117,.cls-118,.cls-119,.cls-12,.cls-120,.cls-121,.cls-122,.cls-123,.cls-124,.cls-125,.cls-13,.cls-14,.cls-15,.cls-16,.cls-17,.cls-18,.cls-19,.cls-20,.cls-21,.cls-22,.cls-23,.cls-24,.cls-25,.cls-26,.cls-27,.cls-28,.cls-29,.cls-3,.cls-30,.cls-31,.cls-32,.cls-33,.cls-34,.cls-35,.cls-36,.cls-37,.cls-38,.cls-39,.cls-4,.cls-40,.cls-41,.cls-42,.cls-43,.cls-44,.cls-45,.cls-46,.cls-47,.cls-48,.cls-49,.cls-5,.cls-50,.cls-51,.cls-52,.cls-53,.cls-54,.cls-55,.cls-56,.cls-57,.cls-58,.cls-59,.cls-6,.cls-60,.cls-61,.cls-62,.cls-63,.cls-64,.cls-65,.cls-66,.cls-67,.cls-68,.cls-69,.cls-7,.cls-70,.cls-71,.cls-72,.cls-73,.cls-74,.cls-75,.cls-76,.cls-77,.cls-78,.cls-79,.cls-8,.cls-80,.cls-81,.cls-82,.cls-83,.cls-84,.cls-85,.cls-86,.cls-87,.cls-88,.cls-89,.cls-9,.cls-90,.cls-91,.cls-92,.cls-93,.cls-94,.cls-95,.cls-96,.cls-97,.cls-98,.cls-99{fill-rule:evenodd;}.cls-4{fill:#086e8a;}.cls-5{fill:#086d89;}.cls-6{fill:#086d88;}.cls-7{fill:#086c88;}.cls-8{fill:#086c87;}.cls-9{fill:#086b87;}.cls-10{fill:#086b86;}.cls-11{fill:#086a86;}.cls-12{fill:#076a85;}.cls-13{fill:#076985;}.cls-14{fill:#076984;}.cls-15{fill:#076884;}.cls-16{fill:#076883;}.cls-17{fill:#076783;}.cls-18{fill:#076782;}.cls-19{fill:#076682;}.cls-20{fill:#076681;}.cls-21{fill:#076581;}.cls-22{fill:#076580;}.cls-23{fill:#076480;}.cls-24{fill:#07647f;}.cls-25{fill:#07637f;}.cls-26{fill:#07637e;}.cls-27{fill:#07627d;}.cls-28{fill:#06627d;}.cls-29{fill:#06617d;}.cls-30{fill:#06617c;}.cls-31{fill:#06607b;}.cls-32{fill:#06607a;}.cls-33{fill:#065f7a;}.cls-34{fill:#065e79;}.cls-35{fill:#065e78;}.cls-36{fill:#065d78;}.cls-37{fill:#065d77;}.cls-38{fill:#065c77;}.cls-39{fill:#065c76;}.cls-40{fill:#065b76;}.cls-41{fill:#065b75;}.cls-42{fill:#065a75;}.cls-43{fill:#065a74;}.cls-44{fill:#055a74;}.cls-45{fill:#055974;}.cls-46{fill:#055973;}.cls-47{fill:#055873;}.cls-48{fill:#055872;}.cls-49{fill:#055772;}.cls-50{fill:#055771;}.cls-51{fill:#055671;}.cls-52{fill:#055670;}.cls-53{fill:#05556f;}.cls-54{fill:#05546e;}.cls-55{fill:#05536d;}.cls-56{fill:#05536c;}.cls-57{fill:#05526c;}.cls-58{fill:#04526b;}.cls-59{fill:#04516b;}.cls-60{fill:#04516a;}.cls-61{fill:#04506a;}.cls-62{fill:#045069;}.cls-63{fill:#044f69;}.cls-64{fill:#044f68;}.cls-65{fill:#044e68;}.cls-66{fill:#044e67;}.cls-67{fill:#044d67;}.cls-68{fill:#044d66;}.cls-69{fill:#044c66;}.cls-70{fill:#044c65;}.cls-71{fill:#044b65;}.cls-72{fill:#044b64;}.cls-73{fill:#044a64;}.cls-74{fill:#044a63;}.cls-75{fill:#034963;}.cls-76{fill:#034962;}.cls-77{fill:#034862;}.cls-78{fill:#034861;}.cls-79{fill:#034760;}.cls-80{fill:#03465f;}.cls-81{fill:#03465e;}.cls-82{fill:#03455e;}.cls-83{fill:#03455d;}.cls-84{fill:#03445d;}.cls-85{fill:#03445c;}.cls-86{fill:#03435c;}.cls-87{fill:#03435b;}.cls-88{fill:#03425b;}.cls-89{fill:#03425a;}.cls-90{fill:#03415a;}.cls-91{fill:#02415a;}.cls-92{fill:#024159;}.cls-93{fill:#024059;}.cls-94{fill:#024058;}.cls-95{fill:#023f58;}.cls-96{fill:#023f57;}.cls-97{fill:#023e57;}.cls-98{fill:#023e56;}.cls-99{fill:#023d56;}.cls-100{fill:#023d55;}.cls-101{fill:#023c54;}.cls-102{fill:#023b53;}.cls-103{fill:#023a52;}.cls-104{fill:#023951;}.cls-105{fill:#013951;}.cls-106{fill:#013850;}.cls-107{fill:#01384f;}.cls-108{fill:#01374f;}.cls-109{fill:#01374e;}.cls-110{fill:#01364e;}.cls-111{fill:#01364d;}.cls-112{fill:#01354d;}.cls-113{fill:#01354c;}.cls-114{fill:#01344c;}.cls-115{fill:#01344b;}.cls-116{fill:#01334b;}.cls-117{fill:#01334a;}.cls-118{fill:#01324a;}.cls-119{fill:#013249;}.cls-120{fill:#013149;}.cls-121{fill:#013148;}.cls-122{fill:#003148;}.cls-123{fill:#003047;}.cls-124{fill:#002f46;}.cls-125{fill:#002e45;}.cls-126{isolation:isolate;font-size:405.12px;fill:#fff;font-family:Play-Regular, Play;}</style><clipPath id="clip-path"><path class="cls-1" d="M421.79,118.78c4.44-1.47,8.08,1.16,8.08,5.84V606.15c0,4.68-3.63,7.3-8.07,5.81l-322-108.07c-4.44-1.49-4.53-1.25-.2.53L422,637a24.05,24.05,0,0,0,15.76,0l322.4-131A13.7,13.7,0,0,0,768,494.35V238.1a13.77,13.77,0,0,0-7.87-11.75L437.72,93.67a24,24,0,0,0-15.75,0L99.56,224.7c-4.33,1.76-4.24,2,.2.54ZM379.53,557c0,4.69-3.54,7.07-7.88,5.31l-221.73-90.1A13.69,13.69,0,0,1,142,460.48V270.29a13.72,13.72,0,0,1,7.88-11.72l42.43-17.22V435.11l43.25,17.56V223.74l50.33-20.49V473.16l35.36,14.36c4.34,1.76,7.89-.63,7.89-5.31v-288a13.72,13.72,0,0,1,7.88-11.72l34.57-14.07c4.34-1.76,7.88.62,7.88,5.31ZM709.18,340.22a8.55,8.55,0,0,1,8.51,8.51V460.48a13.68,13.68,0,0,1-7.9,11.71l-221.72,90.1c-4.34,1.76-7.89-.62-7.89-5.31V449.55a8.55,8.55,0,0,1,8.51-8.51H522a8.55,8.55,0,0,1,8.51,8.51v32.66c0,4.68,3.55,7.07,7.88,5.3l121-49.19a13.69,13.69,0,0,0,7.89-11.72V399.07a8.55,8.55,0,0,0-8.51-8.51H488.7a8.54,8.54,0,0,1-8.51-8.52V173.72c0-4.69,3.55-7.07,7.88-5.31l221.72,90.17a13.69,13.69,0,0,1,7.89,11.71v11.3a8.55,8.55,0,0,1-8.51,8.51H662.25a52.26,52.26,0,0,1-16.4-3.2L538.41,243.26c-4.33-1.77-7.88.62-7.88,5.3v83.15a8.55,8.55,0,0,0,8.51,8.51Z"/></clipPath></defs><title>WS-logo-blue-edit</title><g class="cls-2"><path class="cls-3" d="M171.5,0,851.67,238.12A8.53,8.53,0,0,1,856.89,249L691,722.74A8.53,8.53,0,0,1,680.17,728L0,489.77"/><path class="cls-4" d="M432.85,365.24a1.77,1.77,0,0,0-1.07-2.26h0a1.75,1.75,0,0,0-2.24,1,.19.19,0,0,1,0,.07,1.71,1.71,0,0,0,1,2.17l.06,0a1.75,1.75,0,0,0,2.26-1Z"/><path class="cls-4" d="M432.27,365a1.17,1.17,0,1,1-.74-1.54,1.18,1.18,0,0,1,.76,1.49S432.28,365,432.27,365Zm1.68.59a3,3,0,0,0-1.83-3.74,2.84,2.84,0,0,0-3.68,1.63,1.12,1.12,0,0,0-.05.13,3,3,0,0,0,1.83,3.8A2.94,2.94,0,0,0,434,365.61Z"/><path class="cls-4" d="M433.36,365.35a2.31,2.31,0,0,1-2.91,1.49l-.09,0a2.36,2.36,0,0,1-1.39-3,2.33,2.33,0,0,1,2.93-1.49l.07,0A2.36,2.36,0,0,1,433.36,365.35Zm1.69.58a3.47,3.47,0,1,0,0,.08v-.08Z"/><path class="cls-5" d="M434.53,365.75a3.53,3.53,0,0,1-4.47,2.22l-.06,0a3.59,3.59,0,0,1-2.2-4.47,3.55,3.55,0,1,1,6.73,2.27Zm1.61.59a5.2,5.2,0,0,0-3.07-6.68l-.14-.05a5.27,5.27,0,0,0-6.72,3.25l0,0a5.22,5.22,0,0,0,3.11,6.69l.11,0a5.28,5.28,0,0,0,6.72-3.25v0Z"/><path class="cls-5" d="M435.63,366.19a4.74,4.74,0,0,1-6,2.86,4.67,4.67,0,0,1-3-5.89s0-.07,0-.11a4.73,4.73,0,0,1,8.92,3.15Zm1.68.59a6.51,6.51,0,1,0-8.33,3.93l.07,0A6.53,6.53,0,0,0,437.31,366.78Z"/><path class="cls-5" d="M436.73,366.56a5.9,5.9,0,0,1-7.54,3.58h0a5.79,5.79,0,0,1-3.63-7.33s0-.09.05-.13a5.9,5.9,0,0,1,7.53-3.59,5.8,5.8,0,0,1,3.64,7.34S436.75,366.52,436.73,366.56Zm1.68.58a7.67,7.67,0,1,0-9.8,4.69,7.68,7.68,0,0,0,9.8-4.69v0Z"/><path class="cls-5" d="M437.79,366.92a7,7,0,1,1-4.32-9A7.08,7.08,0,0,1,437.79,366.92Zm1.68.59a7.49,7.49,0,1,0,0,.2c0-.07.05-.13.07-.2Z"/><path class="cls-6" d="M438.93,367.35a8.23,8.23,0,1,1-5.05-10.53A8.23,8.23,0,0,1,438.93,367.35Zm1.68.59a10,10,0,1,0-12.74,6.14h0A10,10,0,0,0,440.61,368Z"/><path class="cls-7" d="M440.09,367.73a9.45,9.45,0,1,1-5.84-12l.06,0A9.47,9.47,0,0,1,440.09,367.73Zm1.62.58a11.17,11.17,0,1,0-14.27,6.88,11.17,11.17,0,0,0,14.27-6.88Z"/><path class="cls-7" d="M441.19,368.09a10.61,10.61,0,1,1-6.58-13.48l.07,0A10.59,10.59,0,0,1,441.19,368.09Zm1.68.59a12.39,12.39,0,1,0-15.8,7.61,12.39,12.39,0,0,0,15.8-7.61Z"/><path class="cls-7" d="M442.29,368.53a11.79,11.79,0,1,1-7.26-15h0a11.67,11.67,0,0,1,7.3,14.82Zm1.68.59a13.57,13.57,0,1,0-17.35,8.2l.09,0A13.57,13.57,0,0,0,444,369.12Z"/><path class="cls-8" d="M443.39,368.9a13,13,0,1,1-7.9-16.55A13,13,0,0,1,443.39,368.9Zm1.68.58a14.73,14.73,0,1,0-18.8,9l.07,0a14.66,14.66,0,0,0,18.71-9l0,0Z"/><path class="cls-9" d="M444.49,369.26a14.11,14.11,0,1,1-8.64-18A14.1,14.1,0,0,1,444.49,369.26Zm1.68.59a15.89,15.89,0,1,0-20.27,9.8,15.89,15.89,0,0,0,20.27-9.8Z"/><path class="cls-9" d="M445.58,369.7a15.32,15.32,0,1,1-9.37-19.53h0a15.24,15.24,0,0,1,9.4,19.41S445.59,369.66,445.58,369.7Zm1.69.59a17.07,17.07,0,1,0-21.76,10.45h0A17.07,17.07,0,0,0,447.27,370.29Z"/><path class="cls-9" d="M446.79,370.07a16.51,16.51,0,1,1-10.19-21h0A16.52,16.52,0,0,1,446.79,370.07Zm1.61.58a18.22,18.22,0,1,0-23.21,11.19h0a18.24,18.24,0,0,0,23.15-11.2Z"/><path class="cls-9" d="M447.85,370.43A17.66,17.66,0,1,1,437,348l0,0A17.68,17.68,0,0,1,447.85,370.43Zm1.68.59A19.45,19.45,0,1,0,424.73,383,19.45,19.45,0,0,0,449.53,371v0Z"/><path class="cls-10" d="M449,370.88a20.08,20.08,0,1,1,0-.07Zm1.68.58A20.63,20.63,0,1,0,424.3,384l.06,0A20.61,20.61,0,0,0,450.63,371.46Z"/><path class="cls-11" d="M450.05,371.24a19.2,19.2,0,1,1,0-.05Zm1.68.59A21.79,21.79,0,1,0,424,385.21h0A21.86,21.86,0,0,0,451.73,371.83Z"/><path class="cls-11" d="M451.14,371.61a21.48,21.48,0,1,1,0-.06Zm1.69.58a22.94,22.94,0,1,0-29.27,14.16,22.93,22.93,0,0,0,29.27-14.16Z"/><path class="cls-11" d="M452.31,372a22.41,22.41,0,1,1-13.78-28.54h0A22.4,22.4,0,0,1,452.31,372Zm1.61.59a24.12,24.12,0,1,0-30.75,14.77h0a24.11,24.11,0,0,0,30.73-14.78Z"/><path class="cls-12" d="M453.41,372.41a23.56,23.56,0,1,1-14.49-30h0a23.52,23.52,0,0,1,14.5,29.93Zm1.69.59a25.35,25.35,0,1,0-32.32,15.51h0a25.32,25.32,0,0,0,32.29-15.45Z"/><path class="cls-12" d="M454.51,372.78a24.73,24.73,0,1,1-15.15-31.54A24.73,24.73,0,0,1,454.51,372.78Zm1.68.58a26.5,26.5,0,1,0-33.8,16.24,26.5,26.5,0,0,0,33.8-16.24v0Z"/><path class="cls-13" d="M455.61,373.21a25.91,25.91,0,1,1-15.88-33.07,25.9,25.9,0,0,1,15.88,33.07Zm1.68.59a26.18,26.18,0,1,0,0,.07l0-.07Z"/><path class="cls-13" d="M456.7,373.58a27.42,27.42,0,1,1,.06-.18Zm1.69.59a28.85,28.85,0,1,0-36.77,17.69h0A28.86,28.86,0,0,0,458.39,374.17Z"/><path class="cls-13" d="M457.87,374a28.29,28.29,0,1,1-17.41-36l.07,0a28.24,28.24,0,0,1,17.34,36Zm1.61.58a29.57,29.57,0,1,0,0,.06l0-.06Z"/><path class="cls-14" d="M459,374.35a29.46,29.46,0,1,1-18.07-37.54h0A29.43,29.43,0,0,1,459,374.31Zm1.69.51A31.23,31.23,0,1,0,420.85,394a31.23,31.23,0,0,0,39.81-19.17Z"/><path class="cls-15" d="M460.07,374.75a30.63,30.63,0,1,1-18.83-39h0A30.64,30.64,0,0,1,460.07,374.75Zm1.72.6a32.4,32.4,0,1,0-41.32,19.8l.06,0A32.38,32.38,0,0,0,461.79,375.35Z"/><path class="cls-15" d="M461.17,375.12a31.78,31.78,0,1,1-19.46-40.54A31.79,31.79,0,0,1,461.17,375.12Zm1.68.58a33.44,33.44,0,1,0-.08.23l.08-.23Z"/><path class="cls-15" d="M462.26,375.48a32.94,32.94,0,1,1-20.19-42A32.94,32.94,0,0,1,462.26,375.48Zm1.69.59a34.72,34.72,0,1,0-44.27,21.36A34.72,34.72,0,0,0,464,376.07Z"/><path class="cls-16" d="M463.44,375.92a34.19,34.19,0,1,1-21-43.54h0A34.23,34.23,0,0,1,463.44,375.92Zm1.6.59a35.9,35.9,0,1,0-45.76,22l0,0A35.93,35.93,0,0,0,465,376.51Z"/><path class="cls-16" d="M464.53,376.29a35.34,35.34,0,1,1-21.71-45l.05,0A35.35,35.35,0,0,1,464.53,376.29Zm1.69.58a37.13,37.13,0,1,0-47.34,22.76A37.13,37.13,0,0,0,466.22,376.87Z"/><path class="cls-17" d="M465.63,376.65a36.5,36.5,0,1,1-22.45-46.48l.06,0a36.42,36.42,0,0,1,22.43,46.35Zm1.68.59a39.11,39.11,0,1,0,0,.08l0-.08Z"/><path class="cls-17" d="M466.73,377.09A37.68,37.68,0,1,1,443.61,329a37.69,37.69,0,0,1,23.12,48.07Zm1.68.59a39.46,39.46,0,1,0-50.32,24.12l.05,0A39.48,39.48,0,0,0,468.41,377.68Z"/><path class="cls-18" d="M467.79,377.46A38.84,38.84,0,1,1,444,327.93,38.85,38.85,0,0,1,467.79,377.46Zm1.69.58A40.62,40.62,0,1,0,417.68,403,40.62,40.62,0,0,0,469.48,378Z"/><path class="cls-18" d="M469,377.82a40.07,40.07,0,1,1-24.66-51l.07,0A40.06,40.06,0,0,1,469,377.82Zm1.6.59a41.11,41.11,0,1,0-.07.21Z"/><path class="cls-18" d="M470.09,378.26a41.24,41.24,0,1,1-25.32-52.54h0A41.26,41.26,0,0,1,470.09,378.26Zm1.69.59A43,43,0,1,0,417,405.19h0a43,43,0,0,0,54.81-26.34Z"/><path class="cls-19" d="M471.19,378.63a42.4,42.4,0,1,1-26-54h0A42.39,42.39,0,0,1,471.19,378.63Zm1.68.59a44.18,44.18,0,1,0-56.33,27l.07,0A44.15,44.15,0,0,0,472.87,379.22Z"/><path class="cls-19" d="M472.29,379a43.56,43.56,0,1,1-26.71-55.54A43.57,43.57,0,0,1,472.29,379Zm1.68.58a44.61,44.61,0,1,0,0,.12l0-.12Z"/><path class="cls-20" d="M473.39,379.44a44.23,44.23,0,1,1,0-.11Zm1.68.58a46.52,46.52,0,1,0-59.28,28.53h0A46.54,46.54,0,0,0,475.07,380Z"/><path class="cls-20" d="M474.56,379.8a46,46,0,1,1-28.33-58.56l.09,0A46,46,0,0,1,474.56,379.8Zm1.6.59a47.68,47.68,0,1,0-60.76,29.25h0a47.69,47.69,0,0,0,60.72-29.3Z"/><path class="cls-20" d="M475.65,380.17a47.12,47.12,0,1,1-28.95-60l.05,0A47.11,47.11,0,0,1,475.65,380.17Zm1.61.58a52.55,52.55,0,1,0,0,.07l0-.07Z"/><path class="cls-21" d="M476.79,380.6a48.3,48.3,0,1,1-29.65-61.54h0a48.23,48.23,0,0,1,29.67,61.42Zm1.68.59a50.09,50.09,0,1,0-63.87,30.64l.07,0a50,50,0,0,0,63.74-30.61l0-.05Z"/><path class="cls-22" d="M477.85,381a49.46,49.46,0,1,1-30.37-63.07A49.46,49.46,0,0,1,477.85,381Zm1.68.59a51.24,51.24,0,1,0-65.33,31.36l.07,0a51.19,51.19,0,0,0,65.25-31.35Z"/><path class="cls-22" d="M479,381.35a50.62,50.62,0,1,1-31-64.54A50.61,50.61,0,0,1,479,381.35Zm1.68.58a52.4,52.4,0,1,0-66.84,32.18,52.41,52.41,0,0,0,66.84-32.18v0Z"/><path class="cls-22" d="M480,381.77a52.61,52.61,0,1,1,0-.09Zm1.69.59a53.58,53.58,0,1,0-68.29,32.84h0a53.61,53.61,0,0,0,68.27-32.86Z"/><path class="cls-23" d="M481.21,382.14a53,53,0,1,1-32.56-67.53A53,53,0,0,1,481.21,382.14Zm1.61.59a54.74,54.74,0,1,0-69.74,33.61h0a54.71,54.71,0,0,0,69.69-33.61h0Z"/><path class="cls-24" d="M482.31,382.51a54.18,54.18,0,1,1-33.28-69l.06,0a54.15,54.15,0,0,1,33.23,69Zm1.68.58a56,56,0,1,0-71.38,34.3l.05,0A56,56,0,0,0,484,383.09Z"/><path class="cls-24" d="M483.41,383a55.35,55.35,0,1,1-34-70.6,55.36,55.36,0,0,1,34,70.6Zm1.68.58a57.13,57.13,0,1,0-72.82,35h0A57.14,57.14,0,0,0,485.09,383.53Z"/><path class="cls-24" d="M484.51,383.35a56.35,56.35,0,1,1,.06-.17Zm1.68.59A58.3,58.3,0,1,0,411.9,419.7h0a58.37,58.37,0,0,0,74.26-35.81Z"/><path class="cls-24" d="M485.6,383.68a57.68,57.68,0,1,1-35.33-73.53A57.68,57.68,0,0,1,485.6,383.68Zm1.69.58a59.46,59.46,0,1,0-75.8,36.51,59.46,59.46,0,0,0,75.8-36.51v0Z"/><path class="cls-25" d="M486.79,384a58.9,58.9,0,1,1-36.2-75l.06,0A58.88,58.88,0,0,1,486.79,384Zm1.62.59a72.92,72.92,0,1,0-.07.13l.05-.13Z"/><path class="cls-26" d="M487.87,384.48A60.08,60.08,0,1,1,451,307.94h0a60,60,0,0,1,36.91,76.4Zm1.68.59a61.86,61.86,0,1,0-78.87,37.86l.11,0a61.82,61.82,0,0,0,78.76-37.9Z"/><path class="cls-26" d="M489,384.85a61.24,61.24,0,1,1-37.6-78l.06,0A61.35,61.35,0,0,1,489,384.85Zm1.68.58a62.06,62.06,0,1,0,0,.06Z"/><path class="cls-26" d="M490.07,385.22a62.4,62.4,0,1,1-38.28-79.54A62.41,62.41,0,0,1,490.07,385.22Zm1.68.58a54,54,0,1,0,0,.16l.06-.16Z"/><path class="cls-26" d="M491.17,385.65a63.53,63.53,0,1,1,.07-.2C491.22,385.52,491.19,385.58,491.17,385.65Zm1.68.59a65.36,65.36,0,1,0-83.28,40.11h0a65.38,65.38,0,0,0,83.27-40.11Z"/><path class="cls-27" d="M492.33,386a64.8,64.8,0,1,1-39.79-82.55l.07,0A64.78,64.78,0,0,1,492.33,386Zm1.62.58a66.52,66.52,0,1,0-84.8,40.83A66.52,66.52,0,0,0,494,386.6Z"/><path class="cls-27" d="M493.43,386.35a66,66,0,1,1-40.6-84.05l.14.05A66,66,0,0,1,493.43,386.35Zm1.69.59a67.74,67.74,0,1,0-86.33,41.59,67.73,67.73,0,0,0,86.33-41.59Z"/><path class="cls-27" d="M494.53,386.82a67.14,67.14,0,1,1-41.22-85.54h0a67.05,67.05,0,0,1,41.24,85.39Zm1.68.59a68.92,68.92,0,1,0-87.86,42.2l.06,0a68.89,68.89,0,0,0,87.8-42.22Z"/><path class="cls-28" d="M495.63,387.19a68.3,68.3,0,1,1-41.84-87.07A68.31,68.31,0,0,1,495.63,387.19Zm1.68.59a71.55,71.55,0,1,0-.06.16Z"/><path class="cls-29" d="M496.73,387.56A69.46,69.46,0,1,1,454.14,299,69.45,69.45,0,0,1,496.73,387.56Zm1.68.58a71.24,71.24,0,1,0-90.8,43.75,71.23,71.23,0,0,0,90.8-43.75Z"/><path class="cls-30" d="M497.9,388a70.71,70.71,0,1,1-43.42-90.08h0A70.75,70.75,0,0,1,497.9,388Zm1.61.58A72.42,72.42,0,1,0,407.22,433h0a72.47,72.47,0,0,0,92.27-44.41Z"/><path class="cls-30" d="M499,388.35a71.86,71.86,0,1,1-44.14-91.54h0A71.84,71.84,0,0,1,499,388.34Zm1.69.59a73.65,73.65,0,1,0-93.88,45.11l.08,0A73.67,73.67,0,0,0,500.68,389Z"/><path class="cls-30" d="M500.09,388.73a73,73,0,1,1-44.8-93h0a72.94,72.94,0,0,1,44.81,92.91Zm1.7.62a80.42,80.42,0,1,0,0,.07Z"/><path class="cls-30" d="M501.19,389.16a74.2,74.2,0,1,1-45.51-94.6,74.2,74.2,0,0,1,45.51,94.6Zm1.68.59A76,76,0,1,0,406,436.24l.1,0A76,76,0,0,0,502.87,389.75Z"/><path class="cls-31" d="M502.29,389.53a73.14,73.14,0,1,1,0-.13Zm1.68.59a77.14,77.14,0,1,0-98.29,47.33h0A77.14,77.14,0,0,0,504,390.12Z"/><path class="cls-31" d="M503.46,389.9a76.58,76.58,0,1,1-47-97.55l0,0A76.58,76.58,0,0,1,503.46,389.9Zm1.61.58a77.15,77.15,0,1,0,0,.09l0-.09Z"/><path class="cls-31" d="M504.55,390.35a77.76,77.76,0,1,1-47.72-99.08h0A77.76,77.76,0,0,1,504.55,390.35Zm1.62.58a79.48,79.48,0,1,0-101.3,48.71h0a79.47,79.47,0,0,0,101.27-48.73Z"/><path class="cls-31" d="M505.65,390.7A78.91,78.91,0,1,1,457.2,290.17h0a78.87,78.87,0,0,1,48.46,100.46Zm1.68.59a80.7,80.7,0,1,0-102.87,49.43l.08,0a80.69,80.69,0,0,0,102.79-49.46Z"/><path class="cls-32" d="M506.79,391.07A80.07,80.07,0,1,1,457.7,289,80.08,80.08,0,0,1,506.79,391.07Zm1.68.58a175,175,0,1,0-.06.06l0-.06Z"/><path class="cls-33" d="M507.85,391.51a80.25,80.25,0,1,1,.08-.22C507.9,391.36,507.88,391.44,507.85,391.51Zm1.68.58A83,83,0,1,0,403.73,443,83,83,0,0,0,509.53,392.09Z"/><path class="cls-33" d="M508.94,391.87a83.64,83.64,0,1,1,.05-.15Zm1.69.59a84.2,84.2,0,1,0-107.3,51.64h0A84.26,84.26,0,0,0,510.63,392.46Z"/><path class="cls-33" d="M510.12,392.24a83.64,83.64,0,1,1-51.37-106.55l0,0A83.65,83.65,0,0,1,510.12,392.24Zm1.61.58a85.35,85.35,0,1,0-108.8,52.39,85.35,85.35,0,0,0,108.8-52.39v0Z"/><path class="cls-33" d="M511.21,392.68a84.81,84.81,0,1,1-52-108.07h0a84.76,84.76,0,0,1,52,108Zm1.69.51a87.11,87.11,0,1,0,0,.14l0-.14Z"/><path class="cls-34" d="M512.31,393a86,86,0,1,1-52.75-109.6A86,86,0,0,1,512.31,393Zm1.68.59a87.76,87.76,0,1,0-111.87,53.75l.08,0A87.75,87.75,0,0,0,514,393.63Z"/><path class="cls-34" d="M513.41,393.41A87.13,87.13,0,1,1,460,282.35,87.13,87.13,0,0,1,513.41,393.41Zm1.68.58a88.91,88.91,0,1,0-113.3,54.59A88.91,88.91,0,0,0,515.09,394Z"/><path class="cls-34" d="M514.5,393.78a88.29,88.29,0,1,1-54.14-112.53A88.29,88.29,0,0,1,514.5,393.78Zm1.69.58a90.07,90.07,0,1,0-114.8,55.31,90.07,90.07,0,0,0,114.8-55.31v0Z"/><path class="cls-34" d="M515.68,394.21a89.54,89.54,0,1,1-55-114.07h0A89.61,89.61,0,0,1,515.68,394.21Zm1.61.59A91.26,91.26,0,1,0,401,450.8h0a91.26,91.26,0,0,0,116.27-56Z"/><path class="cls-35" d="M516.79,394.58A90.7,90.7,0,1,1,461.11,279l.08,0A90.67,90.67,0,0,1,516.79,394.58Zm1.69.58a92.48,92.48,0,1,0-117.89,56.71,92.47,92.47,0,0,0,117.89-56.71Z"/><path class="cls-36" d="M517.87,394.94a91.85,91.85,0,1,1-56.39-117l0,0A91.86,91.86,0,0,1,517.87,394.94Zm1.68.59a92.22,92.22,0,1,0,0,.09l0-.09Z"/><path class="cls-36" d="M519,395.35a92.44,92.44,0,1,1,0-.14Zm1.68.58A94.81,94.81,0,1,0,399.84,454.1h0A94.77,94.77,0,0,0,520.63,396l0,0Z"/><path class="cls-36" d="M520.06,395.75a94.19,94.19,0,1,1-57.72-120.06A94.2,94.2,0,0,1,520.06,395.75Zm1.73.6a96,96,0,1,0-122.33,58.89,96,96,0,0,0,122.33-58.89Z"/><path class="cls-37" d="M521.24,396.12a95.42,95.42,0,1,1-58.61-121.55l.07,0A95.42,95.42,0,0,1,521.24,396.12Zm1.61.58a95.75,95.75,0,1,0,0,.06l0-.06Z"/><path class="cls-37" d="M522.33,396.56A96.6,96.6,0,1,1,463,273.48h0a96.54,96.54,0,0,1,59.28,123Zm1.69.58a98.38,98.38,0,1,0-125.4,60.27l.06,0A98.37,98.37,0,0,0,524,397.14Z"/><path class="cls-38" d="M523.43,396.92A97.75,97.75,0,1,1,463.5,272.35h0A97.76,97.76,0,0,1,523.43,396.92Zm1.68.59a99.54,99.54,0,1,0-126.88,61l.09,0A99.53,99.53,0,0,0,525.11,397.51Z"/><path class="cls-38" d="M524.53,397.29a98.91,98.91,0,1,1-60.66-126.07A98.91,98.91,0,0,1,524.53,397.29Zm1.68.58a100.69,100.69,0,1,0-128.33,61.75,100.69,100.69,0,0,0,128.33-61.75v0Z"/><path class="cls-38" d="M525.63,397.73a99.16,99.16,0,1,1,.09-.25Zm1.68.58A101.87,101.87,0,1,0,397.5,460.78h0a101.92,101.92,0,0,0,129.8-62.44Z"/><path class="cls-39" d="M526.79,398.09A101.32,101.32,0,1,1,464.57,269h0a101.27,101.27,0,0,1,62.21,129Zm1.61.59a103,103,0,1,0-131.26,63.21A103,103,0,0,0,528.4,398.68v0Z"/><path class="cls-39" d="M527.89,398.46A102.47,102.47,0,1,1,465,267.91l.06,0A102.48,102.48,0,0,1,527.89,398.46Zm1.69.58A104.26,104.26,0,1,0,396.71,463,104.25,104.25,0,0,0,529.58,399v0Z"/><path class="cls-40" d="M529,398.9A103.65,103.65,0,1,1,465.4,266.83h0a103.62,103.62,0,0,1,63.6,132Zm1.68.58a105.44,105.44,0,1,0-134.4,64.58l.07,0a105.42,105.42,0,0,0,134.33-64.61Z"/><path class="cls-40" d="M530.09,399.26a102.57,102.57,0,1,1,0-.08Zm1.68.59a106.59,106.59,0,1,0-135.86,65.31l.07,0a106.52,106.52,0,0,0,135.78-65.24l0-.09Z"/><path class="cls-41" d="M531.19,399.63a106,106,0,1,1-65-135.07h0A106,106,0,0,1,531.19,399.63Zm1.68.58a107.75,107.75,0,1,0-137.33,66.14A107.75,107.75,0,0,0,532.87,400.21Z"/><path class="cls-41" d="M532.36,400.07a107.22,107.22,0,1,1-65.81-136.61h0A107.29,107.29,0,0,1,532.36,400.07Zm1.61.58a108.93,108.93,0,1,0-138.82,66.79h0A109,109,0,0,0,534,400.65Z"/><path class="cls-42" d="M533.45,400.43a109.93,109.93,0,1,1,0-.15Zm1.61.59a110.12,110.12,0,1,0-140.34,67.5l.07,0a110.07,110.07,0,0,0,140.26-67.49v0Z"/><path class="cls-42" d="M534.55,400.8a109.53,109.53,0,1,1-67.22-139.55l.06,0a109.45,109.45,0,0,1,67.19,139.44Zm1.69.58a128.56,128.56,0,1,0,0,.08l0-.11Z"/><path class="cls-43" d="M535.65,401.24A110.7,110.7,0,1,1,467.79,260.1a110.7,110.7,0,0,1,67.86,141.14Zm1.68.58A112.48,112.48,0,1,0,394,470.74h0a112.5,112.5,0,0,0,143.33-68.93Z"/><path class="cls-43" d="M536.79,401.6a107.27,107.27,0,1,1,0-.1Zm1.68.59a113.65,113.65,0,1,0-144.81,69.73h0a113.67,113.67,0,0,0,144.76-69.73Z"/><path class="cls-44" d="M537.85,402a120.27,120.27,0,1,1,0-.07Zm1.68.58a117.42,117.42,0,1,0,0,.08l0-.08Z"/><path class="cls-45" d="M539,402.41a114.26,114.26,0,1,1-70.09-145.6A114.25,114.25,0,0,1,539,402.41Zm1.61.51a116,116,0,1,0-147.83,71.19,116,116,0,0,0,147.83-71.19Z"/><path class="cls-45" d="M540.11,402.77A115.43,115.43,0,1,1,469.27,255.7h0a115.4,115.4,0,0,1,70.83,147Zm1.68.58a117.22,117.22,0,1,0-149.41,71.83l.07,0A117.21,117.21,0,0,0,541.79,403.35Z"/><path class="cls-46" d="M541.21,403.14a116.59,116.59,0,1,1-71.48-148.6A116.59,116.59,0,0,1,541.21,403.14Zm1.68.58a119.79,119.79,0,1,0,0,.11Z"/><path class="cls-46" d="M542.31,403.51a112.9,112.9,0,1,1,0-.1Zm1.68.58a119.53,119.53,0,1,0-152.33,73.39A119.53,119.53,0,0,0,544,404.09Z"/><path class="cls-46" d="M543.41,404a118.17,118.17,0,1,1,.05-.14Zm1.68.58a120.71,120.71,0,1,0-153.84,74l0,0A120.77,120.77,0,0,0,545.09,404.53Z"/><path class="cls-47" d="M544.57,404.35a120.15,120.15,0,1,1-73.69-153.11h0A120.16,120.16,0,0,1,544.57,404.35Zm1.62.59a121.87,121.87,0,1,0-155.34,74.77,121.87,121.87,0,0,0,155.34-74.77Z"/><path class="cls-48" d="M545.67,404.68A121.31,121.31,0,1,1,471.2,250.13l.06,0a121.27,121.27,0,0,1,74.41,154.52Zm1.69.58a121.25,121.25,0,1,0,0,.09l0-.09Z"/><path class="cls-48" d="M546.79,405.12a122.49,122.49,0,1,1-75.16-156.07h0A122.57,122.57,0,0,1,546.79,405.12Zm1.68.58a124.27,124.27,0,1,0-158.39,76.15l.06,0A124.28,124.28,0,0,0,548.45,405.7Z"/><path class="cls-48" d="M547.87,405.48a123.65,123.65,0,1,1-75.8-157.6A123.65,123.65,0,0,1,547.87,405.48Zm1.68.59a125.38,125.38,0,1,0-.07.2l.07-.2Z"/><path class="cls-49" d="M549,405.85a124.81,124.81,0,1,1-76.54-159.07A124.82,124.82,0,0,1,549,405.85Zm1.68.58a132.54,132.54,0,1,0,0,.05Z"/><path class="cls-49" d="M550.14,406.28a126.05,126.05,0,1,1-77.37-160.6h0A126.1,126.1,0,0,1,550.14,406.28Zm1.61.59a127.77,127.77,0,1,0-162.82,78.35h0a127.75,127.75,0,0,0,162.82-78.32l0,0Z"/><path class="cls-50" d="M551.23,406.65a127.21,127.21,0,1,1-78.09-162.07h0a127.16,127.16,0,0,1,78.08,162Zm1.69.59a129,129,0,1,0-164.4,79.09l.07,0a129,129,0,0,0,164.33-79.11Z"/><path class="cls-50" d="M552.33,407a128.36,128.36,0,1,1-78.77-163.55l0,0A128.4,128.4,0,0,1,552.33,407Zm1.68.58a140,140,0,1,0,0,.07Z"/><path class="cls-50" d="M553.43,407.46a137.83,137.83,0,1,1,0-.07Zm1.68.58A131.33,131.33,0,1,0,387.72,488.5l.07,0a131.25,131.25,0,0,0,167.29-80.39l0-.1Z"/><path class="cls-51" d="M554.53,407.82a132.72,132.72,0,1,1,0-.06Zm1.68.59a132.49,132.49,0,1,0-168.82,81.28h0A132.52,132.52,0,0,0,556.21,408.41Z"/><path class="cls-52" d="M555.7,408.19a131.93,131.93,0,1,1-81-168.09l.07,0A132,132,0,0,1,555.7,408.19Zm1.61.58a133.64,133.64,0,1,0-170.33,82,133.64,133.64,0,0,0,170.33-82v0Z"/><path class="cls-52" d="M556.79,408.63A133.11,133.11,0,1,1,475.12,239h0A133.07,133.07,0,0,1,556.8,408.59Zm1.69.58a134.89,134.89,0,1,0-171.92,82.66l.05,0A134.89,134.89,0,0,0,558.48,409.21Z"/><path class="cls-52" d="M557.89,409a134.27,134.27,0,1,1-82.41-171.07h0A134.26,134.26,0,0,1,557.89,409Zm1.69.59A136,136,0,1,0,386.19,493l.05,0A136.07,136.07,0,0,0,559.58,409.58Z"/><path class="cls-52" d="M559,409.35a135.42,135.42,0,1,1-83-172.6A135.42,135.42,0,0,1,559,409.35Zm1.68.58a131.36,131.36,0,1,0,0,.1l0-.09Z"/><path class="cls-53" d="M560.09,409.8a135.75,135.75,0,1,1,0-.14Zm1.7.55a138.39,138.39,0,1,0-176.35,84.87h0A138.48,138.48,0,0,0,561.79,410.35Z"/><path class="cls-53" d="M561.26,410.16a137.83,137.83,0,1,1-84.61-175.6h0a137.79,137.79,0,0,1,84.6,175.54Zm1.61.59A139.55,139.55,0,1,0,385,496.34h0a139.57,139.57,0,0,0,177.8-85.6Z"/><path class="cls-53" d="M562.36,410.53a139,139,0,0,1-177.13,85.24h0C312.79,470.45,274.67,391.14,300,318.71a139,139,0,0,1,177.13-85.24h0C549.55,258.78,587.67,338.1,562.36,410.53Zm1.61.58c25.75-73.31-13-153.64-86.27-179.32A140.74,140.74,0,1,0,564,411.17Z"/><path class="cls-53" d="M563.45,411a140.16,140.16,0,1,1-86-178.6A140.16,140.16,0,0,1,563.45,411Zm1.69.58a141.94,141.94,0,1,0-180.91,87h0a141.93,141.93,0,0,0,180.87-87Z"/><path class="cls-53" d="M564.55,411.35a143.49,143.49,0,1,1,0-.09Zm1.68.59a143.11,143.11,0,1,0-182.41,87.68l.08,0a143,143,0,0,0,182.28-87.59l.05-.14Z"/><path class="cls-54" d="M565.65,411.7a142.48,142.48,0,1,1-87.36-181.6A142.48,142.48,0,0,1,565.65,411.7Zm1.68.59a144.26,144.26,0,1,0-183.87,88.53A144.26,144.26,0,0,0,567.33,412.29Z"/><path class="cls-54" d="M566.79,412.07A143.64,143.64,0,1,1,478.69,229,143.64,143.64,0,0,1,566.79,412.07Zm1.68.58a145.42,145.42,0,1,0-185.33,89.26,145.42,145.42,0,0,0,185.33-89.26Z"/><path class="cls-54" d="M567.92,412.51c-26.49,75.5-109.13,115.31-184.6,88.84a144.84,144.84,0,1,1,184.6-88.82Zm1.61.58A146.6,146.6,0,1,0,382.72,503h0A146.62,146.62,0,0,0,569.53,413.09Z"/><path class="cls-54" d="M569,412.87a146.05,146.05,0,1,1-89.63-186.08l.07,0a146,146,0,0,1,89.57,186Zm1.68.59a147.83,147.83,0,1,0-188.41,90.65A147.82,147.82,0,0,0,570.7,413.46Z"/><path class="cls-55" d="M570.11,413.24a147.2,147.2,0,1,1-90.32-187.6A147.2,147.2,0,0,1,570.11,413.24Zm1.68.58a149,149,0,0,0-281.25-98.41C263.4,393,304.3,478.06,381.93,505.21a148.94,148.94,0,0,0,189.82-91.27Z"/><path class="cls-55" d="M571.21,413.68a142.33,142.33,0,1,1,0-.05Zm1.68.58a150.16,150.16,0,1,0-191.36,92.08h0a150.19,150.19,0,0,0,191.33-92.09Z"/><path class="cls-55" d="M572.31,414a149.54,149.54,0,1,1-91.68-190.6A149.54,149.54,0,0,1,572.31,414Zm1.68.59a151.34,151.34,0,0,0-92.78-192.87c-78.94-27.58-165.28,14-192.86,92.85A151.31,151.31,0,0,0,381.1,507.46h0C460.07,535.06,546.4,493.5,574,414.63Z"/><path class="cls-55" d="M573.48,414.41a150.77,150.77,0,1,1-92.56-192.08l.07,0A150.81,150.81,0,0,1,573.48,414.41Zm1.61.58c27.87-79.46-14-166.45-93.51-194.33a152.53,152.53,0,1,0,93.49,194.4l0-.07Z"/><path class="cls-56" d="M574.58,414.85a152,152,0,1,1-93.34-193.64l.12,0A152,152,0,0,1,574.58,414.85Zm1.68.58A153.73,153.73,0,0,0,286.08,313.8c-28,80.12,14.19,167.85,94.31,195.87a153.67,153.67,0,0,0,195.85-94.19Z"/><path class="cls-57" d="M575.67,415.21C547.72,495,460.36,537,380.54,509.16a153.12,153.12,0,1,1,195.13-94Zm1.68.59a154.84,154.84,0,0,0-95-197.32h0c-80.7-28.32-169,14.27-197.33,95A154.89,154.89,0,0,0,577.35,415.8Z"/><path class="cls-57" d="M576.79,415.58a154.26,154.26,0,0,1-291.2-101.92c28.2-80.41,116.2-122.85,196.58-94.68A154.28,154.28,0,0,1,576.79,415.58Zm1.68.58a180.3,180.3,0,1,0-.07.14l.05-.14Z"/><path class="cls-57" d="M577.87,416a157.83,157.83,0,1,1,0-.12Zm1.68.58a157.22,157.22,0,0,0-296.76-104c-28.68,82,14.49,171.72,96.43,200.41A157.21,157.21,0,0,0,579.55,416.6Z"/><path class="cls-57" d="M579,416.35C550.43,498,461,541,379.44,512.42a156.73,156.73,0,0,1-96.14-199.6c28.61-81.65,118-124.67,199.6-96.06A156.71,156.71,0,0,1,579,416.35Zm1.61.59a158.34,158.34,0,0,0-97-201.81l-.17-.06c-82.53-28.9-172.89,14.64-201.79,97.17a158.4,158.4,0,0,0,299,104.7h0Z"/><path class="cls-58" d="M580.14,416.75a157.8,157.8,0,0,1-201.06,96.83l-.08,0c-82.21-28.76-125.55-118.82-96.8-201.06a157.78,157.78,0,0,1,201-96.83l.1,0C565.57,244.44,608.89,334.51,580.14,416.75Zm1.65.6a167,167,0,1,0,0,.1Z"/><path class="cls-59" d="M581.23,417.19a159,159,0,1,1-97.54-202.6h0A159.08,159.08,0,0,1,581.23,417.19Zm1.68.58a160.79,160.79,0,1,0-204.86,98.58h0c83.74,29.32,175.53-14.8,204.86-98.58Z"/><path class="cls-59" d="M582.33,417.55C553.14,501,461.79,545,378.27,515.82A160.14,160.14,0,0,1,280,311.77l0-.09c29.19-83.48,120.58-127.45,204.06-98.26a160.15,160.15,0,0,1,98.29,204.05Zm1.68.59a161.94,161.94,0,0,0-305.68-107c-29.54,84.39,14.92,176.8,99.35,206.29A161.89,161.89,0,0,0,584,418.16Z"/><path class="cls-59" d="M583.43,417.92C554,502.06,462,546.35,377.79,516.91a161.2,161.2,0,0,1-98.88-205.56c29.49-84,121.46-128.41,205.6-99A161.23,161.23,0,0,1,583.43,417.92Zm1.68.59a163.12,163.12,0,0,0-100-207.87c-85-29.78-178.08,15.07-207.86,100.09a163.12,163.12,0,0,0,100,207.87C462.26,548.35,555.33,503.52,585.11,418.51Z"/><path class="cls-60" d="M584.6,418.35C554.89,503,462.19,547.72,377.47,518S248.11,395.6,277.79,310.88a162.62,162.62,0,0,1,207.13-99.65C569.6,240.86,614.23,333.63,584.6,418.35Zm1.61.58a164.28,164.28,0,0,0-100.7-209.38l-.05,0c-85.61-30-179.41,15.15-209.33,100.75A164.27,164.27,0,0,0,376.79,519.65l.09,0c85.6,30,179.4-15.13,209.33-100.74Z"/><path class="cls-61" d="M585.7,418.72C555.79,504,462.41,549,377.1,519.11S246.79,395.82,276.64,310.51,399.93,180.2,485.24,210.13A163.7,163.7,0,0,1,585.71,418.7Zm1.68.59A165.51,165.51,0,1,0,376.45,520.77l.06,0C462.7,551,557.16,505.57,587.38,419.35Z"/><path class="cls-61" d="M586.79,419.09a164.83,164.83,0,0,1-210,101.16l-.12,0C290.79,490.13,245.47,396,275.54,310.15A164.84,164.84,0,0,1,485.57,209l.11,0C571.57,239.1,616.86,333.19,586.79,419.09Zm1.69.58c30.36-86.84-15.37-182-102.22-212.32a166.68,166.68,0,0,0-212.4,102.2h0c-30.36,86.85,15.37,182,102.22,212.33a166.68,166.68,0,0,0,212.4-102.22Z"/><path class="cls-61" d="M587.89,419.53A166.06,166.06,0,1,1,486,207.86,166,166,0,0,1,587.89,419.53Zm1.68.58c30.66-87.5-15.44-183.28-102.94-213.86A167.8,167.8,0,1,0,589.57,420.11Z"/><path class="cls-61" d="M589,419.9A167.22,167.22,0,0,1,273.2,309.77l.15-.42c30.51-87.14,125.92-133.09,213.06-102.58A167.28,167.28,0,0,1,589,419.9Zm1.68.58C621.55,332.35,575.09,236,487,205.08A169,169,0,0,0,375.34,524.16C463.43,555,559.87,508.57,590.67,420.48Z"/><path class="cls-62" d="M590.16,420.26A168.44,168.44,0,1,1,486.8,205.64l.05,0A168.5,168.5,0,0,1,590.16,420.26Zm1.61.59C622.86,332.17,576.11,235.08,487.43,204A170.14,170.14,0,0,0,270.57,308.35c-31,88.71,15.66,185.81,104.33,216.9s185.89-15.65,216.89-104.4Z"/><path class="cls-63" d="M591.26,420.7a169.68,169.68,0,0,1-216.14,104c-88.39-30.92-135-127.68-104-216.06A169.62,169.62,0,0,1,591.26,420.7Zm1.61.51C624.18,332,577.13,234.13,487.79,202.88A171.45,171.45,0,0,0,269.39,308c-31.23,89.27,15.81,187.09,105.15,218.33s187.08-15.8,218.33-105.14Z"/><path class="cls-63" d="M592.35,421.07c-31.16,89-128.62,135.87-217.59,104.7A170.76,170.76,0,0,1,270,308.2v0A170.78,170.78,0,0,1,592.37,421Zm1.69.58c31.46-89.92-15.88-188.4-105.87-219.86A172.56,172.56,0,0,0,268.3,307.59C236.76,397.52,284.18,496,374.17,527.45A172.57,172.57,0,0,0,594,421.65Z"/><path class="cls-63" d="M593.45,421.43C562.06,511.06,464,558.35,374.32,526.94A172,172,0,0,1,268.89,307.81C300.27,218.18,398.39,171,488,202.35A172,172,0,0,1,593.45,421.43Zm1.68.59c31.66-90.51-16-189.67-106.53-221.33s-189.72,16-221.4,106.53,16,189.65,106.53,221.33S563.45,512.6,595.13,422Z"/><path class="cls-64" d="M594.55,421.8C562.94,512.08,464.17,559.64,374,528S236.18,397.65,267.79,307.44,398.17,169.59,488.39,201.2,626.16,331.58,594.55,421.8Zm1.68.58A174.92,174.92,0,0,0,489,199.52c-91.16-31.9-191,16.17-222.86,107.33A174.93,174.93,0,0,0,373.37,529.72c91.16,31.9,191-16.17,222.86-107.37Z"/><path class="cls-64" d="M595.65,422.24C563.89,513.11,464.46,561,373.59,529.13A174.28,174.28,0,0,1,266.67,307.06l0-.06c31.76-90.87,131.19-138.72,222.1-106.9A174.31,174.31,0,0,1,595.65,422.24Zm1.68.58c32.12-91.82-16.17-192.28-108-224.4A176,176,0,0,0,265,306.42c-32.12,91.76,16.17,192.28,108,224.4A176,176,0,0,0,597.33,422.82Z"/><path class="cls-65" d="M596.79,422.6A175.52,175.52,0,0,1,373.15,530.23c-91.46-32-139.6-132.14-107.63-223.6A175.52,175.52,0,0,1,489.19,199C580.65,231.05,628.79,331.14,596.79,422.6Zm1.61.59c32.44-92.41-16.29-193.53-108.61-225.84s-193.54,16.29-225.88,108.7,16.32,193.52,108.65,225.86S566.09,515.6,598.43,423.19Z"/><path class="cls-65" d="M597.91,423a176.64,176.64,0,0,1-225.06,108.4l-.06,0c-92-32.2-140.62-133-108.36-225.06a176.63,176.63,0,0,1,225-108.41l.08,0C581.6,230.1,630.18,330.93,597.91,423Zm1.69.58c32.56-93-16.46-194.76-109.46-227.32S295.3,212.62,262.79,305.68,279.2,500.45,372.2,533,567,516.62,599.6,423.55Z"/><path class="cls-66" d="M599,423.41A177.87,177.87,0,0,1,372.42,532.5c-92.7-32.49-141.58-134-109.09-226.67A177.86,177.86,0,0,1,489.92,196.74C582.62,229.23,631.5,330.71,599,423.41Zm1.68.58A179.58,179.58,0,0,0,490.58,195.15l-.07,0c-93.58-32.78-196.09,16.53-228.87,110.11A179.59,179.59,0,0,0,371.77,534.1h0c93.62,32.77,196.13-16.54,228.9-110.12Z"/><path class="cls-66" d="M600.11,423.77C567.48,517.06,465.34,566.23,372,533.59S229.52,398.75,262.23,305.46A179.09,179.09,0,0,1,490.36,195.64C583.72,228.27,632.79,330.49,600.11,423.77Zm1.68.58C634.79,330.11,585.11,227,491,194s-197.41,16.68-230.4,110.92,16.68,197.4,110.84,230.4S568.79,518.6,601.79,424.35Z"/><path class="cls-66" d="M601.21,424.14c-32.86,93.94-135.65,143.41-229.6,110.55S228.21,399,261.13,305.1s135.66-143.41,229.6-110.56S634.13,330.27,601.21,424.14Zm1.68.58c33.22-94.82-16.76-198.64-111.58-231.86S292.7,209.58,259.49,304.4l0,.11C226.23,399.35,276.2,503.16,371,536.35A182,182,0,0,0,602.89,424.72Z"/><path class="cls-67" d="M602.38,424.58c-33.15,94.53-136.59,144.35-231.13,111.21S226.89,399.19,260,304.66s136.6-144.31,231.13-111.21S635.45,330.05,602.38,424.58Zm1.61.58c33.45-95.45-16.82-199.94-112.27-233.39h0c-95.48-33.43-200,16.9-233.33,112.31s16.83,200,112.31,233.4S570.62,520.57,604,425.16Z"/><path class="cls-68" d="M603.47,424.94A182.56,182.56,0,0,1,258.86,304.29C292.15,209.1,396.34,159,491.46,192.35S636.79,329.75,603.47,424.94Zm1.69.59c33.63-96.07-17-201.18-113.12-234.86s-201.2,17-234.86,113,17,201.26,113.09,234.89h0C466.36,572.23,571.5,521.6,605.16,425.53Z"/><path class="cls-68" d="M604.57,425.35C571.06,521.12,466.22,571.61,370.44,538.1A183.78,183.78,0,0,1,257.79,303.93c33.49-95.78,138.33-146.26,234.11-112.68A183.71,183.71,0,0,1,604.57,425.35Zm1.68.59c33.88-96.7-17.12-202.59-113.77-236.37S290,206.61,256.1,303.29l0,.06C222.21,400,273.2,505.88,369.86,539.68s202.49-17,236.37-113.71l0-.07Z"/><path class="cls-69" d="M605.67,425.75c-33.73,96.36-139.23,147.13-235.6,113.41S222.94,399.92,256.67,303.49,395.9,156.35,492.26,190.08,639.39,329.36,605.67,425.75Zm1.68.58c34.1-97.31-17.19-203.84-114.5-237.86S289.11,205.58,255,302.84l0,.06c-34.1,97.31,17.19,203.84,114.5,237.94s203.77-17.2,237.86-114.49Z"/><path class="cls-70" d="M606.79,426.11c-34,97-140.12,148.09-237.06,114.14S221.55,400.14,255.57,303.12,395.68,155,492.63,189,640.79,329.1,606.79,426.11Zm1.68.59c34.32-97.9-17.29-205.08-115.26-239.35S288.13,204.64,253.89,302.54s17.27,205.08,115.23,239.4S574.21,524.6,608.45,426.7Z"/><path class="cls-70" d="M607.94,426.48c-34.24,97.6-141.07,149-238.67,114.87s-149-141-114.87-238.59,141.06-149,238.67-114.87S642.11,328.88,607.94,426.48Zm1.61.59c34.53-98.49-17.42-206.33-115.9-240.87s-206.4,17.42-240.86,116S270.2,508.53,368.68,543.06,575.09,525.62,609.55,427.07Z"/><path class="cls-71" d="M609,426.92C574.65,525.11,467.09,576.84,368.9,542.45s-150-141.87-115.6-240.1,141.94-150,240.13-115.56S643.42,328.66,609,426.92Zm1.68.58C645.4,328.36,593.16,219.79,494,185.11s-207.65,17.48-242.4,116.62,17.56,207.72,116.7,242.4S576,526.65,610.72,427.5Z"/><path class="cls-72" d="M610.13,427.28c-34.6,98.85-142.82,150.87-241.59,116.34S217.6,400.8,252.2,302,395,151.08,493.79,185.69,644.79,328.44,610.13,427.28Zm1.69.59c34.9-99.8-17.64-209-117.44-243.86S285.49,201.64,250.52,301.35s17.64,209,117.43,243.86S576.84,527.6,611.79,427.87Z"/><path class="cls-72" d="M611.23,427.65c-34.77,99.45-143.58,151.88-243,117.1l-.1,0c-99.43-34.83-151.82-143.7-117-243.13s143.62-151.9,243.13-117.07S646.06,328.22,611.23,427.65Zm1.68.58C648,327.85,595.21,218,494.79,182.91S284.51,200.62,249.39,301s17.74,210.21,118.13,245.35S577.79,528.62,612.91,428.23Z"/><path class="cls-73" d="M612.33,428.09c-35,100-144.51,152.77-244.6,117.72S215,401.24,250,301.15s144.5-152.8,244.59-117.73S647.37,328,612.33,428.09Zm1.68.59c35.34-101.05-17.85-211.53-118.82-246.94S283.67,199.59,248.33,300.56,266.17,512.1,367.15,547.5,578.67,529.64,614,428.68Z"/><path class="cls-74" d="M613.5,428.46C578.23,529.13,468,582.18,367.37,546.91S213.65,401.46,248.84,300.78,394.29,147.06,495,182.35,648.69,327.78,613.5,428.46Zm1.61.58c35.68-101.63-17.93-212.84-119.55-248.4s-212.77,18-248.33,119.56S265.15,513,366.79,548.6,579.55,530.67,615.11,429Z"/><path class="cls-74" d="M614.6,428.82C579.14,530.11,468.29,583.49,367,548l-.06,0C265.67,512.6,212.33,401.68,247.79,300.42s146.31-154.65,247.6-119.2h0C596.67,216.71,650,327.56,614.6,428.82Zm1.68.59C652.06,327.19,598.21,215.35,496,179.55S281.91,197.62,246.06,299.83s18.07,214.08,120.28,249.86S580.43,531.62,616.28,429.41Z"/><path class="cls-75" d="M615.69,429.26C580,531.11,468.48,584.81,366.56,549.11S210.94,401.9,246.64,300.05,393.85,144.42,495.79,180.13,651.4,327.35,615.69,429.26Zm1.69.59c36-102.88-18.22-215.41-121-251.4S281,196.59,245,299.45,263.2,514.78,366,550.78,581.38,532.64,617.38,429.85Z"/><path class="cls-76" d="M616.79,429.63C580.94,532.13,468.7,586.13,366.2,550.28S209.62,402.12,245.55,299.61,393.63,143.11,496.14,179,652.72,327.12,616.79,429.63Zm1.69.58c36.21-103.46-18.3-216.64-121.75-252.86S280.08,195.57,243.86,299s18.3,216.65,121.75,252.87,216.65-18.22,252.87-121.68Z"/><path class="cls-76" d="M617.89,430c-36.1,103.17-149,157.46-252.1,121.36s-157.48-149-121.34-252.11,149-157.45,252.13-121.38S654,326.9,617.89,430Zm1.68.59c36.44-104-18.36-218-122.41-254.4s-218,18.44-254.37,122.48,18.36,218,122.4,254.4,218-18.44,254.38-122.48Z"/><path class="cls-77" d="M619.06,430.35C582.7,534.18,469.14,588.83,365.39,552.47S207,402.63,243.28,298.88,393.2,140.47,496.94,176.76,655.35,326.61,619.06,430.35Zm1.61.58c36.66-104.58-18.44-219.19-123.14-255.85s-219.2,18.51-255.86,123.21S260.11,517.5,364.79,554.16,584,535.64,620.67,430.94Z"/><path class="cls-78" d="M620.16,430.8C583.57,535.13,469.36,590.15,365,553.57S205.67,402.85,242.18,298.44,393,139.08,497.31,175.67,656.67,326.35,620.16,430.8Zm1.68.58C658.64,326.1,603.18,210.86,497.9,174S277.37,192.57,240.5,297.85s18.66,220.5,123.94,257.4S585,536.67,621.84,431.35Z"/><path class="cls-78" d="M621.25,431.16c-36.73,105-151.67,160.31-256.66,123.51a201.37,201.37,0,0,1-123.51-256.6c36.73-105,151.71-160.3,256.71-123.5S658,326.17,621.25,431.16Zm1.69.59c37-105.87-18.73-221.77-124.6-258.86S276.5,191.62,239.4,297.49,258.13,519.25,364,556.35,585.84,537.62,622.94,431.75Z"/><path class="cls-79" d="M622.35,431.53c-37,105.65-152.56,161.26-258.13,124.31S203,403.29,240,297.71,392.54,136.45,498.11,173.4,659.3,326,622.35,431.53Zm1.69.58C661.35,325.66,605.23,209,498.7,171.79s-223.08,18.8-260.4,125.33,18.81,223.09,125.34,260.33S586.72,538.64,624,432.11Z"/><path class="cls-79" d="M623.45,432C586.28,538.13,470,594.1,363.86,557s-162.21-153.43-125-259.67,153.46-162.17,259.62-125S660.69,325.73,623.45,432Zm1.68.58c37.54-107.11-19-224.4-126.06-261.93S274.79,189.57,237.21,296.68s19,224.4,126.06,261.94,224.33-19,261.86-126.07Z"/><path class="cls-79" d="M624.55,432.35c-37.39,106.83-154.31,163.09-261.13,125.7S200.33,403.72,237.79,296.9,392.1,133.82,498.92,171.2,662,325.51,624.55,432.35Zm1.68.59c37.75-107.7-19-225.65-126.72-263.4s-225.72,19-263.4,126.81,19,225.64,126.72,263.4,225.72-19.06,263.4-126.83Z"/><path class="cls-80" d="M625.72,432.7c-37.61,107.48-155.26,164-262.67,126.43S199.05,404,236.62,296.54s155.26-164,262.67-126.43S663.32,325.29,625.72,432.7Zm1.61.58c38-108.35-19.1-226.88-127.46-264.86S272.87,187.59,235,296s19.1,226.89,127.46,264.86S589.43,541.64,627.33,433.28Z"/><path class="cls-80" d="M626.79,433.14c-37.8,108-156,164.91-264.1,127.09s-165-156.06-127.17-264.13S391.59,131.18,499.65,169,664.64,325.07,626.79,433.14Zm1.68.58c38.12-109-19.25-228.27-128.26-266.39S272,186.57,233.81,295.51s19.24,228.28,128.26,266.4S590.3,542.67,628.5,433.72Z"/><path class="cls-80" d="M627.91,433.5C589.91,542.16,471,599.44,362.25,561.4s-165.87-157-127.82-265.67S391.37,129.79,500.09,167.84,666,324.85,627.91,433.5Zm1.69.59c38.33-109.6-19.39-229.52-128.92-267.86S271.16,185.55,232.79,295.15,252.18,524.67,361.71,563,591.18,543.69,629.6,434.09Z"/><path class="cls-81" d="M629,433.87C590.79,543.18,471.19,600.76,361.88,562.5S195.06,404.6,233.33,295.35,391.15,128.48,500.46,166.74,667.27,324.63,629,433.87Zm1.68.59C669.25,324.27,611.23,203.69,501,165.06S270.2,184.59,231.65,294.78s19.46,230.77,129.65,269.4,230.83-19.54,269.39-129.72Z"/><path class="cls-82" d="M630.11,434.35c-38.41,109.89-158.7,167.77-268.6,129.28S193.79,404.82,232.23,294.93s158.7-167.77,268.56-129.29S668.59,324.41,630.11,434.35Zm1.68.58C670.64,324.09,612.25,202.85,501.41,164S269.33,183.57,230.55,294.35s19.53,232.08,130.38,270.94S593,545.67,631.79,434.89Z"/><path class="cls-82" d="M631.28,434.67c-38.71,110.48-159.65,168.73-270.13,130S192.43,405,231.06,294.56s159.65-168.72,270.13-130S669.91,324.19,631.28,434.67Zm1.61.59c39.07-111.43-19.68-233.4-131.12-272.4S268.45,182.54,229.45,294s19.68,233.37,131.11,272.37,233.33-19.66,272.33-131.09Z"/><path class="cls-83" d="M632.38,435C593.45,546.18,471.85,604.71,360.71,565.79S191,405.26,230,294.2,390.49,124.52,501.63,163.45,671.3,324,632.38,435Zm1.68.59c39.22-112-19.83-234.65-131.85-273.86S267.57,181.52,228.28,293.61s19.83,234.64,131.84,273.86S594.79,547.72,634.06,435.63Z"/><path class="cls-84" d="M633.47,435.48C594.33,547.2,472.07,606,360.34,567S189.72,405.48,228.87,293.76,390.27,123.21,502,162.28,672.62,323.75,633.47,435.48Zm1.69.58c39.43-112.67-19.91-236-132.58-275.39s-236,19.9-275.4,132.5,19.9,236,132.58,275.4S595.72,548.67,635.16,436.06Z"/><path class="cls-84" d="M634.57,435.84C595.28,548.15,472.29,607.35,360,568.06S188.4,405.77,227.79,293.35s162.28-171.5,274.59-132.21S673.93,323.46,634.57,435.84Zm1.68.59c39.66-113.26-20-237.2-133.31-276.86s-237.15,20-276.86,133.24,20,237.27,133.31,276.93S596.6,549.69,636.25,436.43Z"/><path class="cls-85" d="M635.67,436.21c-39.51,113-163.16,172.45-276.13,132.94S187.09,406,226.67,293,389.79,120.57,502.79,160.08,675.25,323.24,635.67,436.21Zm1.68.59c39.88-113.85-20.12-238.52-134-278.4S264.83,178.52,225,292.4s20.12,238.52,134,278.4S597.48,550.72,637.35,436.8Z"/><path class="cls-86" d="M636.84,436.65C597,550.2,472.73,610.05,359.17,570.25s-173.38-164-133.67-277.66S389.61,119.18,503.16,159,676.57,323,636.84,436.65Zm1.61.59c40.09-114.51-20.2-239.84-134.66-279.89S264,177.57,223.89,292s20.19,239.84,134.7,279.93S598.35,551.67,638.45,437.24Z"/><path class="cls-86" d="M637.94,437c-40,114.21-165,174.33-279.15,134.33S184.45,406.43,224.4,292.22s165-174.35,279.13-134.33S677.88,322.8,637.94,437Zm1.68.58c40.24-115.09-20.34-241.08-135.5-281.4S263,176.55,222.72,291.64,243.06,532.72,358.22,573,599.3,552.69,639.62,437.6Z"/><path class="cls-87" d="M639,437.35c-40.17,114.8-165.86,175.31-280.66,135.14S183.14,406.65,223.3,291.85,389.17,116.55,504,156.79,679.2,322.58,639,437.35Zm1.69.59c40.53-115.68-20.49-242.33-136.17-282.86S262.16,175.52,221.62,291.27s20.49,242.4,136.17,282.86S600.18,553.71,640.72,438Z"/><path class="cls-88" d="M640.13,437.82C599.79,553.2,473.39,614,358,573.62S181.79,406.87,222.21,291.42,389,115.23,504.34,155.62,680.52,322.35,640.13,437.82Zm1.68.59C682.57,322.07,621.25,194.69,504.92,154S261.28,174.5,220.52,290.9s20.56,243.64,136.9,284.33,243.64-20.49,284.37-136.82Z"/><path class="cls-88" d="M641.23,438.19c-40.61,116-167.63,177.16-283.59,136.52S180.43,407.09,221.11,291.05,388.73,113.91,504.7,154.52,681.91,322.15,641.23,438.19Zm1.68.58c41-117-20.63-245-137.62-285.93s-245,20.71-285.86,137.62,20.63,245,137.62,285.94,245-20.71,285.86-137.63Z"/><path class="cls-89" d="M642.4,438.55C601.5,555.18,473.9,616.64,357.2,575.81S179.11,407.35,219.94,290.68s168.5-178.08,285.2-137.26S683.23,321.93,642.4,438.55Zm1.61.59c41.19-117.58-20.78-246.21-138.29-287.4S259.45,172.52,218.33,290.1s20.78,246.25,138.28,287.39S602.89,556.72,644,439.14Z"/><path class="cls-90" d="M643.5,439c-41,117.21-169.38,179-286.71,137.92s-179-169.38-138-286.56,169.38-179,286.67-138S684.54,321.71,643.5,439Zm1.68.59c41.34-118.23-20.93-247.52-139.09-288.94S258.57,171.5,217.16,289.73s20.92,247.52,139.09,288.86,247.54-20.85,288.93-139Z"/><path class="cls-91" d="M644.59,439.35C603.33,557.23,474.34,619.35,356.47,578s-180-170.26-138.68-288.13S388,110,505.87,151.23,685.86,321.49,644.59,439.35Zm1.69.58c41.56-118.82-21-248.83-139.82-290.39s-248.77,21-290.4,139.74,21,248.84,139.82,290.4,248.77-21,290.4-139.74Z"/><path class="cls-92" d="M645.69,439.72C604.21,558.25,474.56,620.66,356,579.18S175.16,408,216.65,289.51,387.79,108.57,506.31,150.06,687.18,321.27,645.69,439.72Zm1.68.59C689.15,320.9,626.3,190.23,506.9,148.45S256.79,169.52,215,288.93,236,539,355.44,580.79,605.6,559.72,647.37,440.35Z"/><path class="cls-93" d="M646.79,440.09C605.09,559.2,474.79,622,355.66,580.27S173.84,408.19,215.55,289.15,387.55,107.26,506.68,149,688.49,321.05,646.79,440.09Zm1.68.58c42-120-21.22-251.32-141.21-293.39S255.86,168.5,213.87,288.56,235.08,539.89,355.08,582,606.47,560.74,648.47,440.67Z"/><path class="cls-93" d="M648,440.53C606,560.23,475,623.35,355.3,581.35s-182.77-173-140.92-292.66S387.38,105.92,507,147.84,689.79,320.83,648,440.53Zm1.61.58c42.29-120.65-21.29-252.71-141.94-294.93S255,167.55,212.79,288.12s21.27,252.72,141.92,294.93,252.64-21.29,294.86-141.94Z"/><path class="cls-94" d="M649.06,440.89c-42.15,120.36-173.85,183.72-294.2,141.58S171.14,408.63,213.28,288.35s173.84-183.72,294.2-141.57S691.2,320.61,649.06,440.89Zm1.68.59c42.44-121.24-21.44-254-142.67-296.4s-254,21.44-296.47,142.68,21.44,254,142.67,296.39,254-21.43,296.52-142.67Z"/><path class="cls-95" d="M650.15,441.26C607.79,562.2,475.43,625.93,354.49,583.57S169.79,408.92,212.18,288,386.9,103.35,507.85,145.67,692.52,320.35,650.15,441.26Zm1.69.59C694.49,320,630.25,186.64,508.43,144S253.16,165.5,210.5,287.35s21.58,255.2,143.41,297.86S609.18,563.74,651.84,441.85Z"/><path class="cls-95" d="M651.25,441.7c-42.58,121.53-175.6,185.55-297.12,143s-185.63-175.6-143-297.2S386.72,102,508.25,144.5,693.79,320.1,651.25,441.7Zm1.68.58c42.86-122.48-21.65-256.52-144.14-299.39S252.28,164.47,209.4,287s21.66,256.52,144.14,299.4S610.06,564.76,652.93,442.28Z"/><path class="cls-96" d="M652.35,442.07C609.62,564.25,475.87,628.56,353.69,585.84S167.19,409.35,210,287.17,386.46,100.67,508.65,143.4,695.15,319.88,652.35,442.07Zm1.68.58c43.1-123.06-21.73-257.84-144.79-300.93S251.4,163.52,208.31,286.59,230,544.42,353.1,587.52,610.94,565.72,654,442.65Z"/><path class="cls-96" d="M653.45,442.43C610.5,565.28,476.09,630,353.32,586.93S165.87,409.58,208.89,286.81,386.24,99.28,509,142.35,696.47,319.66,653.45,442.43Zm1.68.59c43.31-123.66-21.8-259.09-145.53-302.4S250.52,162.5,207.21,286.22,229,545.35,352.79,588.62s259-21.88,302.34-145.6Z"/><path class="cls-97" d="M654.62,442.87C611.38,566.23,476.31,631.27,353,588S164.55,409.8,207.72,286.35,386,98,509.38,141.21,697.79,319.44,654.62,442.87Zm1.61.58c43.53-124.3-22-260.39-146.26-303.93s-260.4,22-303.86,146.26,22,260.4,146.26,303.93,260.42-22,303.86-146.26Z"/><path class="cls-98" d="M655.71,443.24c-43.46,124-179.18,189.35-303.2,145.89S163.24,410,206.62,286,385.79,96.65,509.79,140.11,699.1,319.22,655.71,443.24Zm1.69.58c43.75-124.89-22.1-261.64-147.07-305.39s-261.64,22.09-305.39,147S227,547.07,352,590.82s261.65-22.11,305.4-147Z"/><path class="cls-98" d="M656.79,443.6c-43.58,124.68-180,190.31-304.64,146.75S161.92,410.24,205.53,285.64,385.59,95.35,510.19,138.94,700.42,319,656.79,443.6Zm1.69.59c44-125.56-22.17-263-147.73-306.86s-263,22.17-306.91,147.72,22.17,263,147.72,306.86,263-22.17,306.94-147.72Z"/><path class="cls-99" d="M657.91,444C614.08,569.23,477,635.22,351.79,591.4S160.53,410.46,204.43,285.2,385.29,94,510.55,137.84,701.79,318.78,657.91,444Zm1.68.58c44.2-126.21-22.31-264.27-148.45-308.46s-264.2,22.31-308.35,148.45,22.32,264.28,148.46,308.47S615.4,570.76,659.59,444.62Z"/><path class="cls-100" d="M659,444.4C615,570.25,477.26,636.54,351.42,592.49S159.21,410.68,203.33,284.83,385.07,92.7,510.92,136.74,703.13,318.56,659,444.4Zm1.68.59C705.1,318.19,638.3,179.47,511.5,135.06S246,157.45,201.65,284.25,224,549.76,350.79,594.18,616.35,571.79,660.69,445Z"/><path class="cls-100" d="M660.18,444.77C615.84,571.28,477.48,637.86,351,593.59S157.89,410.9,202.16,284.46,384.85,91.35,511.36,135.65,704.44,318.35,660.18,444.77Zm1.61.58C706.42,318,639.33,178.58,511.94,134S245.11,156.5,200.55,283.88,223,550.64,350.39,595.27,617.23,572.74,661.79,445.35Z"/><path class="cls-101" d="M661.28,445.21c-44.49,127-183.58,194-310.67,149.48S156.61,411.11,201.06,284,384.64,90,511.73,134.55,705.79,318.12,661.28,445.21Zm1.68.59c44.78-128-22.61-268.16-150.65-312.93s-268.08,22.6-312.93,150.57S222,551.59,350,596.35,618.11,573.76,663,445.8Z"/><path class="cls-101" d="M662.37,445.58c-44.7,127.67-184.45,195-312.12,150.28S155.26,411.35,200,283.66s184.46-195,312.13-150.31S707.08,317.9,662.37,445.58Zm1.69.58c45-128.62-22.76-269.4-151.38-314.39s-269.33,22.68-314.4,151.31S221,552.47,349.66,597.47,619,574.79,664.06,446.16Z"/><path class="cls-101" d="M663.47,445.94C618.55,574.28,478.14,641.88,349.79,597S153.94,411.55,198.87,283.29s185.33-195.94,313.66-151S708.4,317.68,663.47,445.94Zm1.68.59c45.22-129.21-22.82-270.64-152-315.86s-270.72,22.83-315.94,152S220,553.31,349.21,598.6s270.73-22.86,315.94-152.07Z"/><path class="cls-102" d="M664.57,446.35c-45.14,129-186.21,196.85-315.13,151.7S152.63,411.77,197.79,282.86,384,86,512.9,131.18,709.71,317.46,664.57,446.35Zm1.68.59c45.51-129.87-22.9-272-152.77-317.47s-272,23-317.39,152.77,22.9,272,152.77,317.47,271.93-23,317.39-152.74Z"/><path class="cls-102" d="M665.79,446.75c-45.41,129.5-187.21,197.77-316.71,152.4S151.31,412.07,196.6,282.49,383.79,84.72,513.26,130.09,711,317.24,665.79,446.75Zm1.61.58c45.73-130.45-23-273.27-153.5-318.93S240.7,151.4,195,281.9s23.05,273.28,153.5,318.94,273.15-23.05,318.81-153.49Z"/><path class="cls-102" d="M666.84,447.11c-45.59,130.17-188,198.72-318.2,153.14s-198.72-188-153.14-318.13S383.5,83.41,513.7,129,712.42,317,666.84,447.11Zm1.68.59c45.88-131-23.2-274.52-154.24-320.4S239.79,150.43,193.79,281.54,217,556.06,348,601.93s274.55-23.12,320.5-154.23Z"/><path class="cls-103" d="M667.93,447.55C622.13,578.35,479,647.15,348.27,601.42S148.6,412.51,194.4,281.68,383.32,82.09,514.07,127.89,713.73,316.73,667.93,447.55Zm1.69.59c46.09-131.7-23.27-275.84-155-321.93s-275.83,23.26-321.9,155S216,556.94,347.72,603s275.8-23.27,321.9-154.89Z"/><path class="cls-103" d="M669,447.92c-46,131.33-189.79,200.55-321.12,154.6S147.28,412.73,193.31,281.35,383.1,80.8,514.43,126.75,715.05,316.51,669,447.92Zm1.69.58C717,316.22,647.3,171.42,515,125.11s-277.08,23.34-323.4,155.62S215,557.81,347.32,604.2,624.4,580.79,670.72,448.5Z"/><path class="cls-103" d="M670.13,448.28C624,580.28,479.46,649.86,347.47,603.62S146,412.94,192.21,281,382.88,79.45,514.87,125.62,716.37,316.29,670.13,448.28Zm1.68.59C718.34,316,648.32,170.47,515.46,123.94s-278.4,23.49-324.93,156.41,23.48,278.41,156.35,325,278.4-23.54,324.91-156.48Z"/><path class="cls-104" d="M671.3,448.72c-46.46,132.58-191.62,202.45-324.2,156S144.65,413.16,191,280.59,382.66,78.06,515.24,124.52,717.69,316.07,671.3,448.72Zm1.61.51c46.75-133.45-23.56-279.64-157.12-326.39S236.18,146.47,189.43,280,213,559.64,346.52,606.4,626.16,582.76,672.91,449.23Z"/><path class="cls-105" d="M672.4,449.09c-46.68,133.26-192.5,203.4-325.61,156.72S143.33,413.35,189.94,280.15,382.44,76.75,515.6,123.43,719,315.85,672.4,449.09Zm1.68.58c46.9-134.18-23.71-281-157.89-327.93s-281,23.71-327.93,157.82,23.7,281,157.89,327.93S627.11,583.79,674.08,449.67Z"/><path class="cls-105" d="M673.5,449.45C626.67,583.27,480.19,653.81,346.3,606.91S142,413.6,188.84,279.78,382.15,75.43,516,122.35,720.32,315.63,673.5,449.45Zm1.68.59c47.19-134.77-23.85-282.2-158.55-329.39S234.35,144.42,187.16,279.2,211,561.4,345.71,608.59,628,584.81,675.18,450Z"/><path class="cls-106" d="M674.59,449.82c-47,134.48-194.18,205.3-328.66,158.26S140.63,413.82,187.79,279.42,381.93,74.11,516.41,121.16,721.71,315.41,674.59,449.82Zm1.69.59C723.69,315.05,652.35,166.89,517,119.55S233.47,143.4,186.06,278.83,210,562.35,345.34,609.69,628.86,585.84,676.28,450.41Z"/><path class="cls-106" d="M675.69,450.26C628.42,585.35,480.63,656.44,345.56,609.18S139.31,414,186.65,279,381.71,72.8,516.79,120.06,723,315.19,675.69,450.26Zm1.68.58c47.63-136-24-284.83-160-332.46S232.6,142.45,185,278.35s24,284.84,160,332.47S629.79,586.79,677.37,450.84Z"/><path class="cls-106" d="M676.86,450.63c-47.56,135.64-196,207.13-331.73,159.64S138,414.26,185.48,278.61,381.48,71.48,517.21,119,724.34,315,676.86,450.63Zm1.61.58c47.85-136.6-24.14-286.08-160.68-333.93S231.65,141.43,183.87,278,208,564.1,344.54,612s286.15-24.15,333.93-160.75Z"/><path class="cls-107" d="M678,451C630.25,587.35,481.07,659.07,344.79,611.35S136.68,414.48,184.38,278.25,381.27,70.16,517.58,117.87,725.66,314.76,678,451Zm1.68.59c48-137.19-24.29-287.33-161.48-335.4S230.79,140.4,182.7,277.66,207,565,344.17,613.05s287.4-24.22,335.47-161.47Z"/><path class="cls-108" d="M679.06,451.43c-47.93,136.89-197.77,209-334.67,161s-209-197.77-161.11-334.66,197.77-209,334.66-161S727,314.54,679.06,451.43Zm1.68.58C729,314.17,656.37,163.35,518.53,115.09S229.89,139.45,181.6,277.22,206,565.93,343.79,614.15s288.66-24.36,337-162.14Z"/><path class="cls-108" d="M680.15,451.8C632,589.35,481.51,661.8,344,613.64S134,414.92,182.19,277.44s198.6-210,336.19-161.84S728.3,314.35,680.15,451.8Zm1.69.58C730.27,314,657.4,162.38,519,114S229,138.43,180.5,276.86s24.44,290,162.87,338.39,290-24.44,338.47-162.9Z"/><path class="cls-109" d="M681.25,452.16C632.89,590.35,481.73,663.1,343.59,614.74S132.73,415.21,181.09,277.07,380.61,66.14,518.79,114.5,729.61,314.1,681.25,452.16Zm1.68.59c48.73-139-24.58-291.2-163.6-339.93S228.06,137.4,179.41,276.49,204,567.69,343,616.42,634.28,591.83,682.93,452.75Z"/><path class="cls-110" d="M682.35,452.6C633.84,591.35,482,664.42,343.22,615.83s-211.81-200.4-163.3-339.19S380.39,64.82,519.11,113.4,730.93,313.8,682.35,452.6Zm1.68.59c49-139.68-24.66-292.52-164.33-341.47S227.18,136.45,178.31,276.05,203,568.57,342.64,617.52,635.16,592.86,684,453.19Z"/><path class="cls-110" d="M683.52,453c-48.8,139.38-201.35,212.76-340.73,164S130,415.65,178.79,276.27,380.17,63.5,519.48,112.35,732.32,313.58,683.52,453Zm1.61.58C734.3,313.29,660.4,159.72,520.06,110.62S226.3,135.43,177.21,275.69s24.73,293.83,165.06,342.92S636,593.81,685.13,453.55Z"/><path class="cls-111" d="M684.62,453.35c-49,140-202.23,213.72-342.2,164.7S128.7,415.87,177.72,275.91,380,62.19,519.92,111.21,733.64,313.35,684.62,453.35Zm1.68.59c49.31-140.85-25-295.08-165.79-344.39S225.43,134.4,176,275.35s25,295,165.75,344.36S636.91,594.83,686.3,453.92Z"/><path class="cls-112" d="M685.71,453.77C636.47,594.35,482.6,668.35,342.05,619.2S127.38,416.09,176.62,275.47,379.73,60.87,520.29,110,735,313.15,685.71,453.77Zm1.69.59c49.53-141.51-25-296.4-166.53-345.93S224.48,133.35,174.94,274.88s25,296.4,166.53,345.93S637.86,595.86,687.4,454.35Z"/><path class="cls-112" d="M686.79,454.14c-49.36,141.21-204,215.54-345.1,166.21s-215.62-204-166.16-345.25,204-215.55,345.12-166.16S736.27,312.93,686.79,454.14Zm1.68.58c49.76-142.09-25.09-297.64-167.25-347.46s-297.64,25.17-347.4,167.25S198.92,572.15,341.08,622s297.71-25.17,347.41-167.26Z"/><path class="cls-113" d="M687.91,454.5C638.3,596.35,483,671.07,341.25,621.35S124.79,416.53,174.43,274.73,379.29,58.16,521.09,107.84,737.59,312.71,687.91,454.5Zm1.68.59c50-142.75-25.17-299-167.92-348.93s-298.95,25.24-348.88,168S198,573.15,340.7,623.08s298.92-25.24,348.89-168Z"/><path class="cls-114" d="M689.08,454.94c-49.9,142.41-205.74,217.41-348.2,167.55S123.43,416.75,173.26,274.29,379,56.85,521.46,106.74,738.91,312.49,689.08,454.94Zm1.61.59C740.88,312.12,665.37,155.25,522,105.06s-300.2,25.29-350.39,168.65S197,574,340.3,624.17s300.2-25.31,350.39-168.64Z"/><path class="cls-114" d="M690.18,455.35c-50.12,143-206.62,218.4-349.66,168.28S122.12,417,172.16,273.93,378.79,55.53,521.79,105.65,740.22,312.27,690.18,455.35Zm1.68.58c50.41-144-25.46-301.51-169.45-351.93S220.89,129.43,170.48,273.35s25.46,301.52,169.45,351.93,301.52-25.4,351.93-169.39Z"/><path class="cls-115" d="M691.27,455.67C641,599.35,483.79,675,340.08,624.76s-219.29-207.57-169-351.2,207.5-219.35,351.2-169.08S741.54,312.05,691.27,455.67Zm1.69.59c50.63-144.58-25.54-302.76-170.11-353.39S220,128.4,169.38,273s25.54,302.76,170.11,353.37S642.33,600.84,693,456.26Z"/><path class="cls-116" d="M692.37,456.11C641.89,600.35,484,676.35,339.71,625.86S119.41,417.41,170,273.12,378.34,52.89,522.63,103.35,742.93,311.83,692.37,456.11Zm1.68.59c50.86-145.24-25.68-304.15-170.84-354.93S219.13,127.35,168.28,272.54s25.68,304.15,170.85,355S643.21,601.86,694.05,456.7Z"/><path class="cls-116" d="M693.47,456.48C642.79,601.35,484.21,677.66,339.35,627S118.09,417.63,168.87,272.76,378.12,51.58,523,102.28,744.25,311.61,693.47,456.48Zm1.68.58C746.22,311.24,669.4,151.67,523.58,100.6S218.26,126.35,167.19,272.17s25.75,305.4,171.6,356.47S644.08,602.88,695.15,457.06Z"/><path class="cls-117" d="M694.64,456.84C643.64,602.35,484.43,679,338.91,628.05S116.79,417.85,167.7,272.35,377.9,50.22,523.43,101.14,745.56,311.35,694.64,456.84Zm1.61.59C747.54,311,670.42,150.79,524,99.5S217.31,125.4,166.09,271.81s25.83,306.63,172.23,357.92S645,603.83,696.25,457.43Z"/><path class="cls-118" d="M695.79,457.28c-51.2,146.07-211.14,223.07-357.25,171.87S115.46,418.07,166.6,272,377.68,48.94,523.79,100.09,746.88,311.17,695.79,457.28Zm1.68.59c51.43-147.07-26-308-173-359.47s-308,26-359.46,173,26,308,173,359.39,307.9-25.93,359.41-172.92Z"/><path class="cls-119" d="M696.79,457.65c-51.36,146.7-212,224-358.66,172.67s-224-212-172.67-358.73,212-224,358.66-172.6S748.2,311,696.79,457.65Zm1.69.59C750.17,310.59,672.4,149,524.79,97.35s-309.24,26-361,173.65,26.15,309.27,173.8,360.93,309.2-26,360.93-173.69Z"/><path class="cls-119" d="M697.93,458C646.35,605.35,485.09,683,337.79,631.42s-225-212.84-173.38-360.2,212.83-225,360.19-173.4S749.51,310.66,697.93,458Zm1.68.59c51.88-148.25-26.19-310.52-174.42-362.39S214.6,122.4,162.72,270.64s26.2,310.51,174.43,362.46S647.67,606.83,699.61,458.6Z"/><path class="cls-120" d="M699,458.35c-51.8,148-213.72,225.94-361.66,174.13S111.51,418.8,163.31,270.86,377,44.92,525,96.72,750.79,310.44,699,458.35Zm1.68.59C752.88,310.12,674.45,147.18,525.55,95S213.72,121.35,161.63,270.27,187.89,582,336.79,634.2,648.62,607.86,700.71,459Z"/><path class="cls-121" d="M700.2,458.82C648.2,607.35,485.53,685.63,337,633.61S110.12,419,162.14,270.42,376.79,43.6,525.33,95.62,752.22,310.22,700.2,458.82Zm1.61.58c52.39-149.47-26.41-313-175.89-365.46S212.84,120.35,160.53,269.83,186.94,583,336.42,635.35s313.08-26.47,365.37-176Z"/><path class="cls-122" d="M701.3,459.19C649.06,608.35,485.79,687,336.57,634.71S108.79,419.24,161,270.05,376.59,42.28,525.79,94.53,753.54,310,701.3,459.19Zm1.68.58c52.53-150.06-26.56-314.42-176.62-366.93s-314.4,26.49-367,176.63S185.92,583.86,336,636.35s314.39-26.44,367-176.58Z"/><path class="cls-122" d="M702.39,459.55C649.93,609.4,486,688.27,336.2,635.81S107.48,419.46,159.94,269.69,376.37,41,526.14,93.43,754.86,309.78,702.39,459.55Zm1.69.59C756.79,309.49,677.45,144.5,526.72,91.75S211,118.35,158.26,269.1s26.63,315.64,177.35,368.39,315.72-26.63,368.47-177.35Z"/><path class="cls-123" d="M703.49,460c-52.7,150.36-217.3,229.59-367.7,177S106.17,419.67,158.85,269.25s217.3-229.6,367.65-177S756.17,309.56,703.49,460Zm1.68.58c53-151.38-26.77-317-178.08-369.92s-317,26.7-369.93,178,26.71,317,178.09,369.93,317-26.7,369.92-178Z"/><path class="cls-123" d="M704.59,460.35c-52.8,151-218.11,230.63-369.2,177.73S104.85,419.9,157.79,268.88,375.86,38.26,526.94,91.16,757.49,309.35,704.59,460.35Zm1.68.59c53.19-152-26.85-318.27-178.74-371.46S209.26,116.35,156.07,268.35s26.85,318.22,178.72,371.41S653.08,612.91,706.27,460.94Z"/><path class="cls-123" d="M705.79,460.72C652.64,612.35,486.7,692.29,335,639.17S103.53,420.11,156.58,268.51,375.64,36.94,527.31,90.06,758.79,309.12,705.79,460.72Zm1.61.59c53.39-152.55-27-319.52-179.51-373S208.38,115.35,155,267.93s26.92,319.52,179.47,372.93,319.52-27,372.93-179.51Z"/><path class="cls-124" d="M706.86,461.16c-53.34,152.26-219.94,232.45-372.2,179.11S102.21,420.35,155.48,268.08,375.42,35.63,527.67,89,760.12,308.9,706.86,461.16Zm1.68.59C762.1,308.54,681.47,140.91,528.26,87.28S207.43,114.35,153.79,267.49,180.87,588.35,334.08,642,654.91,614.88,708.54,461.75Z"/><path class="cls-124" d="M708,461.53C654.4,614.35,487.14,694.93,334.22,641.35S100.9,420.55,154.38,267.71,375.2,34.35,528.12,87.87,761.44,308.68,708,461.53Zm1.68.58c53.85-153.79-27.22-322.07-181-375.92S206.55,113.35,152.7,267.12,179.92,589.2,333.64,643.05,655.79,615.91,709.64,462.11Z"/><path class="cls-124" d="M709.05,461.89c-53.7,153.46-221.69,234.35-375.19,180.65S99.51,420.77,153.28,267.35,375,33,528.48,86.71,762.79,308.46,709.05,461.89Zm1.69.59c54.07-154.38-27.3-323.4-181.67-377.39S205.67,112.35,151.6,266.76s27.29,323.39,181.67,377.39,323.4-27.22,377.52-181.67Z"/><path class="cls-125" d="M710.15,462.35C656.23,616.42,487.58,697.56,333.49,643.64S98.19,421,152.19,266.91,374.79,31.68,528.85,85.6,764.15,308.24,710.15,462.35Zm1.68.59c54.29-155-27.36-324.71-182.4-379S204.79,111.35,150.5,266.35s27.37,324.71,182.41,379,324.64-27.47,378.88-182.43Z"/><path class="cls-125" d="M711.25,462.7c-54.14,154.65-223.46,236.18-378.12,182S96.87,421.21,151,266.54,374.54,30.35,529.21,84.5,765.46,308,711.25,462.7Zm1.68.58c54.51-155.62-27.51-325.93-183.14-380.46S203.84,110.35,149.41,266s27.51,326,183.13,380.47S658.5,618.91,712.93,463.28Z"/><path class="cls-125" d="M712.42,463.06C658,618.35,488,700.19,332.69,645.83S95.56,421.5,149.92,266.17,374.32,29,529.65,83.41,766.79,307.81,712.42,463.06Zm1.61.59c54.76-156.21-27.59-327.2-183.79-381.93S203,109.35,148.31,265.59s27.58,327.2,183.79,381.92S659.37,619.93,714,463.65Z"/><path class="cls-3" d="M713.52,463.5c-54.59,155.92-225.28,238.09-381.2,183.43S94.24,421.72,148.79,265.73,374.1,27.65,530,82.35,768.1,307.51,713.52,463.5Zm1.68.59C770.07,307.22,687.47,135.5,530.6,80.63S202.09,108.35,147.14,265.15s27.73,328.59,184.65,383.46S660.25,620.88,715.2,464.09Z"/><path class="cls-3" d="M714.61,463.87C659.81,620.44,488.46,702.87,332,648.1s-239-226.16-184.24-382.75,226.16-239,382.66-184.21S769.42,307.29,714.61,463.87Zm1.1.36C770.71,307.07,688,135.06,530.82,80s-329.17,27.8-384.19,185,27.73,329.18,184.89,384.2S660.69,621.35,715.71,464.23Z"/></g><text class="cls-126" transform="translate(802.79 499.23) scale(0.69 1)">WebSystem</text></svg>