<svg id="Vrstva_1" data-name="Vrstva 1" xmlns="http://www.w3.org/2000/svg" viewBox="0 0 368 368"><path d="M344,0H24A24,24,0,0,0,0,24V344a24,24,0,0,0,24,24H344a24,24,0,0,0,24-24V24A24,24,0,0,0,344,0Zm8,344a8,8,0,0,1-8,8H24a8,8,0,0,1-8-8V24a8,8,0,0,1,8-8H344a8,8,0,0,1,8,8Z"/><path d="M262.05,64.24l-128,32A8,8,0,0,0,128,104V232.21A39.58,39.58,0,0,0,104,224a40,40,0,1,0,40,40V174.24l112-28v54a39.63,39.63,0,0,0-24-8.2,40,40,0,1,0,40,40V72a8,8,0,0,0-9.95-7.76ZM104,288a24,24,0,1,1,24-24A24,24,0,0,1,104,288Zm40-130.24v-47.5l112-28v47.5ZM232,256a24,24,0,1,1,24-24A24,24,0,0,1,232,256Z"/></svg>