<svg id="Capa_1" data-name="Capa 1" xmlns="http://www.w3.org/2000/svg" viewBox="0 0 512 512"><defs><style>.cls-1{fill:#fff;}</style></defs><path class="cls-1" d="M446,0H66A66.08,66.08,0,0,0,0,66V446a66.08,66.08,0,0,0,66,66H446a66.08,66.08,0,0,0,66-66V66A66.08,66.08,0,0,0,446,0Zm46,446a46.06,46.06,0,0,1-46,46H66a46.06,46.06,0,0,1-46-46V66A46.06,46.06,0,0,1,66,20H446a46.06,46.06,0,0,1,46,46Z"/><path class="cls-1" d="M412.45,210.19h0c-14.16-16.25-33.79-24.49-58.35-24.49-17.69,0-33.06,3.65-45.69,10.85a94.27,94.27,0,0,0-18.08,13.72v-9.54a10,10,0,0,0-10-10H207.52a10,10,0,0,0-10,10V423.25a10,10,0,0,0,10,10h72.27a10,10,0,0,0,10-10V297.06c0-16.8,12.34-30.64,28.09-31.5l2.55-.14a22.49,22.49,0,0,1,16.76,6.27,25.94,25.94,0,0,1,7.93,18.81V423.25a10,10,0,0,0,10,10h68.13a10,10,0,0,0,10-10V281.81C433.25,250.13,426.25,226,412.45,210.19Zm.8,203.06H365.12V290.51a46,46,0,0,0-14.18-33.34,42.21,42.21,0,0,0-31.6-11.72l-2.55.14c-26.36,1.44-47,24-47,51.47V413.25H217.52V210.73h52.81V237a10,10,0,0,0,18.06,5.92c10-13.6,20.07-23.35,29.93-29,9.57-5.46,21.6-8.22,35.77-8.22,18.79,0,32.94,5.77,43.27,17.63h0c10.54,12.11,15.89,31.79,15.89,58.5V413.25Z"/><path class="cls-1" d="M165.88,190.73H93.07a10,10,0,0,0-10,10V284a10,10,0,0,0,20,0V210.73h52.81V413.25H103.07V369a10,10,0,0,0-20,0v54.25a10,10,0,0,0,10,10h72.81a10,10,0,0,0,10-10V200.73A10,10,0,0,0,165.88,190.73Z"/><path class="cls-1" d="M100.15,321.93a10,10,0,1,0,2.93,7.07A10.1,10.1,0,0,0,100.15,321.93Z"/><path class="cls-1" d="M129.48,78.75a50.73,50.73,0,1,0,50.73,50.73A50.79,50.79,0,0,0,129.48,78.75Zm0,81.46a30.73,30.73,0,1,1,30.73-30.73A30.76,30.76,0,0,1,129.48,160.21Z"/><path class="cls-1" d="M388.64,48h-81.5a10,10,0,0,0,0,20h81.5a10,10,0,0,0,0-20Z"/><path class="cls-1" d="M261.76,48h-.12a10,10,0,0,0,0,20h.12a10,10,0,0,0,0-20Z"/></svg>