<svg id="Layer_1" data-name="Layer 1" xmlns="http://www.w3.org/2000/svg" xmlns:xlink="http://www.w3.org/1999/xlink" viewBox="0 0 191.39 47.44"><defs><style>.cls-1,.cls-113{fill:none;}.cls-2{clip-path:url(#clip-path);}.cls-3{fill:#002c42;}.cls-10,.cls-100,.cls-101,.cls-102,.cls-103,.cls-104,.cls-105,.cls-106,.cls-107,.cls-108,.cls-109,.cls-11,.cls-110,.cls-111,.cls-112,.cls-12,.cls-13,.cls-14,.cls-15,.cls-16,.cls-17,.cls-18,.cls-19,.cls-20,.cls-21,.cls-22,.cls-23,.cls-24,.cls-25,.cls-26,.cls-27,.cls-28,.cls-29,.cls-3,.cls-30,.cls-31,.cls-32,.cls-33,.cls-34,.cls-35,.cls-36,.cls-37,.cls-38,.cls-39,.cls-4,.cls-40,.cls-41,.cls-42,.cls-43,.cls-44,.cls-45,.cls-46,.cls-47,.cls-48,.cls-49,.cls-5,.cls-50,.cls-51,.cls-52,.cls-53,.cls-54,.cls-55,.cls-56,.cls-57,.cls-58,.cls-59,.cls-6,.cls-60,.cls-61,.cls-62,.cls-63,.cls-64,.cls-65,.cls-66,.cls-67,.cls-68,.cls-69,.cls-7,.cls-70,.cls-71,.cls-72,.cls-73,.cls-74,.cls-75,.cls-76,.cls-77,.cls-78,.cls-79,.cls-8,.cls-80,.cls-81,.cls-82,.cls-83,.cls-84,.cls-85,.cls-86,.cls-87,.cls-88,.cls-89,.cls-9,.cls-90,.cls-91,.cls-92,.cls-93,.cls-94,.cls-95,.cls-96,.cls-97,.cls-98,.cls-99{fill-rule:evenodd;}.cls-4{fill:#167088;}.cls-5{fill:#147088;}.cls-6{fill:#136f86;}.cls-7{fill:#136e86;}.cls-8{fill:#126e85;}.cls-9{fill:#116d86;}.cls-10{fill:#106d85;}.cls-11{fill:#126c85;}.cls-12{fill:#116c84;}.cls-13{fill:#116b84;}.cls-14{fill:#0f6b83;}.cls-15{fill:#136b83;}.cls-16{fill:#116a82;}.cls-17{fill:#106a82;}.cls-18{fill:#0f6981;}.cls-19{fill:#0f6881;}.cls-20{fill:#106880;}.cls-21{fill:#0f687f;}.cls-22{fill:#0f667f;}.cls-23{fill:#0e667e;}.cls-24{fill:#0d667e;}.cls-25{fill:#0f657d;}.cls-26{fill:#0e647d;}.cls-27{fill:#0d657d;}.cls-28{fill:#0d647d;}.cls-29{fill:#0c637b;}.cls-30{fill:#0d637b;}.cls-31{fill:#0c637a;}.cls-32{fill:#0b627a;}.cls-33{fill:#0b6079;}.cls-34{fill:#0b6178;}.cls-35{fill:#0c6078;}.cls-36{fill:#0b5f77;}.cls-37{fill:#0b5e77;}.cls-38{fill:#095e76;}.cls-39{fill:#0d5e76;}.cls-40{fill:#0b5d75;}.cls-41{fill:#0c5d74;}.cls-42{fill:#0a5c74;}.cls-43{fill:#0a5c73;}.cls-44{fill:#0b5a73;}.cls-45{fill:#0a5a72;}.cls-46{fill:#0b5971;}.cls-47{fill:#075971;}.cls-48{fill:#0a5970;}.cls-49{fill:#07586f;}.cls-50{fill:#09576e;}.cls-51{fill:#07566d;}.cls-52{fill:#09556c;}.cls-53{fill:#07546a;}.cls-54{fill:#07546b;}.cls-55{fill:#09536a;}.cls-56{fill:#05536a;}.cls-57{fill:#065269;}.cls-58{fill:#055168;}.cls-59{fill:#055068;}.cls-60{fill:#065167;}.cls-61{fill:#025068;}.cls-62{fill:#054f66;}.cls-63{fill:#014f66;}.cls-64{fill:#024e65;}.cls-65{fill:#034d65;}.cls-66{fill:#014d64;}.cls-67{fill:#024c64;}.cls-68{fill:#034c63;}.cls-69{fill:#004b63;}.cls-70{fill:#024b62;}.cls-71{fill:#004a62;}.cls-72{fill:#004a61;}.cls-73{fill:#004960;}.cls-74{fill:#00485f;}.cls-75{fill:#00485e;}.cls-76{fill:#00475e;}.cls-77{fill:#00475d;}.cls-78{fill:#00465d;}.cls-79{fill:#00455c;}.cls-80{fill:#00445c;}.cls-81{fill:#00445b;}.cls-82{fill:#00435a;}.cls-83{fill:#00425a;}.cls-84{fill:#004359;}.cls-85{fill:#004159;}.cls-86{fill:#004158;}.cls-87{fill:#004058;}.cls-88{fill:#004057;}.cls-89{fill:#003f56;}.cls-90{fill:#003e56;}.cls-91{fill:#003e55;}.cls-92{fill:#003c53;}.cls-93{fill:#003c52;}.cls-94{fill:#003a51;}.cls-95{fill:#003950;}.cls-96{fill:#003a50;}.cls-97{fill:#00384e;}.cls-98{fill:#00384f;}.cls-99{fill:#00374e;}.cls-100{fill:#00374d;}.cls-101{fill:#00364d;}.cls-102{fill:#00354c;}.cls-103{fill:#00354b;}.cls-104{fill:#00334b;}.cls-105{fill:#00334a;}.cls-106{fill:#00324a;}.cls-107{fill:#003249;}.cls-108{fill:#003148;}.cls-109{fill:#003147;}.cls-110{fill:#003046;}.cls-111{fill:#002f45;}.cls-112{fill:#002d44;}.cls-113{stroke:#fff;stroke-miterlimit:10;stroke-width:0.25px;}.cls-114{clip-path:url(#clip-path-2);}.cls-115,.cls-117{font-size:6px;fill:#fff;}.cls-115{font-family:Montserrat-Light, Montserrat;font-weight:300;}.cls-116{letter-spacing:-0.01em;}.cls-117{font-family:Montserrat-SemiBold, Montserrat;font-weight:600;}.cls-118{letter-spacing:-0.01em;}.cls-119{letter-spacing:-0.01em;}.cls-120{letter-spacing:0em;}.cls-121{letter-spacing:-0.01em;}</style><clipPath id="clip-path" transform="translate(0 0)"><path class="cls-1" d="M24.2,11,22,11.88a.9.9,0,0,0-.51.77V31.4a.35.35,0,0,1-.52.35l-2.3-.94V13.24l-3.28,1.33V29.48l-2.81-1.14V15.72L9.76,16.84a.89.89,0,0,0-.51.76V30a.89.89,0,0,0,.51.76L24.2,36.62a.35.35,0,0,0,.52-.35v-25a.34.34,0,0,0-.34-.38.42.42,0,0,0-.18,0m7.07,13.91V11.31a.34.34,0,0,1,.51-.34l14.44,5.87a.9.9,0,0,1,.52.76v.74a.56.56,0,0,1-.56.55h-3a3.23,3.23,0,0,1-1.07-.21l-7-2.84a.35.35,0,0,0-.51.35V21.6a.56.56,0,0,0,.55.56H46.19a.55.55,0,0,1,.55.55V30a.88.88,0,0,1-.52.76L31.78,36.62a.35.35,0,0,1-.51-.35v-7a.56.56,0,0,1,.56-.56H34a.56.56,0,0,1,.55.56V31.4a.35.35,0,0,0,.51.35l7.88-3.2a.91.91,0,0,0,.52-.77V26a.55.55,0,0,0-.56-.55H31.83a.57.57,0,0,1-.56-.56M27.48,6.1l-21,8.53c-.28.12-.27.13,0,0l21-6.93a.38.38,0,0,1,.53.38V39.48a.37.37,0,0,1-.53.37l-21-7c-.29-.1-.3-.09,0,0l21,8.64a1.65,1.65,0,0,0,1,0L49.5,33a.89.89,0,0,0,.52-.76V15.51a.92.92,0,0,0-.51-.77l-21-8.64a1.52,1.52,0,0,0-1,0"/></clipPath><clipPath id="clip-path-2" transform="translate(0 0)"><rect class="cls-1" width="192.7" height="47.44"/></clipPath></defs><title>Logo-1</title><g class="cls-2"><path class="cls-3" d="M11.17,0l44.3,15.51a.56.56,0,0,1,.34.7L45,47.07a.55.55,0,0,1-.7.34L0,31.9" transform="translate(0 0)"/><path class="cls-4" d="M28.19,23.79a.12.12,0,0,0-.07-.15h0a.12.12,0,0,0-.15.06h0a.11.11,0,0,0,.07.14h0a.11.11,0,0,0,.15-.06h0" transform="translate(0 0)"/><path class="cls-4" d="M28.15,23.77a.08.08,0,0,1-.1.05.07.07,0,0,1,0-.1.07.07,0,0,1,.09,0,.07.07,0,0,1,0,.1h0m.11,0a.19.19,0,0,0-.12-.24.19.19,0,0,0-.24.1h0a.2.2,0,0,0,.12.25.19.19,0,0,0,.24-.12" transform="translate(0 0)"/><path class="cls-4" d="M28.22,23.79a.15.15,0,0,1-.19.1h0a.16.16,0,0,1-.09-.2.14.14,0,0,1,.19-.09h0a.14.14,0,0,1,.09.19m.11,0a.27.27,0,0,0-.17-.34.25.25,0,0,0-.33.17.27.27,0,1,0,.5.18Z" transform="translate(0 0)"/><path class="cls-5" d="M28.3,23.82A.23.23,0,0,1,28,24h0a.24.24,0,0,1-.14-.29.23.23,0,0,1,.29-.14.23.23,0,0,1,.15.29m.1,0a.34.34,0,0,0-.2-.44h0a.34.34,0,0,0-.43.21h0a.34.34,0,0,0,.2.44h0a.34.34,0,0,0,.43-.21Z" transform="translate(0 0)"/><path class="cls-5" d="M28.37,23.85A.3.3,0,0,1,28,24a.29.29,0,0,1-.19-.38h0a.31.31,0,0,1,.58.21Zm.11,0a.43.43,0,0,0-.26-.55.42.42,0,1,0-.28.8h0a.43.43,0,0,0,.54-.25" transform="translate(0 0)"/><path class="cls-5" d="M28.44,23.87a.37.37,0,0,1-.49.23h0a.37.37,0,0,1-.24-.47h0a.38.38,0,0,1,.73.24h0m.11,0a.5.5,0,0,0-.3-.64.51.51,0,0,0-.64.31.5.5,0,0,0,.94.33h0" transform="translate(0 0)"/><path class="cls-5" d="M28.51,23.9a.46.46,0,1,1-.28-.59.46.46,0,0,1,.28.59m.11,0a.57.57,0,1,0-1.08-.38.58.58,0,0,0,1.08.4v0Z" transform="translate(0 0)"/><path class="cls-6" d="M28.59,23.92a.54.54,0,1,1-1-.36.53.53,0,0,1,.68-.32.54.54,0,0,1,.33.68m.1,0a.65.65,0,0,0-.39-.83.65.65,0,0,0-.83.4.65.65,0,0,0,.39.83h0A.64.64,0,0,0,28.69,24Z" transform="translate(0 0)"/><path class="cls-7" d="M28.66,24a.61.61,0,0,1-1.16-.4.6.6,0,0,1,.78-.38h0a.61.61,0,0,1,.38.78m.11,0a.73.73,0,0,0-1.38-.48.73.73,0,0,0,1.38.48Z" transform="translate(0 0)"/><path class="cls-7" d="M28.73,24a.69.69,0,0,1-.88.43.69.69,0,1,1,.45-1.31h0a.67.67,0,0,1,.42.87m.11,0a.8.8,0,1,0-1,.5.82.82,0,0,0,1-.5" transform="translate(0 0)"/><path class="cls-7" d="M28.8,24a.77.77,0,0,1-1.45-.5.77.77,0,0,1,1-.48h0a.77.77,0,0,1,.48,1Zm.11,0a.88.88,0,1,0-1.13.53h0A.87.87,0,0,0,28.91,24" transform="translate(0 0)"/><path class="cls-8" d="M28.88,24a.86.86,0,0,1-1.08.52.84.84,0,0,1-.51-1.08A.83.83,0,0,1,28.36,23,.84.84,0,0,1,28.88,24m.1,0a1,1,0,0,0-1.8-.64,1,1,0,0,0,.58,1.23h0A1,1,0,0,0,29,24.07h0" transform="translate(0 0)"/><path class="cls-9" d="M29,24.05a.92.92,0,1,1-.57-1.17A.92.92,0,0,1,29,24.05m.11,0a1,1,0,1,0-2-.68,1,1,0,0,0,2,.68" transform="translate(0 0)"/><path class="cls-9" d="M29,24.08a1,1,0,1,1-.61-1.28h0A1,1,0,0,1,29,24.07h0m.11,0a1.11,1.11,0,1,0-1.42.68h0a1.12,1.12,0,0,0,1.42-.68" transform="translate(0 0)"/><path class="cls-9" d="M29.1,24.1a1.07,1.07,0,0,1-1.37.66,1.06,1.06,0,0,1-.66-1.36,1.07,1.07,0,0,1,1.36-.67h0a1.09,1.09,0,0,1,.67,1.37m.1,0a1.19,1.19,0,1,0-1.51.73h0a1.2,1.2,0,0,0,1.51-.73Z" transform="translate(0 0)"/><path class="cls-9" d="M29.17,24.12a1.15,1.15,0,1,1-.71-1.46h0a1.16,1.16,0,0,1,.71,1.46m.11,0a1.26,1.26,0,0,0-.78-1.61,1.28,1.28,0,0,0-1.62.78,1.26,1.26,0,0,0,.78,1.61,1.28,1.28,0,0,0,1.62-.78h0" transform="translate(0 0)"/><path class="cls-10" d="M29.24,24.15a1.23,1.23,0,1,1-.75-1.56,1.23,1.23,0,0,1,.75,1.56h0m.11,0a1.35,1.35,0,0,0-2.54-.9A1.36,1.36,0,0,0,27.63,25h0a1.34,1.34,0,0,0,1.71-.82" transform="translate(0 0)"/><path class="cls-11" d="M29.31,24.18a1.3,1.3,0,0,1-2.46-.87,1.3,1.3,0,0,1,2.46.86h0m.11,0a1.42,1.42,0,1,0-1.81.87h0a1.44,1.44,0,0,0,1.81-.87" transform="translate(0 0)"/><path class="cls-11" d="M29.38,24.2a1.38,1.38,0,1,1-.85-1.76,1.37,1.37,0,0,1,.85,1.76h0m.11,0a1.49,1.49,0,1,0-1.91.92,1.49,1.49,0,0,0,1.91-.92Z" transform="translate(0 0)"/><path class="cls-11" d="M29.46,24.23a1.46,1.46,0,1,1-.9-1.86h0a1.47,1.47,0,0,1,.9,1.86m.1,0a1.57,1.57,0,1,0-2,1h0a1.56,1.56,0,0,0,2-1h0" transform="translate(0 0)"/><path class="cls-12" d="M29.53,24.25a1.54,1.54,0,1,1-2.9-1,1.53,1.53,0,0,1,1.95-.94h0a1.54,1.54,0,0,1,.94,1.95Zm.11,0a1.65,1.65,0,1,0-2.11,1h0a1.66,1.66,0,0,0,2.11-1Z" transform="translate(0 0)"/><path class="cls-12" d="M29.6,24.28a1.61,1.61,0,1,1-1-2.06,1.63,1.63,0,0,1,1,2.06m.11,0a1.73,1.73,0,1,0-2.2,1.06,1.72,1.72,0,0,0,2.2-1.06Z" transform="translate(0 0)"/><path class="cls-13" d="M29.67,24.3a1.69,1.69,0,1,1-1-2.15,1.69,1.69,0,0,1,1,2.15h0m.11,0a1.8,1.8,0,1,0-2.3,1.11,1.8,1.8,0,0,0,2.3-1.11Z" transform="translate(0 0)"/><path class="cls-13" d="M29.74,24.33a1.76,1.76,0,1,1-1.08-2.25,1.76,1.76,0,0,1,1.08,2.25Zm.11,0a1.88,1.88,0,1,0-2.39,1.15h0a1.87,1.87,0,0,0,2.39-1.15" transform="translate(0 0)"/><path class="cls-13" d="M29.82,24.35a1.84,1.84,0,1,1-3.48-1.21A1.84,1.84,0,0,1,28.69,22h0a1.84,1.84,0,0,1,1.13,2.34h0m.1,0a2,2,0,1,0-2.49,1.2,2,2,0,0,0,2.49-1.2Z" transform="translate(0 0)"/><path class="cls-14" d="M29.89,24.38a1.92,1.92,0,1,1-1.18-2.45,1.92,1.92,0,0,1,1.18,2.45h0m.11,0a2,2,0,1,0-2.59,1.25A2,2,0,0,0,30,24.41Z" transform="translate(0 0)"/><path class="cls-15" d="M30,24.41a2,2,0,0,1-3.77-1.32,2,2,0,0,1,2.55-1.23h0A2,2,0,0,1,30,24.41m.11,0a2.11,2.11,0,1,0-2.69,1.29h0a2.11,2.11,0,0,0,2.68-1.3" transform="translate(0 0)"/><path class="cls-15" d="M30,24.43a2.07,2.07,0,1,1-1.26-2.64A2.07,2.07,0,0,1,30,24.43m.11,0a2.19,2.19,0,1,0-2.78,1.34,2.17,2.17,0,0,0,2.78-1.34h0" transform="translate(0 0)"/><path class="cls-15" d="M30.1,24.45a2.14,2.14,0,1,1-1.31-2.73,2.14,2.14,0,0,1,1.31,2.73m.11,0a2.26,2.26,0,1,0-2.88,1.39,2.25,2.25,0,0,0,2.88-1.39" transform="translate(0 0)"/><path class="cls-16" d="M30.18,24.48a2.22,2.22,0,1,1-1.37-2.83h0a2.22,2.22,0,0,1,1.37,2.83m.11,0a2.34,2.34,0,1,0-3,1.43h0a2.33,2.33,0,0,0,3-1.43" transform="translate(0 0)"/><path class="cls-16" d="M30.25,24.51a2.3,2.3,0,1,1-1.41-2.94h0a2.31,2.31,0,0,1,1.41,2.94m.11,0A2.42,2.42,0,1,0,27.28,26a2.42,2.42,0,0,0,3.08-1.49" transform="translate(0 0)"/><path class="cls-17" d="M30.32,24.53a2.37,2.37,0,1,1-1.46-3h0a2.38,2.38,0,0,1,1.46,3h0m.11,0a2.49,2.49,0,1,0-3.17,1.53,2.49,2.49,0,0,0,3.17-1.53h0" transform="translate(0 0)"/><path class="cls-17" d="M30.4,24.56a2.45,2.45,0,1,1-1.51-3.13,2.45,2.45,0,0,1,1.51,3.13h0m.1,0a2.57,2.57,0,1,0-3.27,1.57h0A2.57,2.57,0,0,0,30.5,24.6" transform="translate(0 0)"/><path class="cls-18" d="M30.46,24.58a2.53,2.53,0,1,1-1.54-3.22,2.52,2.52,0,0,1,1.54,3.22m.11,0a2.64,2.64,0,1,0-3.37,1.62,2.63,2.63,0,0,0,3.37-1.62Z" transform="translate(0 0)"/><path class="cls-18" d="M30.54,24.6a2.61,2.61,0,1,1-4.93-1.71,2.63,2.63,0,0,1,3.33-1.61h0a2.61,2.61,0,0,1,1.6,3.32m.11,0a2.72,2.72,0,1,0-3.47,1.68,2.72,2.72,0,0,0,3.47-1.68v0" transform="translate(0 0)"/><path class="cls-18" d="M30.61,24.63A2.69,2.69,0,1,1,29,21.21h0a2.68,2.68,0,0,1,1.64,3.42m.11,0a2.8,2.8,0,1,0-3.57,1.72h0A2.8,2.8,0,0,0,30.72,24.67Z" transform="translate(0 0)"/><path class="cls-19" d="M30.69,24.66A2.76,2.76,0,1,1,29,21.14h0a2.77,2.77,0,0,1,1.7,3.52m.11,0a2.88,2.88,0,1,0-3.67,1.76h0A2.89,2.89,0,0,0,30.8,24.7" transform="translate(0 0)"/><path class="cls-19" d="M30.76,24.68A2.84,2.84,0,1,1,29,21.07a2.84,2.84,0,0,1,1.74,3.61m.11,0a3,3,0,1,0-3.77,1.81,2.95,2.95,0,0,0,3.77-1.81h0" transform="translate(0 0)"/><path class="cls-20" d="M30.83,24.71A2.91,2.91,0,1,1,29,21a2.91,2.91,0,0,1,1.79,3.72Zm.11,0a3,3,0,1,0-3.86,1.86,3,3,0,0,0,3.86-1.86" transform="translate(0 0)"/><path class="cls-20" d="M30.91,24.73a3,3,0,1,1-1.85-3.81h0a3,3,0,0,1,1.84,3.81m.1,0a3.1,3.1,0,1,0-4,1.91h0a3.12,3.12,0,0,0,4-1.91Z" transform="translate(0 0)"/><path class="cls-20" d="M31,24.76a3.07,3.07,0,1,1-1.89-3.91h0A3.07,3.07,0,0,1,31,24.76m.1,0a3.18,3.18,0,1,0-4,1.95,3.18,3.18,0,0,0,4-1.95h0" transform="translate(0 0)"/><path class="cls-20" d="M31.05,24.79a3.15,3.15,0,1,1-1.93-4h0a3.14,3.14,0,0,1,1.93,4h0m.11,0a3.26,3.26,0,1,0-4.16,2h0a3.26,3.26,0,0,0,4.15-2Z" transform="translate(0 0)"/><path class="cls-21" d="M31.12,24.81a3.22,3.22,0,1,1-2-4.11,3.22,3.22,0,0,1,2,4.11h0m.11,0a3.34,3.34,0,1,0-4.26,2h0a3.33,3.33,0,0,0,4.25-2h0" transform="translate(0 0)"/><path class="cls-21" d="M31.19,24.83a3.3,3.3,0,1,1-2-4.2,3.29,3.29,0,0,1,2,4.2m.11,0A3.41,3.41,0,1,0,27,27a3.41,3.41,0,0,0,4.35-2.1Z" transform="translate(0 0)"/><path class="cls-21" d="M31.26,24.86a3.37,3.37,0,1,1-2.07-4.3,3.37,3.37,0,0,1,2.07,4.3h0m.11,0A3.49,3.49,0,1,0,26.93,27h0a3.48,3.48,0,0,0,4.44-2.14Z" transform="translate(0 0)"/><path class="cls-22" d="M31.34,24.89a3.45,3.45,0,1,1-2.12-4.4,3.45,3.45,0,0,1,2.12,4.4m.1,0a3.57,3.57,0,1,0-4.54,2.18h0a3.56,3.56,0,0,0,4.54-2.18Z" transform="translate(0 0)"/><path class="cls-23" d="M31.41,24.91a3.53,3.53,0,1,1-2.17-4.49h0a3.53,3.53,0,0,1,2.16,4.49h0m.11,0a3.65,3.65,0,1,0-4.65,2.23h0A3.65,3.65,0,0,0,31.52,25" transform="translate(0 0)"/><path class="cls-23" d="M31.48,24.94a3.6,3.6,0,1,1-2.21-4.6,3.6,3.6,0,0,1,2.21,4.6h0m.11,0a3.72,3.72,0,1,0-4.74,2.28h0A3.72,3.72,0,0,0,31.59,25" transform="translate(0 0)"/><path class="cls-23" d="M31.55,25a3.68,3.68,0,1,1-2.26-4.7A3.68,3.68,0,0,1,31.55,25v0m.11,0a3.79,3.79,0,1,0-4.83,2.33h0A3.79,3.79,0,0,0,31.66,25Z" transform="translate(0 0)"/><path class="cls-23" d="M31.62,25a3.75,3.75,0,1,1-2.3-4.79A3.76,3.76,0,0,1,31.62,25m.11,0A3.87,3.87,0,1,0,26.8,27.4,3.87,3.87,0,0,0,31.73,25h0" transform="translate(0 0)"/><path class="cls-24" d="M31.7,25a3.83,3.83,0,1,1-2.36-4.88h0A3.83,3.83,0,0,1,31.7,25m.11,0a4,4,0,1,0-5,2.42,3.95,3.95,0,0,0,5-2.42Z" transform="translate(0 0)"/><path class="cls-25" d="M31.77,25a3.91,3.91,0,1,1-2.4-5h0a3.9,3.9,0,0,1,2.41,5h0m.11,0a4,4,0,1,0-5.13,2.46h0a4,4,0,0,0,5.13-2.47" transform="translate(0 0)"/><path class="cls-25" d="M31.84,25.06A4,4,0,1,1,29.4,20h0a4,4,0,0,1,2.44,5.08m.11,0a4.1,4.1,0,1,0-5.23,2.52A4.11,4.11,0,0,0,32,25.1h0" transform="translate(0 0)"/><path class="cls-25" d="M31.92,25.09a4.06,4.06,0,1,1-2.5-5.18,4.07,4.07,0,0,1,2.5,5.18m.1,0a4.18,4.18,0,1,0-5.32,2.56A4.18,4.18,0,0,0,32,25.13h0Z" transform="translate(0 0)"/><path class="cls-25" d="M32,25.12a4.14,4.14,0,1,1-2.54-5.28A4.14,4.14,0,0,1,32,25.12v0m.11,0a4.26,4.26,0,1,0-5.43,2.62,4.26,4.26,0,0,0,5.43-2.62" transform="translate(0 0)"/><path class="cls-26" d="M32.06,25.14a4.22,4.22,0,1,1-2.59-5.38h0a4.22,4.22,0,0,1,2.58,5.37m.11,0a4.33,4.33,0,1,0-5.52,2.66,4.33,4.33,0,0,0,5.52-2.66h0" transform="translate(0 0)"/><path class="cls-26" d="M32.13,25.16a4.29,4.29,0,1,1-2.64-5.47h0a4.29,4.29,0,0,1,2.63,5.47m.11,0a4.41,4.41,0,1,0-5.62,2.71,4.41,4.41,0,0,0,5.62-2.71Z" transform="translate(0 0)"/><path class="cls-26" d="M32.21,25.19a4.38,4.38,0,1,1-2.69-5.57h0a4.37,4.37,0,0,1,2.69,5.56h0m.11,0A4.49,4.49,0,1,0,26.59,28h0a4.49,4.49,0,0,0,5.72-2.75" transform="translate(0 0)"/><path class="cls-27" d="M32.28,25.22a4.45,4.45,0,1,1-2.73-5.67,4.46,4.46,0,0,1,2.73,5.67m.11,0a4.57,4.57,0,1,0-5.82,2.8,4.56,4.56,0,0,0,5.82-2.8h0" transform="translate(0 0)"/><path class="cls-28" d="M32.35,25.24a4.52,4.52,0,1,1-2.77-5.77,4.52,4.52,0,0,1,2.77,5.77m.11,0a4.64,4.64,0,1,0-5.91,2.85,4.64,4.64,0,0,0,5.91-2.85" transform="translate(0 0)"/><path class="cls-29" d="M32.43,25.27A4.61,4.61,0,1,1,29.6,19.4h0a4.62,4.62,0,0,1,2.83,5.87m.1,0a4.72,4.72,0,1,0-6,2.89h0a4.72,4.72,0,0,0,6-2.89" transform="translate(0 0)"/><path class="cls-29" d="M32.5,25.29a4.68,4.68,0,1,1-2.88-6h0a4.68,4.68,0,0,1,2.88,6Zm.11,0a4.8,4.8,0,1,0-6.12,2.94h0a4.8,4.8,0,0,0,6.11-2.94Z" transform="translate(0 0)"/><path class="cls-29" d="M32.57,25.32a4.76,4.76,0,1,1-2.92-6.06h0a4.75,4.75,0,0,1,2.92,6h0m.11,0a4.87,4.87,0,1,0-6.21,3,4.87,4.87,0,0,0,6.21-3h0" transform="translate(0 0)"/><path class="cls-29" d="M32.64,25.34a4.83,4.83,0,1,1-3-6.16,4.82,4.82,0,0,1,3,6.16m.11,0a4.95,4.95,0,1,0-6.31,3h0a5,5,0,0,0,6.3-3" transform="translate(0 0)"/><path class="cls-30" d="M32.71,25.37a4.91,4.91,0,1,1-3-6.26,4.91,4.91,0,0,1,3,6.26Zm.11,0a5,5,0,1,0-6.4,3.08h0a5,5,0,0,0,6.4-3.08" transform="translate(0 0)"/><path class="cls-30" d="M32.79,25.39A5,5,0,1,1,29.72,19h0a5,5,0,0,1,3.06,6.35m.1,0a5.1,5.1,0,1,0-6.5,3.13,5.1,5.1,0,0,0,6.5-3.13h0" transform="translate(0 0)"/><path class="cls-30" d="M32.86,25.42A5.06,5.06,0,1,1,29.75,19h0a5.06,5.06,0,0,1,3.11,6.45m.1,0a5.18,5.18,0,1,0-6.59,3.17h0A5.16,5.16,0,0,0,33,25.46Z" transform="translate(0 0)"/><path class="cls-30" d="M32.93,25.44a5.14,5.14,0,1,1-3.15-6.54,5.14,5.14,0,0,1,3.15,6.54Zm.11,0a5.26,5.26,0,1,0-6.7,3.22h0A5.25,5.25,0,0,0,33,25.48" transform="translate(0 0)"/><path class="cls-31" d="M33,25.47a5.21,5.21,0,1,1-3.19-6.65A5.2,5.2,0,0,1,33,25.47m.11,0a5.33,5.33,0,1,0-6.79,3.27,5.33,5.33,0,0,0,6.79-3.27Z" transform="translate(0 0)"/><path class="cls-32" d="M33.07,25.5a5.29,5.29,0,1,1-3.24-6.75,5.29,5.29,0,0,1,3.24,6.75v0m.11,0a5.4,5.4,0,1,0-6.89,3.32,5.4,5.4,0,0,0,6.89-3.32" transform="translate(0 0)"/><path class="cls-32" d="M33.14,25.52a5.36,5.36,0,1,1-3.29-6.84,5.36,5.36,0,0,1,3.29,6.84h0m.11,0a5.48,5.48,0,1,0-7,3.36h0a5.48,5.48,0,0,0,7-3.36" transform="translate(0 0)"/><path class="cls-32" d="M33.22,25.54a5.44,5.44,0,1,1-3.34-6.93h0a5.44,5.44,0,0,1,3.34,6.93m.11,0A5.56,5.56,0,1,0,26.24,29a5.56,5.56,0,0,0,7.09-3.41h0" transform="translate(0 0)"/><path class="cls-32" d="M33.29,25.57a5.52,5.52,0,1,1-3.39-7h0a5.51,5.51,0,0,1,3.38,7h0m.11,0a5.64,5.64,0,1,0-7.18,3.46,5.64,5.64,0,0,0,7.18-3.46h0" transform="translate(0 0)"/><path class="cls-33" d="M33.36,25.6a5.6,5.6,0,1,1-3.43-7.14,5.59,5.59,0,0,1,3.43,7.14h0m.11,0a5.71,5.71,0,1,0-7.28,3.5h0a5.72,5.72,0,0,0,7.28-3.5" transform="translate(0 0)"/><path class="cls-33" d="M33.44,25.62A5.67,5.67,0,1,1,30,18.39a5.69,5.69,0,0,1,3.48,7.23m.1,0a5.79,5.79,0,1,0-7.37,3.55,5.79,5.79,0,0,0,7.37-3.55" transform="translate(0 0)"/><path class="cls-33" d="M33.51,25.64A5.75,5.75,0,1,1,30,18.32a5.75,5.75,0,0,1,3.53,7.32h0m.11,0a5.87,5.87,0,1,0-7.48,3.61,5.87,5.87,0,0,0,7.48-3.61Z" transform="translate(0 0)"/><path class="cls-33" d="M33.58,25.67A5.83,5.83,0,1,1,30,18.24h0a5.82,5.82,0,0,1,3.58,7.42m.11,0a5.94,5.94,0,1,0-7.57,3.65h0a6,6,0,0,0,7.57-3.65h0" transform="translate(0 0)"/><path class="cls-34" d="M33.66,25.7A5.91,5.91,0,1,1,30,18.17h0a5.92,5.92,0,0,1,3.63,7.53m.11,0a6,6,0,1,0-7.68,3.7,6,6,0,0,0,7.68-3.7Z" transform="translate(0 0)"/><path class="cls-35" d="M33.73,25.72a6,6,0,1,1-3.68-7.62h0a6,6,0,0,1,3.67,7.62m.11,0a6.1,6.1,0,1,0-7.78,3.74,6.1,6.1,0,0,0,7.78-3.74h0" transform="translate(0 0)"/><path class="cls-35" d="M33.8,25.75A6.06,6.06,0,1,1,30.08,18a6.06,6.06,0,0,1,3.72,7.73Zm.11,0A6.18,6.18,0,1,0,26,29.57h0a6.17,6.17,0,0,0,7.87-3.78h0Z" transform="translate(0 0)"/><path class="cls-35" d="M33.87,25.77A6.14,6.14,0,1,1,30.11,18a6.13,6.13,0,0,1,3.76,7.82m.11,0a6.25,6.25,0,1,0-8,3.84,6.25,6.25,0,0,0,8-3.84" transform="translate(0 0)"/><path class="cls-36" d="M34,25.8a6.22,6.22,0,1,1-3.82-7.92h0A6.22,6.22,0,0,1,34,25.8m.1,0A6.32,6.32,0,1,0,26,29.72a6.32,6.32,0,0,0,8.06-3.89h0" transform="translate(0 0)"/><path class="cls-36" d="M34,25.83a6.29,6.29,0,1,1-3.86-8h0a6.29,6.29,0,0,1,3.86,8Zm.11,0A6.41,6.41,0,1,0,26,29.79h0a6.41,6.41,0,0,0,8.17-3.93" transform="translate(0 0)"/><path class="cls-37" d="M34.09,25.85a6.37,6.37,0,1,1-3.91-8.11h0a6.37,6.37,0,0,1,3.9,8.11m.11,0a6.49,6.49,0,1,0-8.27,4h0a6.49,6.49,0,0,0,8.26-4" transform="translate(0 0)"/><path class="cls-37" d="M34.16,25.87a6.44,6.44,0,1,1-3.95-8.21,6.44,6.44,0,0,1,3.95,8.21m.11,0a6.56,6.56,0,1,0-8.36,4,6.56,6.56,0,0,0,8.36-4h0" transform="translate(0 0)"/><path class="cls-37" d="M34.23,25.9a6.52,6.52,0,1,1-4-8.31,6.51,6.51,0,0,1,4,8.31h0m.11,0A6.63,6.63,0,1,0,25.89,30h0a6.63,6.63,0,0,0,8.45-4.07Z" transform="translate(0 0)"/><path class="cls-38" d="M34.31,25.93a6.6,6.6,0,1,1-4.06-8.41h0a6.59,6.59,0,0,1,4.05,8.4h0m.1,0a6.71,6.71,0,1,0-8.55,4.12A6.7,6.7,0,0,0,34.41,26Z" transform="translate(0 0)"/><path class="cls-38" d="M34.38,26a6.67,6.67,0,1,1-4.1-8.5h0A6.68,6.68,0,0,1,34.38,26m.11,0a6.79,6.79,0,1,0-8.65,4.16A6.79,6.79,0,0,0,34.49,26h0" transform="translate(0 0)"/><path class="cls-39" d="M34.45,26a6.75,6.75,0,1,1-4.14-8.6A6.75,6.75,0,0,1,34.45,26h0m.11,0a6.87,6.87,0,1,0-8.75,4.2h0A6.86,6.86,0,0,0,34.56,26" transform="translate(0 0)"/><path class="cls-39" d="M34.52,26a6.82,6.82,0,1,1-4.19-8.7A6.83,6.83,0,0,1,34.52,26h0m.11,0a6.94,6.94,0,1,0-8.85,4.25h0a6.94,6.94,0,0,0,8.84-4.24Z" transform="translate(0 0)"/><path class="cls-40" d="M34.59,26a6.9,6.9,0,1,1-4.23-8.8h0A6.9,6.9,0,0,1,34.59,26m.11,0a7,7,0,1,0-8.94,4.31,7,7,0,0,0,8.94-4.31" transform="translate(0 0)"/><path class="cls-40" d="M34.67,26.05a7,7,0,1,1-4.29-8.89h0a7,7,0,0,1,4.28,8.89m.1,0a7.09,7.09,0,1,0-9,4.35h0a7.09,7.09,0,0,0,9-4.35" transform="translate(0 0)"/><path class="cls-40" d="M34.74,26.08a7.06,7.06,0,1,1-4.33-9,7.05,7.05,0,0,1,4.33,9h0m.11,0a7.17,7.17,0,1,0-9.14,4.39h0a7.15,7.15,0,0,0,9.13-4.39h0" transform="translate(0 0)"/><path class="cls-40" d="M34.81,26.1A7.13,7.13,0,1,1,30.43,17h0a7.14,7.14,0,0,1,4.37,9.09h0m.11,0a7.25,7.25,0,1,0-9.24,4.45,7.24,7.24,0,0,0,9.24-4.45Z" transform="translate(0 0)"/><path class="cls-41" d="M34.88,26.13a7.21,7.21,0,1,1-4.42-9.19,7.21,7.21,0,0,1,4.42,9.19h0m.11,0a7.32,7.32,0,1,0-9.33,4.49h0A7.33,7.33,0,0,0,35,26.17" transform="translate(0 0)"/><path class="cls-41" d="M35,26.15a7.29,7.29,0,1,1-4.47-9.28A7.29,7.29,0,0,1,35,26.15h0m.11,0a7.4,7.4,0,1,0-9.43,4.54h0a7.41,7.41,0,0,0,9.43-4.54Z" transform="translate(0 0)"/><path class="cls-42" d="M35,26.18a7.36,7.36,0,1,1-4.52-9.38A7.37,7.37,0,0,1,35,26.18Zm.11,0a7.48,7.48,0,1,0-9.53,4.58,7.49,7.49,0,0,0,9.53-4.58h0" transform="translate(0 0)"/><path class="cls-42" d="M35.1,26.21a7.44,7.44,0,1,1-4.56-9.48,7.43,7.43,0,0,1,4.56,9.48m.11,0a7.55,7.55,0,1,0-9.63,4.64,7.55,7.55,0,0,0,9.63-4.64h0" transform="translate(0 0)"/><path class="cls-42" d="M35.17,26.23a7.52,7.52,0,1,1-4.61-9.58h0a7.52,7.52,0,0,1,4.62,9.58h0m.11,0A7.63,7.63,0,1,0,25.55,31h0a7.63,7.63,0,0,0,9.72-4.68" transform="translate(0 0)"/><path class="cls-43" d="M35.25,26.25a7.59,7.59,0,1,1-4.66-9.67,7.59,7.59,0,0,1,4.66,9.67m.11,0A7.71,7.71,0,1,0,25.53,31a7.72,7.72,0,0,0,9.83-4.73h0" transform="translate(0 0)"/><path class="cls-43" d="M35.32,26.28a7.67,7.67,0,1,1-4.71-9.77,7.67,7.67,0,0,1,4.71,9.77h0m.11,0a7.79,7.79,0,1,0-9.92,4.78,7.79,7.79,0,0,0,9.92-4.78" transform="translate(0 0)"/><path class="cls-43" d="M35.39,26.31a7.75,7.75,0,1,1-4.75-9.88,7.75,7.75,0,0,1,4.75,9.88h0m.11,0a7.86,7.86,0,1,0-10,4.81h0a7.86,7.86,0,0,0,10-4.81" transform="translate(0 0)"/><path class="cls-44" d="M35.47,26.33a7.82,7.82,0,1,1-4.8-10h0a7.84,7.84,0,0,1,4.8,10m.1,0a7.94,7.94,0,1,0-10.12,4.87,7.93,7.93,0,0,0,10.12-4.87Z" transform="translate(0 0)"/><path class="cls-45" d="M35.54,26.35a7.9,7.9,0,1,1-4.85-10.06h0a7.9,7.9,0,0,1,4.85,10.06Zm.11,0a8,8,0,1,0-10.22,4.92,8,8,0,0,0,10.22-4.92h0" transform="translate(0 0)"/><path class="cls-45" d="M35.61,26.38a8,8,0,1,1-4.9-10.16,8,8,0,0,1,4.9,10.16m.11,0a8.09,8.09,0,1,0-10.32,5h0a8.09,8.09,0,0,0,10.31-5Z" transform="translate(0 0)"/><path class="cls-45" d="M35.68,26.41a8.05,8.05,0,1,1-4.94-10.27,8.06,8.06,0,0,1,4.94,10.27m.11,0a8.17,8.17,0,1,0-10.41,5,8.17,8.17,0,0,0,10.41-5h0" transform="translate(0 0)"/><path class="cls-45" d="M35.75,26.43a8.13,8.13,0,1,1-5-10.36,8.12,8.12,0,0,1,5,10.36h0m.11,0a8.24,8.24,0,1,0-10.51,5.06,8.24,8.24,0,0,0,10.51-5.06h0" transform="translate(0 0)"/><path class="cls-45" d="M35.83,26.46a8.21,8.21,0,1,1-5-10.46h0a8.22,8.22,0,0,1,5,10.46m.1,0a8.32,8.32,0,1,0-10.6,5.1h0a8.31,8.31,0,0,0,10.6-5.1Z" transform="translate(0 0)"/><path class="cls-46" d="M35.9,26.48a8.28,8.28,0,1,1-5.09-10.55h0A8.28,8.28,0,0,1,35.9,26.48h0m.11,0A8.4,8.4,0,1,0,25.3,31.67h0A8.39,8.39,0,0,0,36,26.52" transform="translate(0 0)"/><path class="cls-46" d="M36,26.51a8.36,8.36,0,1,1-5.13-10.65h0A8.36,8.36,0,0,1,36,26.51m.11,0a8.48,8.48,0,1,0-10.8,5.2,8.48,8.48,0,0,0,10.8-5.2h0" transform="translate(0 0)"/><path class="cls-46" d="M36,26.54a8.43,8.43,0,1,1-5.17-10.76A8.44,8.44,0,0,1,36,26.54h0m.11,0a8.55,8.55,0,1,0-10.9,5.24h0a8.56,8.56,0,0,0,10.9-5.24h0" transform="translate(0 0)"/><path class="cls-47" d="M36.11,26.56a8.51,8.51,0,1,1-5.22-10.85,8.51,8.51,0,0,1,5.22,10.85h0m.11,0a8.62,8.62,0,1,0-11,5.29h0a8.63,8.63,0,0,0,11-5.29" transform="translate(0 0)"/><path class="cls-48" d="M36.19,26.58a8.59,8.59,0,1,1-5.27-10.94h0a8.59,8.59,0,0,1,5.27,10.94m.1,0A8.7,8.7,0,1,0,25.2,32a8.7,8.7,0,0,0,11.09-5.34h0" transform="translate(0 0)"/><path class="cls-48" d="M36.26,26.61a8.67,8.67,0,1,1-5.32-11h0a8.66,8.66,0,0,1,5.32,11h0m.11,0A8.78,8.78,0,1,0,25.17,32h0a8.77,8.77,0,0,0,11.19-5.38" transform="translate(0 0)"/><path class="cls-48" d="M36.33,26.64A8.75,8.75,0,1,1,31,15.49h0a8.75,8.75,0,0,1,5.36,11.15m.11,0A8.86,8.86,0,1,0,25.15,32.1h0a8.87,8.87,0,0,0,11.29-5.44" transform="translate(0 0)"/><path class="cls-48" d="M36.4,26.66A8.82,8.82,0,1,1,31,15.42a8.81,8.81,0,0,1,5.4,11.24m.11,0a8.93,8.93,0,1,0-11.39,5.48A8.94,8.94,0,0,0,36.51,26.7Z" transform="translate(0 0)"/><path class="cls-49" d="M36.48,26.69A8.9,8.9,0,1,1,31,15.35a8.9,8.9,0,0,1,5.46,11.34h0m.11,0A9,9,0,1,0,25.1,32.25h0a9,9,0,0,0,11.49-5.53" transform="translate(0 0)"/><path class="cls-49" d="M36.55,26.71A9,9,0,1,1,31,15.28h0a9,9,0,0,1,5.51,11.43h0m.11,0a9.09,9.09,0,1,0-11.58,5.57h0a9.09,9.09,0,0,0,11.58-5.57" transform="translate(0 0)"/><path class="cls-49" d="M36.62,26.74A9,9,0,1,1,31.07,15.2h0a9,9,0,0,1,5.55,11.53m.11,0A9.17,9.17,0,1,0,25,32.39a9.16,9.16,0,0,0,11.69-5.62h0" transform="translate(0 0)"/><path class="cls-49" d="M36.69,26.76a9.13,9.13,0,1,1-5.6-11.63,9.12,9.12,0,0,1,5.6,11.63m.11,0A9.24,9.24,0,1,0,25,32.47h0A9.23,9.23,0,0,0,36.8,26.8" transform="translate(0 0)"/><path class="cls-49" d="M36.77,26.79a9.2,9.2,0,1,1-5.65-11.73,9.21,9.21,0,0,1,5.65,11.73h0m.11,0A9.32,9.32,0,1,0,25,32.54h0a9.31,9.31,0,0,0,11.87-5.7Z" transform="translate(0 0)"/><path class="cls-50" d="M36.84,26.81A9.28,9.28,0,1,1,31.15,15a9.29,9.29,0,0,1,5.69,11.82m.11,0a9.4,9.4,0,1,0-12,5.77,9.4,9.4,0,0,0,12-5.77" transform="translate(0 0)"/><path class="cls-50" d="M36.91,26.84a9.35,9.35,0,1,1-5.74-11.93,9.35,9.35,0,0,1,5.74,11.93m.11,0A9.47,9.47,0,1,0,25,32.69,9.47,9.47,0,0,0,37,26.87Z" transform="translate(0 0)"/><path class="cls-50" d="M37,26.86a9.43,9.43,0,1,1-5.79-12,9.45,9.45,0,0,1,5.79,12Zm.1,0a9.55,9.55,0,1,0-12.17,5.86h0A9.54,9.54,0,0,0,37.09,26.9" transform="translate(0 0)"/><path class="cls-50" d="M37.06,26.89a9.51,9.51,0,1,1-5.84-12.12h0a9.52,9.52,0,0,1,5.84,12.12h0m.11,0a9.63,9.63,0,1,0-12.27,5.9A9.64,9.64,0,0,0,37.17,26.93Z" transform="translate(0 0)"/><path class="cls-51" d="M37.13,26.91a9.59,9.59,0,1,1-5.88-12.22,9.59,9.59,0,0,1,5.88,12.22m.11,0A9.7,9.7,0,1,0,24.87,32.9,9.71,9.71,0,0,0,37.24,27h0" transform="translate(0 0)"/><path class="cls-51" d="M37.2,26.94a9.66,9.66,0,1,1-5.93-12.32A9.66,9.66,0,0,1,37.2,26.94h0m.11,0a9.78,9.78,0,1,0-12.46,6h0a9.79,9.79,0,0,0,12.46-6" transform="translate(0 0)"/><path class="cls-51" d="M37.27,27a9.74,9.74,0,1,1-6-12.41,9.74,9.74,0,0,1,6,12.41h0m.11,0a9.85,9.85,0,1,0-12.56,6h0a9.86,9.86,0,0,0,12.56-6" transform="translate(0 0)"/><path class="cls-51" d="M37.35,27a9.82,9.82,0,1,1-6-12.51h0a9.82,9.82,0,0,1,6,12.51m.1,0a9.93,9.93,0,1,0-12.66,6.09A9.93,9.93,0,0,0,37.45,27h0" transform="translate(0 0)"/><path class="cls-52" d="M37.42,27a9.9,9.9,0,1,1-6.08-12.61h0A9.9,9.9,0,0,1,37.42,27m.11,0a10,10,0,1,0-12.76,6.14,10,10,0,0,0,12.76-6.14h0" transform="translate(0 0)"/><path class="cls-52" d="M37.49,27a9.93,9.93,0,1,1-6.11-12.7A10,10,0,0,1,37.49,27m.11,0a10.08,10.08,0,0,0-6.19-12.85h0A10,10,0,1,0,37.6,27.08" transform="translate(0 0)"/><path class="cls-52" d="M37.56,27.06a10,10,0,1,1-6.16-12.8,10,10,0,0,1,6.16,12.8m.11,0a10.16,10.16,0,1,0-13,6.24,10.16,10.16,0,0,0,13-6.24Z" transform="translate(0 0)"/><path class="cls-52" d="M37.63,27.09a10.12,10.12,0,1,1-6.21-12.9,10.12,10.12,0,0,1,6.21,12.9Zm.11,0a10.24,10.24,0,1,0-13,6.28,10.24,10.24,0,0,0,13-6.28" transform="translate(0 0)"/><path class="cls-52" d="M37.71,27.11a10.2,10.2,0,1,1-6.26-13,10.21,10.21,0,0,1,6.26,13m.1,0A10.31,10.31,0,0,0,31.5,14h0a10.31,10.31,0,1,0,6.33,13.14Z" transform="translate(0 0)"/><path class="cls-53" d="M37.78,27.14a10.28,10.28,0,0,1-13.09,6.31h0A10.28,10.28,0,0,1,31.47,14h0a10.28,10.28,0,0,1,6.3,13.09m.11,0a10.39,10.39,0,1,0-13.25,6.37,10.4,10.4,0,0,0,13.25-6.37h0" transform="translate(0 0)"/><path class="cls-54" d="M37.85,27.17A10.35,10.35,0,1,1,31.5,14h0a10.35,10.35,0,0,1,6.35,13.19m.11,0a10.47,10.47,0,1,0-13.34,6.42A10.46,10.46,0,0,0,38,27.21" transform="translate(0 0)"/><path class="cls-54" d="M37.92,27.19A10.43,10.43,0,0,1,18.23,20.3h0a10.43,10.43,0,0,1,19.69,6.89h0m.11,0A10.54,10.54,0,1,0,24.6,33.7,10.55,10.55,0,0,0,38,27.23h0" transform="translate(0 0)"/><path class="cls-54" d="M38,27.22a10.51,10.51,0,1,1-6.45-13.39A10.51,10.51,0,0,1,38,27.22m.1,0a10.62,10.62,0,1,0-13.53,6.51A10.62,10.62,0,0,0,38.1,27.26" transform="translate(0 0)"/><path class="cls-55" d="M38.07,27.24a10.58,10.58,0,1,1-6.49-13.48,10.59,10.59,0,0,1,6.49,13.48m.11,0a10.7,10.7,0,0,0-6.56-13.63h0a10.7,10.7,0,1,0-7.07,20.19h0a10.69,10.69,0,0,0,13.64-6.56Z" transform="translate(0 0)"/><path class="cls-56" d="M38.14,27.27A10.66,10.66,0,1,1,31.6,13.68a10.65,10.65,0,0,1,6.54,13.59h0m.11,0a10.78,10.78,0,1,0-13.73,6.6h0a10.79,10.79,0,0,0,13.73-6.61Z" transform="translate(0 0)"/><path class="cls-56" d="M38.21,27.29a10.72,10.72,0,0,1-13.67,6.59h0a10.74,10.74,0,1,1,7.09-20.27h0a10.74,10.74,0,0,1,6.58,13.68m.11,0A10.85,10.85,0,1,0,24.49,34a10.86,10.86,0,0,0,13.83-6.66" transform="translate(0 0)"/><path class="cls-56" d="M38.29,27.32a10.82,10.82,0,1,1-6.64-13.78,10.81,10.81,0,0,1,6.64,13.78m.11,0a10.93,10.93,0,1,0-13.93,6.7,10.93,10.93,0,0,0,13.93-6.7" transform="translate(0 0)"/><path class="cls-56" d="M38.36,27.35a10.89,10.89,0,0,1-20.57-7.18v0a10.89,10.89,0,0,1,20.56,7.2m.11,0a11,11,0,1,0-14,6.76,11,11,0,0,0,14-6.76" transform="translate(0 0)"/><path class="cls-57" d="M38.43,27.37a11,11,0,1,1-6.73-14h0a11,11,0,0,1,6.72,14m.11,0a11.08,11.08,0,1,0-14.13,6.8,11.09,11.09,0,0,0,14.13-6.8Z" transform="translate(0 0)"/><path class="cls-57" d="M38.51,27.4a11,11,0,1,1-6.66-13.82A11.06,11.06,0,0,1,38.51,27.4m.1,0a11.16,11.16,0,1,0-14.22,6.85,11.16,11.16,0,0,0,14.22-6.85" transform="translate(0 0)"/><path class="cls-57" d="M38.58,27.42a11.12,11.12,0,0,1-21-7.35h0a11.12,11.12,0,0,1,21,7.35h0m.11,0a11.24,11.24,0,1,0-14.32,6.89,11.24,11.24,0,0,0,14.32-6.89" transform="translate(0 0)"/><path class="cls-57" d="M38.65,27.45a11.2,11.2,0,1,1-6.87-14.27,11.21,11.21,0,0,1,6.87,14.27m.11,0a11.31,11.31,0,1,0-14.42,6.94,11.32,11.32,0,0,0,14.42-6.94" transform="translate(0 0)"/><path class="cls-58" d="M38.72,27.47A11.27,11.27,0,1,1,31.81,13.1a11.28,11.28,0,0,1,6.91,14.37m.11,0a11.39,11.39,0,1,0-14.51,7,11.39,11.39,0,0,0,14.51-7Z" transform="translate(0 0)"/><path class="cls-58" d="M38.79,27.5A11.35,11.35,0,1,1,17.37,20h0A11.35,11.35,0,1,1,38.79,27.5m.11,0a11.47,11.47,0,1,0-14.61,7,11.47,11.47,0,0,0,14.61-7" transform="translate(0 0)"/><path class="cls-59" d="M38.87,27.52a11.43,11.43,0,1,1-7-14.56,11.43,11.43,0,0,1,7,14.56m.1,0a11.54,11.54,0,1,0-14.71,7.08A11.54,11.54,0,0,0,39,27.56Z" transform="translate(0 0)"/><path class="cls-59" d="M38.94,27.55A11.51,11.51,0,0,1,24.28,34.6h0a11.5,11.5,0,1,1,7.6-21.71h0a11.5,11.5,0,0,1,7.06,14.66m.11,0a11.62,11.62,0,1,0-14.81,7.13,11.61,11.61,0,0,0,14.81-7.13" transform="translate(0 0)"/><path class="cls-60" d="M39,27.57a11.58,11.58,0,1,1-7.1-14.76A11.58,11.58,0,0,1,39,27.57m.11,0A11.7,11.7,0,0,0,32,12.71h0a11.69,11.69,0,1,0-7.73,22.07h0a11.69,11.69,0,0,0,14.91-7.17" transform="translate(0 0)"/><path class="cls-60" d="M39.08,27.6a11.66,11.66,0,1,1-7.15-14.86A11.65,11.65,0,0,1,39.08,27.6m.11,0a11.77,11.77,0,1,0-15,7.22,11.78,11.78,0,0,0,15-7.22" transform="translate(0 0)"/><path class="cls-60" d="M39.15,27.62A11.73,11.73,0,1,1,32,12.67a11.73,11.73,0,0,1,7.19,15m.11,0A11.85,11.85,0,0,0,16.9,19.82h0a11.85,11.85,0,1,0,22.36,7.83" transform="translate(0 0)"/><path class="cls-61" d="M39.23,27.65A11.81,11.81,0,1,1,32,12.6a11.81,11.81,0,0,1,7.25,15.05m.1,0A11.92,11.92,0,0,0,32,12.49h0a11.92,11.92,0,1,0,7.31,15.2" transform="translate(0 0)"/><path class="cls-62" d="M39.3,27.67A11.89,11.89,0,1,1,32,12.53,11.88,11.88,0,0,1,39.3,27.67m.11,0a12,12,0,1,0-15.3,7.36h0a12,12,0,0,0,15.29-7.36" transform="translate(0 0)"/><path class="cls-62" d="M39.37,27.7A12,12,0,1,1,32,12.46,12,12,0,0,1,39.37,27.7m.11,0a12.08,12.08,0,0,0-22.8-8h0a12.08,12.08,0,0,0,22.8,8Z" transform="translate(0 0)"/><path class="cls-63" d="M39.44,27.73a12,12,0,1,1-7.38-15.35,12,12,0,0,1,7.38,15.35m.11,0a12.15,12.15,0,1,0-22.94-8h0a12.15,12.15,0,0,0,22.94,8Z" transform="translate(0 0)"/><path class="cls-64" d="M39.52,27.75a12.12,12.12,0,1,1-7.44-15.44,12.12,12.12,0,0,1,7.44,15.44m.11,0A12.24,12.24,0,1,0,24,35.29a12.24,12.24,0,0,0,15.59-7.5Z" transform="translate(0 0)"/><path class="cls-64" d="M39.59,27.77a12.19,12.19,0,1,1-7.48-15.53,12.21,12.21,0,0,1,7.48,15.53m.11,0A12.31,12.31,0,1,0,24,35.37,12.31,12.31,0,0,0,39.7,27.81" transform="translate(0 0)"/><path class="cls-65" d="M39.66,27.8a12.27,12.27,0,1,1-7.53-15.64A12.27,12.27,0,0,1,39.66,27.8m.11,0A12.39,12.39,0,1,0,24,35.44a12.38,12.38,0,0,0,15.78-7.6" transform="translate(0 0)"/><path class="cls-66" d="M39.73,27.83a12.35,12.35,0,1,1-7.57-15.74,12.35,12.35,0,0,1,7.57,15.74m.11,0A12.47,12.47,0,1,0,24,35.51a12.46,12.46,0,0,0,15.88-7.64Z" transform="translate(0 0)"/><path class="cls-66" d="M39.81,27.85A12.43,12.43,0,0,1,24,35.48h0a12.42,12.42,0,1,1,15.84-7.62m.11,0a12.54,12.54,0,1,0-16,7.69,12.55,12.55,0,0,0,16-7.69" transform="translate(0 0)"/><path class="cls-67" d="M39.88,27.88a12.5,12.5,0,1,1-7.67-15.94,12.51,12.51,0,0,1,7.67,15.94m.11,0a12.62,12.62,0,1,0-16.08,7.74A12.63,12.63,0,0,0,40,27.92" transform="translate(0 0)"/><path class="cls-68" d="M40,27.9a12.58,12.58,0,1,1-7.72-16A12.58,12.58,0,0,1,40,27.9m.11,0a12.69,12.69,0,1,0-16.17,7.79,12.7,12.7,0,0,0,16.17-7.79" transform="translate(0 0)"/><path class="cls-68" d="M40,27.93A12.66,12.66,0,0,1,23.9,35.69h0A12.66,12.66,0,0,1,32.26,11.8h0A12.67,12.67,0,0,1,40,27.93m.1,0A12.77,12.77,0,1,0,23.86,35.8,12.77,12.77,0,0,0,40.13,28" transform="translate(0 0)"/><path class="cls-69" d="M40.1,28a12.73,12.73,0,1,1-7.81-16.22A12.73,12.73,0,0,1,40.1,28m.11,0a12.85,12.85,0,1,0-16.38,7.88A12.85,12.85,0,0,0,40.21,28" transform="translate(0 0)"/><path class="cls-70" d="M40.17,28a12.81,12.81,0,1,1-7.86-16.33A12.82,12.82,0,0,1,40.17,28m.11,0a12.93,12.93,0,1,0-16.47,7.92A12.92,12.92,0,0,0,40.28,28" transform="translate(0 0)"/><path class="cls-70" d="M40.24,28a12.88,12.88,0,1,1-7.9-16.42A12.89,12.89,0,0,1,40.24,28m.11,0a13,13,0,1,0-16.57,8,13,13,0,0,0,16.57-8" transform="translate(0 0)"/><path class="cls-71" d="M40.32,28a13,13,0,1,1-8-16.52,13,13,0,0,1,8,16.52m.1,0a13.07,13.07,0,1,0-16.66,8A13.07,13.07,0,0,0,40.42,28.06Z" transform="translate(0 0)"/><path class="cls-72" d="M40.39,28.06a13,13,0,1,1-8-16.62,13,13,0,0,1,8,16.62m.11,0a13.16,13.16,0,1,0-16.77,8.07A13.17,13.17,0,0,0,40.5,28.09Z" transform="translate(0 0)"/><path class="cls-72" d="M40.46,28.08a13.12,13.12,0,1,1-8-16.71,13.11,13.11,0,0,1,8,16.71m.11,0A13.23,13.23,0,1,0,23.7,36.23a13.24,13.24,0,0,0,16.87-8.11" transform="translate(0 0)"/><path class="cls-73" d="M40.53,28.1a13.19,13.19,0,1,1-8.09-16.81A13.2,13.2,0,0,1,40.53,28.1m.11,0a13.31,13.31,0,1,0-17,8.16,13.29,13.29,0,0,0,17-8.16" transform="translate(0 0)"/><path class="cls-73" d="M40.6,28.13a13.27,13.27,0,1,1-8.14-16.91A13.26,13.26,0,0,1,40.6,28.13m.11,0a13.38,13.38,0,1,0-17,8.21,13.39,13.39,0,0,0,17.05-8.21" transform="translate(0 0)"/><path class="cls-73" d="M40.67,28.16a13.34,13.34,0,1,1-8.18-17,13.34,13.34,0,0,1,8.18,17m.11,0a13.46,13.46,0,1,0-17.15,8.25A13.46,13.46,0,0,0,40.78,28.2Z" transform="translate(0 0)"/><path class="cls-74" d="M40.75,28.18a13.42,13.42,0,1,1-8.23-17.1,13.42,13.42,0,0,1,8.23,17.1m.1,0a13.54,13.54,0,1,0-17.24,8.3,13.52,13.52,0,0,0,17.24-8.3" transform="translate(0 0)"/><path class="cls-74" d="M40.82,28.21A13.5,13.5,0,1,1,32.54,11a13.49,13.49,0,0,1,8.28,17.2m.11,0a13.62,13.62,0,1,0-17.35,8.34,13.61,13.61,0,0,0,17.35-8.34Z" transform="translate(0 0)"/><path class="cls-74" d="M40.89,28.23a13.57,13.57,0,1,1-8.32-17.3,13.57,13.57,0,0,1,8.32,17.3m.11,0a13.69,13.69,0,1,0-17.44,8.4A13.68,13.68,0,0,0,41,28.27" transform="translate(0 0)"/><path class="cls-75" d="M41,28.26a13.65,13.65,0,1,1-8.37-17.4A13.64,13.64,0,0,1,41,28.26m.11,0a13.76,13.76,0,1,0-17.54,8.45,13.77,13.77,0,0,0,17.54-8.45" transform="translate(0 0)"/><path class="cls-76" d="M41,28.29a13.73,13.73,0,1,1-8.43-17.5A13.74,13.74,0,0,1,41,28.29m.11,0a13.84,13.84,0,1,0-17.64,8.49,13.85,13.85,0,0,0,17.64-8.49Z" transform="translate(0 0)"/><path class="cls-76" d="M41.11,28.31a13.81,13.81,0,1,1-8.47-17.59,13.8,13.8,0,0,1,8.47,17.59m.11,0a13.92,13.92,0,1,0-17.74,8.53,13.93,13.93,0,0,0,17.74-8.53" transform="translate(0 0)"/><path class="cls-77" d="M41.18,28.33a13.88,13.88,0,1,1-8.51-17.69,13.88,13.88,0,0,1,8.51,17.69m.11,0A14,14,0,1,0,23.45,37a14,14,0,0,0,17.84-8.59" transform="translate(0 0)"/><path class="cls-78" d="M41.25,28.36a14,14,0,1,1-8.56-17.79,13.94,13.94,0,0,1,8.56,17.79m.11,0A14.07,14.07,0,1,0,23.43,37,14.07,14.07,0,0,0,41.36,28.4" transform="translate(0 0)"/><path class="cls-78" d="M41.33,28.38a14,14,0,1,1-8.61-17.89,14.05,14.05,0,0,1,8.61,17.89m.11,0a14.15,14.15,0,1,0-18,8.68,14.16,14.16,0,0,0,18-8.68" transform="translate(0 0)"/><path class="cls-79" d="M41.4,28.41a14.11,14.11,0,1,1-8.66-18,14.12,14.12,0,0,1,8.66,18m.11,0a14.23,14.23,0,1,0-18.13,8.72,14.23,14.23,0,0,0,18.13-8.72" transform="translate(0 0)"/><path class="cls-80" d="M41.47,28.44a14.19,14.19,0,1,1-8.7-18.09,14.19,14.19,0,0,1,8.7,18.09m.11,0a14.3,14.3,0,1,0-18.23,8.77,14.31,14.31,0,0,0,18.23-8.77" transform="translate(0 0)"/><path class="cls-80" d="M41.55,28.46a14.27,14.27,0,1,1-8.76-18.18,14.27,14.27,0,0,1,8.76,18.18m.1,0a14.38,14.38,0,1,0-18.32,8.82A14.38,14.38,0,0,0,41.65,28.5" transform="translate(0 0)"/><path class="cls-81" d="M41.62,28.48a14.34,14.34,0,1,1-8.8-18.27,14.35,14.35,0,0,1,8.8,18.27m.11,0A14.46,14.46,0,1,0,23.3,37.39a14.46,14.46,0,0,0,18.43-8.87Z" transform="translate(0 0)"/><path class="cls-81" d="M41.69,28.51a14.42,14.42,0,1,1-8.85-18.38,14.42,14.42,0,0,1,8.85,18.38m.11,0a14.54,14.54,0,1,0-18.52,8.91A14.53,14.53,0,0,0,41.8,28.55Z" transform="translate(0 0)"/><path class="cls-81" d="M41.76,28.54a14.5,14.5,0,1,1-8.89-18.48,14.5,14.5,0,0,1,8.89,18.48m.11,0a14.61,14.61,0,1,0-18.62,9,14.61,14.61,0,0,0,18.62-9" transform="translate(0 0)"/><path class="cls-82" d="M41.84,28.56A14.58,14.58,0,1,1,32.9,10a14.58,14.58,0,0,1,8.94,18.57m.1,0a14.69,14.69,0,1,0-18.72,9,14.69,14.69,0,0,0,18.72-9" transform="translate(0 0)"/><path class="cls-83" d="M41.91,28.59a14.65,14.65,0,1,1-9-18.67,14.66,14.66,0,0,1,9,18.67m.11,0A14.77,14.77,0,1,0,23.2,37.68a14.78,14.78,0,0,0,18.82-9" transform="translate(0 0)"/><path class="cls-83" d="M42,28.61a14.73,14.73,0,1,1-9-18.76,14.72,14.72,0,0,1,9,18.76m.11,0a14.84,14.84,0,1,0-18.91,9.1,14.84,14.84,0,0,0,18.91-9.1Z" transform="translate(0 0)"/><path class="cls-84" d="M42.05,28.64A14.8,14.8,0,1,1,33,9.77a14.8,14.8,0,0,1,9.08,18.87m.11,0a14.92,14.92,0,1,0-19,9.15,14.91,14.91,0,0,0,19-9.15Z" transform="translate(0 0)"/><path class="cls-85" d="M42.12,28.66A14.88,14.88,0,1,1,33,9.7a14.87,14.87,0,0,1,9.12,19m.11,0a15,15,0,1,0-19.11,9.2,15,15,0,0,0,19.11-9.2" transform="translate(0 0)"/><path class="cls-85" d="M42.2,28.69A15,15,0,1,1,33,9.63,14.95,14.95,0,0,1,42.2,28.69m.1,0A15.07,15.07,0,1,0,23.1,38a15.06,15.06,0,0,0,19.2-9.24" transform="translate(0 0)"/><path class="cls-86" d="M42.27,28.71A15,15,0,1,1,33.05,9.56a15,15,0,0,1,9.22,19.15m.11,0A15.15,15.15,0,1,0,23.07,38a15.15,15.15,0,0,0,19.31-9.29Z" transform="translate(0 0)"/><path class="cls-87" d="M42.34,28.74A15.11,15.11,0,1,1,33.07,9.49a15.11,15.11,0,0,1,9.27,19.25m.11,0a15.23,15.23,0,1,0-19.4,9.33,15.23,15.23,0,0,0,19.4-9.33" transform="translate(0 0)"/><path class="cls-87" d="M42.41,28.77A15.19,15.19,0,1,1,33.1,9.41a15.19,15.19,0,0,1,9.31,19.36m.11,0A15.3,15.3,0,1,0,23,38.19a15.3,15.3,0,0,0,19.5-9.39" transform="translate(0 0)"/><path class="cls-88" d="M42.48,28.79A15.26,15.26,0,1,1,33.13,9.34a15.26,15.26,0,0,1,9.35,19.45m.11,0A15.38,15.38,0,1,0,23,38.26a15.37,15.37,0,0,0,19.59-9.43" transform="translate(0 0)"/><path class="cls-88" d="M42.56,28.81A15.34,15.34,0,1,1,33.15,9.27a15.33,15.33,0,0,1,9.41,19.54m.11,0A15.45,15.45,0,1,0,23,38.33a15.45,15.45,0,0,0,19.69-9.48" transform="translate(0 0)"/><path class="cls-89" d="M42.63,28.84A15.42,15.42,0,1,1,33.17,9.2a15.41,15.41,0,0,1,9.46,19.64m.11,0A15.53,15.53,0,1,0,23,38.4a15.54,15.54,0,0,0,19.79-9.52" transform="translate(0 0)"/><path class="cls-89" d="M42.7,28.87A15.49,15.49,0,1,1,33.2,9.13a15.49,15.49,0,0,1,9.5,19.74m.11,0a15.61,15.61,0,1,0-19.89,9.58A15.6,15.6,0,0,0,42.81,28.9" transform="translate(0 0)"/><path class="cls-89" d="M42.77,28.89A15.56,15.56,0,1,1,33.23,9.05a15.57,15.57,0,0,1,9.54,19.84m.11,0a15.68,15.68,0,1,0-20,9.62,15.68,15.68,0,0,0,20-9.62Z" transform="translate(0 0)"/><path class="cls-90" d="M42.85,28.92A15.65,15.65,0,1,1,33.25,9a15.65,15.65,0,0,1,9.6,19.94M43,29a15.76,15.76,0,1,0-20.09,9.66A15.78,15.78,0,0,0,43,29" transform="translate(0 0)"/><path class="cls-91" d="M42.92,28.94a15.72,15.72,0,1,1-9.65-20,15.72,15.72,0,0,1,9.65,20M43,29A15.84,15.84,0,1,0,22.85,38.7,15.83,15.83,0,0,0,43,29" transform="translate(0 0)"/><path class="cls-91" d="M43,29A15.8,15.8,0,1,1,33.3,8.83,15.8,15.8,0,0,1,43,29m.11,0a15.91,15.91,0,1,0-20.28,9.77A15.91,15.91,0,0,0,43.1,29" transform="translate(0 0)"/><path class="cls-92" d="M43.07,29A15.88,15.88,0,1,1,33.33,8.76,15.89,15.89,0,0,1,43.07,29m.1,0A16,16,0,1,0,22.8,38.84,16,16,0,0,0,43.17,29" transform="translate(0 0)"/><path class="cls-92" d="M43.14,29A16,16,0,1,1,33.35,8.68,16,16,0,0,1,43.14,29m.11,0a16.07,16.07,0,1,0-20.48,9.85,16.08,16.08,0,0,0,20.48-9.85" transform="translate(0 0)"/><path class="cls-92" d="M43.21,29A16,16,0,1,1,33.38,8.61,16,16,0,0,1,43.21,29m.11,0A16.15,16.15,0,1,0,22.74,39a16.15,16.15,0,0,0,20.58-9.9" transform="translate(0 0)"/><path class="cls-93" d="M43.28,29.07A16.11,16.11,0,1,1,33.4,8.54a16.1,16.1,0,0,1,9.88,20.53m.11,0a16.22,16.22,0,1,0-20.67,10,16.23,16.23,0,0,0,20.67-10Z" transform="translate(0 0)"/><path class="cls-93" d="M43.36,29.09A16.19,16.19,0,1,1,33.43,8.47a16.19,16.19,0,0,1,9.93,20.62m.1,0a16.3,16.3,0,1,0-20.76,10,16.29,16.29,0,0,0,20.76-10Z" transform="translate(0 0)"/><path class="cls-93" d="M43.43,29.12a16.26,16.26,0,1,1-10-20.72,16.26,16.26,0,0,1,10,20.72m.11,0a16.38,16.38,0,1,0-20.88,10,16.38,16.38,0,0,0,20.88-10" transform="translate(0 0)"/><path class="cls-94" d="M43.5,29.15a16.34,16.34,0,1,1-10-20.82,16.34,16.34,0,0,1,10,20.82m.11,0a16.46,16.46,0,1,0-21,10.08,16.46,16.46,0,0,0,21-10.08" transform="translate(0 0)"/><path class="cls-94" d="M43.57,29.17A16.41,16.41,0,1,1,33.5,8.25,16.42,16.42,0,0,1,43.57,29.17m.11,0A16.53,16.53,0,1,0,22.62,39.35,16.52,16.52,0,0,0,43.68,29.21" transform="translate(0 0)"/><path class="cls-94" d="M43.64,29.19a16.49,16.49,0,1,1-10.11-21,16.48,16.48,0,0,1,10.11,21m.11,0A16.6,16.6,0,1,0,22.59,39.42,16.61,16.61,0,0,0,43.75,29.23Z" transform="translate(0 0)"/><path class="cls-95" d="M43.72,29.22A16.57,16.57,0,1,1,33.55,8.11,16.57,16.57,0,0,1,43.72,29.22m.1,0A16.68,16.68,0,1,0,22.57,39.49,16.68,16.68,0,0,0,43.82,29.26" transform="translate(0 0)"/><path class="cls-96" d="M43.79,29.25A16.65,16.65,0,1,1,33.58,8,16.64,16.64,0,0,1,43.79,29.25m.11,0A16.76,16.76,0,1,0,22.54,39.56,16.76,16.76,0,0,0,43.9,29.28" transform="translate(0 0)"/><path class="cls-96" d="M43.86,29.27A16.72,16.72,0,1,1,33.61,8a16.72,16.72,0,0,1,10.25,21.3m.11,0A16.84,16.84,0,1,0,22.51,39.63,16.83,16.83,0,0,0,44,29.31" transform="translate(0 0)"/><path class="cls-95" d="M43.93,29.29a16.79,16.79,0,1,1-10.3-21.4,16.79,16.79,0,0,1,10.3,21.4m.11,0A16.91,16.91,0,1,0,22.49,39.71,16.9,16.9,0,0,0,44,29.33" transform="translate(0 0)"/><path class="cls-95" d="M44,29.32A16.87,16.87,0,1,1,33.66,7.82,16.86,16.86,0,0,1,44,29.32m.11,0A17,17,0,1,0,22.47,39.78,17,17,0,0,0,44.11,29.36" transform="translate(0 0)"/><path class="cls-95" d="M44.08,29.35a17,17,0,1,1-10.4-21.6,16.95,16.95,0,0,1,10.4,21.6m.11,0A17.06,17.06,0,1,0,22.44,39.85,17.07,17.07,0,0,0,44.19,29.38" transform="translate(0 0)"/><path class="cls-97" d="M44.15,29.37A17,17,0,1,1,33.71,7.68,17,17,0,0,1,44.15,29.37m.11,0A17.14,17.14,0,1,0,22.41,39.92,17.14,17.14,0,0,0,44.26,29.41" transform="translate(0 0)"/><path class="cls-98" d="M44.22,29.4A17.1,17.1,0,1,1,33.73,7.6,17.09,17.09,0,0,1,44.22,29.4m.11,0A17.22,17.22,0,1,0,22.39,40,17.21,17.21,0,0,0,44.33,29.44Z" transform="translate(0 0)"/><path class="cls-98" d="M44.29,29.42A17.17,17.17,0,1,1,33.76,7.53,17.17,17.17,0,0,1,44.29,29.42m.11,0a17.29,17.29,0,1,0-22,10.61,17.29,17.29,0,0,0,22-10.61Z" transform="translate(0 0)"/><path class="cls-97" d="M44.37,29.45a17.26,17.26,0,1,1-10.58-22,17.27,17.27,0,0,1,10.58,22m.11,0A17.38,17.38,0,1,0,22.34,40.14,17.38,17.38,0,0,0,44.48,29.49" transform="translate(0 0)"/><path class="cls-99" d="M44.44,29.48A17.33,17.33,0,1,1,33.81,7.39,17.34,17.34,0,0,1,44.44,29.48m.11,0A17.45,17.45,0,1,0,22.31,40.22,17.44,17.44,0,0,0,44.55,29.51" transform="translate(0 0)"/><path class="cls-99" d="M44.51,29.5A17.41,17.41,0,1,1,33.83,7.32,17.41,17.41,0,0,1,44.51,29.5m.11,0A17.53,17.53,0,1,0,22.29,40.29,17.53,17.53,0,0,0,44.62,29.54" transform="translate(0 0)"/><path class="cls-100" d="M44.59,29.52A17.49,17.49,0,1,1,33.86,7.24,17.5,17.5,0,0,1,44.59,29.52m.1,0a17.6,17.6,0,1,0-22.43,10.8,17.6,17.6,0,0,0,22.43-10.8Z" transform="translate(0 0)"/><path class="cls-101" d="M44.66,29.55A17.57,17.57,0,1,1,33.88,7.17,17.56,17.56,0,0,1,44.66,29.55m.11,0A17.68,17.68,0,1,0,22.24,40.43,17.69,17.69,0,0,0,44.77,29.59" transform="translate(0 0)"/><path class="cls-101" d="M44.73,29.58A17.64,17.64,0,1,1,33.91,7.09,17.66,17.66,0,0,1,44.73,29.58m.11,0a17.76,17.76,0,1,0-22.63,10.9,17.75,17.75,0,0,0,22.63-10.9Z" transform="translate(0 0)"/><path class="cls-102" d="M44.8,29.6A17.72,17.72,0,1,1,33.94,7,17.72,17.72,0,0,1,44.8,29.6m.11,0A17.83,17.83,0,1,0,22.19,40.58,17.83,17.83,0,0,0,44.91,29.64" transform="translate(0 0)"/><path class="cls-102" d="M44.88,29.63A17.8,17.8,0,1,1,34,7,17.8,17.8,0,0,1,44.88,29.63m.1,0a17.91,17.91,0,1,0-22.82,11A17.92,17.92,0,0,0,45,29.67" transform="translate(0 0)"/><path class="cls-102" d="M45,29.65A17.87,17.87,0,1,1,34,6.88,17.86,17.86,0,0,1,45,29.65m.11,0a18,18,0,1,0-22.92,11,18,18,0,0,0,22.92-11Z" transform="translate(0 0)"/><path class="cls-103" d="M45,29.68A17.95,17.95,0,1,1,34,6.8,18,18,0,0,1,45,29.68m.11,0a18.06,18.06,0,1,0-23,11.08,18.05,18.05,0,0,0,23-11.08" transform="translate(0 0)"/><path class="cls-104" d="M45.09,29.7A18,18,0,1,1,34,6.73a18,18,0,0,1,11.05,23m.11,0A18.14,18.14,0,1,0,22.09,40.87,18.13,18.13,0,0,0,45.2,29.74" transform="translate(0 0)"/><path class="cls-104" d="M45.16,29.73A18.1,18.1,0,1,1,34.06,6.66a18.1,18.1,0,0,1,11.1,23.07m.11,0A18.22,18.22,0,1,0,22.06,40.94,18.22,18.22,0,0,0,45.27,29.77" transform="translate(0 0)"/><path class="cls-105" d="M45.24,29.75A18.18,18.18,0,1,1,34.09,6.59,18.18,18.18,0,0,1,45.24,29.75m.1,0A18.29,18.29,0,1,0,22,41,18.29,18.29,0,0,0,45.34,29.79" transform="translate(0 0)"/><path class="cls-106" d="M45.31,29.78A18.25,18.25,0,1,1,34.11,6.52a18.25,18.25,0,0,1,11.2,23.26m.11,0A18.37,18.37,0,1,0,22,41.08,18.37,18.37,0,0,0,45.42,29.82Z" transform="translate(0 0)"/><path class="cls-107" d="M45.38,29.8A18.33,18.33,0,1,1,34.13,6.45,18.34,18.34,0,0,1,45.38,29.8m.11,0A18.45,18.45,0,1,0,22,41.15a18.45,18.45,0,0,0,23.5-11.31Z" transform="translate(0 0)"/><path class="cls-107" d="M45.45,29.83A18.41,18.41,0,1,1,34.17,6.37,18.41,18.41,0,0,1,45.45,29.83m.11,0A18.52,18.52,0,1,0,22,41.23a18.51,18.51,0,0,0,23.6-11.36" transform="translate(0 0)"/><path class="cls-108" d="M45.52,29.85A18.48,18.48,0,1,1,34.19,6.3,18.48,18.48,0,0,1,45.52,29.85m.11,0A18.59,18.59,0,1,0,21.93,41.3a18.6,18.6,0,0,0,23.7-11.41Z" transform="translate(0 0)"/><path class="cls-109" d="M45.6,29.88A18.56,18.56,0,1,1,34.21,6.23,18.56,18.56,0,0,1,45.6,29.88m.11,0a18.68,18.68,0,1,0-23.8,11.46,18.67,18.67,0,0,0,23.8-11.46Z" transform="translate(0 0)"/><path class="cls-109" d="M45.67,29.91A18.64,18.64,0,1,1,34.24,6.16,18.64,18.64,0,0,1,45.67,29.91m.11,0a18.75,18.75,0,1,0-23.9,11.5,18.75,18.75,0,0,0,23.9-11.5" transform="translate(0 0)"/><path class="cls-109" d="M45.74,29.93A18.71,18.71,0,1,1,34.27,6.08,18.71,18.71,0,0,1,45.74,29.93m.11,0a18.83,18.83,0,1,0-24,11.55A18.82,18.82,0,0,0,45.85,30" transform="translate(0 0)"/><path class="cls-110" d="M45.81,30A18.79,18.79,0,1,1,34.28,6,18.79,18.79,0,0,1,45.81,30m.11,0a18.91,18.91,0,1,0-24.09,11.6A18.9,18.9,0,0,0,45.92,30" transform="translate(0 0)"/><path class="cls-110" d="M45.89,30a18.87,18.87,0,1,1-11.57-24A18.87,18.87,0,0,1,45.89,30M46,30A19,19,0,1,0,21.8,41.66,19,19,0,0,0,46,30" transform="translate(0 0)"/><path class="cls-110" d="M46,30A18.94,18.94,0,1,1,34.34,5.86,19,19,0,0,1,46,30m.11,0a19.06,19.06,0,1,0-24.29,11.7A19.07,19.07,0,0,0,46.07,30Z" transform="translate(0 0)"/><path class="cls-111" d="M46,30A19,19,0,1,1,34.36,5.79,19,19,0,0,1,46,30m.11,0A19.14,19.14,0,1,0,21.76,41.81,19.14,19.14,0,0,0,46.14,30.07" transform="translate(0 0)"/><path class="cls-111" d="M46.11,30.06A19.1,19.1,0,1,1,34.39,5.72,19.1,19.1,0,0,1,46.11,30.06m.1,0A19.21,19.21,0,1,0,21.73,41.88,19.21,19.21,0,0,0,46.21,30.09" transform="translate(0 0)"/><path class="cls-111" d="M46.18,30.08A19.18,19.18,0,1,1,34.42,5.65,19.2,19.2,0,0,1,46.18,30.08m.11,0A19.29,19.29,0,1,0,21.7,42,19.29,19.29,0,0,0,46.29,30.12Z" transform="translate(0 0)"/><path class="cls-112" d="M46.25,30.11A19.25,19.25,0,1,1,34.44,5.57,19.26,19.26,0,0,1,46.25,30.11m.11,0A19.37,19.37,0,1,0,21.68,42,19.36,19.36,0,0,0,46.36,30.15Z" transform="translate(0 0)"/><path class="cls-112" d="M46.32,30.13A19.33,19.33,0,1,1,34.46,5.5,19.33,19.33,0,0,1,46.32,30.13m.11,0A19.44,19.44,0,1,0,21.66,42.1,19.45,19.45,0,0,0,46.43,30.17" transform="translate(0 0)"/><path class="cls-112" d="M46.4,30.16A19.41,19.41,0,1,1,34.49,5.43,19.42,19.42,0,0,1,46.4,30.16m.1,0a19.52,19.52,0,1,0-24.87,12,19.52,19.52,0,0,0,24.87-12" transform="translate(0 0)"/><path class="cls-3" d="M46.47,30.19A19.49,19.49,0,1,1,34.52,5.36,19.48,19.48,0,0,1,46.47,30.19m.11,0a19.6,19.6,0,1,0-25,12,19.6,19.6,0,0,0,25-12" transform="translate(0 0)"/><path class="cls-3" d="M46.54,30.21a19.56,19.56,0,1,1-12-24.93,19.56,19.56,0,0,1,12,24.93m.07,0a19.63,19.63,0,1,0-25,12.05,19.64,19.64,0,0,0,25-12" transform="translate(0 0)"/></g><polygon class="cls-113" points="81.61 10.46 78.19 20.88 74.83 10.46 71.68 10.46 68.21 20.79 64.89 10.46 61.37 10.46 66.2 25.16 69.83 25.16 73.17 15.21 76.4 25.16 80.06 25.16 84.86 10.46 81.61 10.46"/><g class="cls-114"><path class="cls-113" d="M90.89,16.17a2.79,2.79,0,0,1,1.85.64,2.73,2.73,0,0,1,.92,1.72H88.1A2.7,2.7,0,0,1,89,16.8,2.84,2.84,0,0,1,90.89,16.17Zm5.86,3.39a6,6,0,0,0-.77-3.1,5.2,5.2,0,0,0-2.11-2.05,6.21,6.21,0,0,0-3-.71,6.46,6.46,0,0,0-3.08.74,5.61,5.61,0,0,0-2.16,2.08,5.83,5.83,0,0,0-.79,3,5.76,5.76,0,0,0,.8,3,5.41,5.41,0,0,0,2.27,2.06,7.35,7.35,0,0,0,3.38.75A5.83,5.83,0,0,0,96,23.5l-1.74-1.89a3.71,3.71,0,0,1-1.27.83,4.25,4.25,0,0,1-1.56.27,3.69,3.69,0,0,1-2.15-.61,2.71,2.71,0,0,1-1.09-1.66h8.55C96.73,19.89,96.75,19.6,96.75,19.56Z" transform="translate(0 0)"/><path class="cls-113" d="M105.05,22.64a2.72,2.72,0,0,1-2.07-.85,3.16,3.16,0,0,1-.81-2.28,3.18,3.18,0,0,1,.81-2.28,2.95,2.95,0,0,1,4.14,0,3.22,3.22,0,0,1,.8,2.28,3.2,3.2,0,0,1-.8,2.28A2.72,2.72,0,0,1,105.05,22.64Zm.56-8.94a4.36,4.36,0,0,0-3.4,1.36V9.58H98.94V25.16h3.12v-1.3a4.36,4.36,0,0,0,3.55,1.47,5.8,5.8,0,0,0,2.87-.72,5.31,5.31,0,0,0,2-2,6.16,6.16,0,0,0,.73-3.06,6.12,6.12,0,0,0-.73-3.05,5.17,5.17,0,0,0-2-2A5.8,5.8,0,0,0,105.61,13.7Z" transform="translate(0 0)"/><path class="cls-113" d="M118.49,25.41a8.72,8.72,0,0,0,3.42-.6A4.77,4.77,0,0,0,124,23.16a4,4,0,0,0,.7-2.3,3.37,3.37,0,0,0-.76-2.33,4.53,4.53,0,0,0-1.84-1.26,22.33,22.33,0,0,0-2.75-.8,12.24,12.24,0,0,1-2.41-.73,1.2,1.2,0,0,1-.79-1.12,1.42,1.42,0,0,1,.69-1.22,3.8,3.8,0,0,1,2.11-.46A8.19,8.19,0,0,1,123,14.1l1-2.59a7.93,7.93,0,0,0-2.35-1,11,11,0,0,0-2.75-.34,8.45,8.45,0,0,0-3.41.61,4.64,4.64,0,0,0-2.09,1.65,4.11,4.11,0,0,0-.7,2.32,3.46,3.46,0,0,0,.77,2.35,4.36,4.36,0,0,0,1.84,1.28,23.64,23.64,0,0,0,2.75.8c.73.17,1.3.32,1.73.46a3.07,3.07,0,0,1,1.05.56,1.07,1.07,0,0,1,.41.87,1.28,1.28,0,0,1-.69,1.14,4.13,4.13,0,0,1-2.14.43,8.48,8.48,0,0,1-2.61-.42,7.82,7.82,0,0,1-2.24-1.11l-1.16,2.56a7.73,7.73,0,0,0,2.61,1.23A11.9,11.9,0,0,0,118.49,25.41Z" transform="translate(0 0)"/><path class="cls-113" d="M134.68,13.86l-3.2,7.67-3.17-7.67h-3.38l4.89,11.39,0,.1a2.62,2.62,0,0,1-.75,1.08,1.73,1.73,0,0,1-1.09.33,2.63,2.63,0,0,1-1-.19,2.75,2.75,0,0,1-.87-.53l-1.2,2.34a3.78,3.78,0,0,0,1.41.75,5.75,5.75,0,0,0,1.74.27,4.7,4.7,0,0,0,2.76-.79,5.91,5.91,0,0,0,1.92-2.75l5.11-12Z" transform="translate(0 0)"/><path class="cls-113" d="M142.8,25.33a8.24,8.24,0,0,0,2.87-.45,4.09,4.09,0,0,0,1.84-1.27,3,3,0,0,0,.63-1.87,2.71,2.71,0,0,0-.65-1.93,3.52,3.52,0,0,0-1.54-1,19.26,19.26,0,0,0-2.26-.49,10.4,10.4,0,0,1-1.81-.4.76.76,0,0,1-.57-.74.86.86,0,0,1,.53-.75,3.23,3.23,0,0,1,1.57-.3,6.54,6.54,0,0,1,3.26.84l1.09-2.33a6.76,6.76,0,0,0-2-.72,10.8,10.8,0,0,0-2.39-.26,7.64,7.64,0,0,0-2.8.46,4.08,4.08,0,0,0-1.81,1.29,3.11,3.11,0,0,0-.62,1.9,2.74,2.74,0,0,0,.66,2,3.55,3.55,0,0,0,1.57,1,16.93,16.93,0,0,0,2.29.48,8.55,8.55,0,0,1,1.74.36.73.73,0,0,1,.57.69c0,.69-.69,1-2.08,1a7.72,7.72,0,0,1-2.1-.3,7,7,0,0,1-1.83-.79l-1.09,2.35a7.19,7.19,0,0,0,2.14.87A10.64,10.64,0,0,0,142.8,25.33Z" transform="translate(0 0)"/><path class="cls-113" d="M156.56,22.31a2.13,2.13,0,0,1-1.33.42,1.34,1.34,0,0,1-1-.39,1.53,1.53,0,0,1-.37-1.1v-4.6h2.81V14.12h-2.81V11.37h-3.28v2.75h-1.74v2.52h1.74v4.64a3.94,3.94,0,0,0,1.1,3,4.4,4.4,0,0,0,3.12,1,5.94,5.94,0,0,0,1.48-.18,3.52,3.52,0,0,0,1.19-.53Z" transform="translate(0 0)"/><path class="cls-113" d="M164.14,16.17a2.81,2.81,0,0,1,1.85.64,2.73,2.73,0,0,1,.92,1.72h-5.56a2.7,2.7,0,0,1,.92-1.73A2.82,2.82,0,0,1,164.14,16.17ZM170,19.56a6.12,6.12,0,0,0-.77-3.1,5.2,5.2,0,0,0-2.11-2.05,6.27,6.27,0,0,0-3-.71,6.43,6.43,0,0,0-3.08.74,5.47,5.47,0,0,0-2.16,2.08,6.06,6.06,0,0,0,0,6,5.41,5.41,0,0,0,2.27,2.06,7.32,7.32,0,0,0,3.38.75,5.85,5.85,0,0,0,4.66-1.83l-1.74-1.89a3.81,3.81,0,0,1-1.27.83,4.27,4.27,0,0,1-1.57.27,3.65,3.65,0,0,1-2.14-.61,2.63,2.63,0,0,1-1.09-1.66h8.54C170,19.89,170,19.6,170,19.56Z" transform="translate(0 0)"/><path class="cls-113" d="M186.65,13.7a5.57,5.57,0,0,0-2.32.48,4.63,4.63,0,0,0-1.75,1.36A3.82,3.82,0,0,0,181,14.17a4.76,4.76,0,0,0-2.16-.47,5.25,5.25,0,0,0-2,.37,4.18,4.18,0,0,0-1.54,1.1V13.86h-3.13v11.3h3.28V19.49a3.18,3.18,0,0,1,.67-2.21,2.3,2.3,0,0,1,1.8-.75c1.43,0,2.15.89,2.15,2.67v6h3.27V19.49a3.18,3.18,0,0,1,.68-2.21,2.3,2.3,0,0,1,1.82-.75,2,2,0,0,1,1.59.66,3.07,3.07,0,0,1,.55,2v6h3.28V18.69A5.09,5.09,0,0,0,190,15,4.53,4.53,0,0,0,186.65,13.7Z" transform="translate(0 0)"/></g><text class="cls-115" transform="translate(60.9 36.16)"><tspan class="cls-116">W</tspan><tspan x="6.5" y="0">EB </tspan></text><text class="cls-117" transform="translate(77.47 36.16)">D<tspan class="cls-118" x="4.96" y="0">E</tspan><tspan class="cls-116" x="8.92" y="0">V</tspan><tspan x="13.21" y="0">E</tspan><tspan class="cls-119" x="17.23" y="0">L</tspan><tspan class="cls-120" x="20.75" y="0">O</tspan><tspan class="cls-121" x="25.81" y="0">P</tspan><tspan x="30.1" y="0">MENT</tspan></text><text class="cls-115" transform="translate(125.78 36.16)"><tspan xml:space="preserve"> &amp; </tspan><tspan class="cls-116" x="7.01" y="0">W</tspan><tspan class="cls-120" x="13.52" y="0">EB</tspan></text><text class="cls-117" transform="translate(147.81 36.16)">DESIGN</text></svg>