<?xml version="1.0" encoding="utf-8"?>
<!-- Generator: Adobe Illustrator 23.0.1, SVG Export Plug-In . SVG Version: 6.00 Build 0)  -->
<svg version="1.1" id="Capa_1" xmlns="http://www.w3.org/2000/svg" xmlns:xlink="http://www.w3.org/1999/xlink" x="0px" y="0px"
	 viewBox="0 0 512 512" style="enable-background:new 0 0 512 512;" xml:space="preserve">
<style type="text/css">
	.st0{fill:#1A202C;}
</style>
<g>
	<g>
		<path class="st0" d="M31,203.2V467c0,6.9,1.7,13.4,4.5,19.3L174.8,347C121.4,293.6,86.5,258.7,31,203.2z"/>
	</g>
</g>
<g>
	<g>
		<path class="st0" d="M337.2,347l139.3,139.3c2.8-5.9,4.5-12.4,4.5-19.3V203.2C427.7,256.5,391.2,293,337.2,347z"/>
	</g>
</g>
<g>
	<g>
		<path class="st0" d="M256,152c-8.3,0-15,6.7-15,15s6.7,15,15,15c10.4,0,13.1-7.1,14.8-16C270.2,158.2,263.9,152,256,152z"/>
	</g>
</g>
<g>
	<g>
		<path class="st0" d="M309.8,362H202.2L56.7,507.5c5.9,2.8,12.4,4.5,19.3,4.5h360c6.9,0,13.4-1.7,19.3-4.5L309.8,362z"/>
	</g>
</g>
<g>
	<g>
		<polygon class="st0" points="46,175.8 91,220.8 91,130.8 		"/>
	</g>
</g>
<g>
	<g>
		<polygon class="st0" points="421,130.8 421,220.8 466,175.8 		"/>
	</g>
</g>
<g>
	<g>
		<path class="st0" d="M371.8,0H137.4C128.3,0,121,7.3,121,16.4v234.4l81.2,81.2h107.6l81.2-81.2V19.2C391,8.6,382.4,0,371.8,0z
			 M286,200.3c-8,7.2-18.4,11.7-30,11.7c-24.8,0-45-20.2-45-45s20.2-45,45-45s45,20.2,45,45c0,19.8,30,19.8,30,0
			c0-41.4-33.6-75-75-75s-75,33.6-75,75c0,25.7,12.9,49.3,34.7,63.2c22.3,14.2,49.8,15.6,75.7,3.7c17.9-8.3,30.6,19,12.5,27.2
			c-34.4,15.8-72.6,14.7-104.4-5.7C169.1,236,151,202.9,151,167c0-57.9,47.1-105,105-105s105,47.1,105,105
			C361,205.6,315.2,226.6,286,200.3z"/>
	</g>
</g>
</svg>
