<svg id="Capa_1" data-name="Capa 1" xmlns="http://www.w3.org/2000/svg" viewBox="0 0 472.4 465.67"><path d="M461.27,348.88a28.49,28.49,0,0,0-22.4-7.33c-7.18.83-15.53,2.24-24.58,4V119.9A27.89,27.89,0,0,0,386.44,92H341.83v-27a61.7,61.7,0,1,0-123.39,0V92h-44.6A27.89,27.89,0,0,0,146,119.9V264.41c-19.65,3.43-44.79,11.17-65.09,28.49a151,151,0,0,0-16.29,16,24.49,24.49,0,0,0-19.15-9.23H10.5A10.5,10.5,0,0,0,0,310.2V458.53A10.5,10.5,0,0,0,10.5,469h35A24.55,24.55,0,0,0,70,444.5v-8.07c10.46.66,34.14,3.24,84.27,12.66C213.43,460.2,250.37,464,279.47,464c20.85,0,37.69-1.94,55.8-4.49,22.38-3.15,50.54-11.11,75.38-18.14,11.5-3.25,22.37-6.33,32-8.75,25.9-6.53,29.77-22.86,29.77-32V373.82A33.89,33.89,0,0,0,461.27,348.88ZM239.44,65.06a40.7,40.7,0,1,1,81.39,0V92H239.44v-27ZM167,119.9a6.87,6.87,0,0,1,6.86-6.86h44.6v23.18a10.5,10.5,0,0,0,21,0V113h81.39v23.18a10.5,10.5,0,0,0,21,0V113h44.61a6.86,6.86,0,0,1,6.85,6.86V348.69c0,.34,0,.67,0,1l-4.78,1c-25.48,5.26-51.83,10.69-72,11.95-17.43,1.09-49.16-3.45-58.57-8.38-6.34-3.32-9.89-7.4-11.87-11h39.11A29.29,29.29,0,0,0,314.49,314V291a29.29,29.29,0,0,0-29.26-29.26H178c-1.09,0-5.09-.12-11,.22V119.9ZM49,444.5A3.54,3.54,0,0,1,45.45,448H21V320.7H45.45A3.53,3.53,0,0,1,49,324.22V444.5ZM451.4,400.57c0,2.23,0,8.15-13.91,11.66-9.9,2.5-20.9,5.61-32.55,8.9-24.2,6.85-51.63,14.61-72.6,17.56-41.32,5.82-75.76,8.24-174.23-10.24-50.64-9.51-75.77-12.38-88.13-13v-78a10.89,10.89,0,0,0,1-1.52C73.69,331,80.32,321,94.52,308.87c32.37-27.61,82.42-26.14,82.91-26.12h107.8a8.27,8.27,0,0,1,8.26,8.26v23a8.27,8.27,0,0,1-8.26,8.26H177.84a10.5,10.5,0,0,0,0,21h46c2.15,8.61,8.11,21.05,24.43,29.6,14.93,7.82,51.94,11.85,69.62,10.74,21.65-1.35,48.74-6.94,74.93-12.34,18.4-3.8,35.78-7.38,48.46-8.83a7.76,7.76,0,0,1,6,2.13,12.77,12.77,0,0,1,4.11,9.27v26.75Z" transform="translate(0 -3.36)"/></svg>